solid OpenSCAD_Model
  facet normal 1 -0 0
    outer loop
      vertex 7.5 4.92341 -4.79611
      vertex 7.5 7 -10
      vertex 7.5 4.92341 4.79611
    endloop
  endfacet
  facet normal 1 0 0
    outer loop
      vertex 7.5 7 -10
      vertex 7.5 4.92341 -4.79611
      vertex 7.5 4.95 -5.1
    endloop
  endfacet
  facet normal 1 -0 0
    outer loop
      vertex 7.5 4.84446 4.50146
      vertex 7.5 4.92341 -4.79611
      vertex 7.5 4.92341 4.79611
    endloop
  endfacet
  facet normal 1 0 0
    outer loop
      vertex 7.5 4.84446 4.50146
      vertex 7.5 4.84446 -4.50146
      vertex 7.5 4.92341 -4.79611
    endloop
  endfacet
  facet normal 1 -0 0
    outer loop
      vertex 7.5 4.71554 4.225
      vertex 7.5 4.84446 -4.50146
      vertex 7.5 4.84446 4.50146
    endloop
  endfacet
  facet normal 1 0 0
    outer loop
      vertex 7.5 4.71554 4.225
      vertex 7.5 4.71554 -4.225
      vertex 7.5 4.84446 -4.50146
    endloop
  endfacet
  facet normal 1 -0 0
    outer loop
      vertex 7.5 4.54058 3.97512
      vertex 7.5 4.71554 -4.225
      vertex 7.5 4.71554 4.225
    endloop
  endfacet
  facet normal 1 0 0
    outer loop
      vertex 7.5 4.54058 3.97512
      vertex 7.5 4.54058 -3.97512
      vertex 7.5 4.71554 -4.225
    endloop
  endfacet
  facet normal 1 -0 0
    outer loop
      vertex 7.5 4.32488 3.75942
      vertex 7.5 4.54058 -3.97512
      vertex 7.5 4.54058 3.97512
    endloop
  endfacet
  facet normal 1 0 0
    outer loop
      vertex 7.5 4.32488 3.75942
      vertex 7.5 4.32488 -3.75942
      vertex 7.5 4.54058 -3.97512
    endloop
  endfacet
  facet normal 1 -0 0
    outer loop
      vertex 7.5 4.075 3.58446
      vertex 7.5 4.32488 -3.75942
      vertex 7.5 4.32488 3.75942
    endloop
  endfacet
  facet normal 1 0 0
    outer loop
      vertex 7.5 4.075 3.58446
      vertex 7.5 4.075 -3.58446
      vertex 7.5 4.32488 -3.75942
    endloop
  endfacet
  facet normal 1 -0 0
    outer loop
      vertex 7.5 3.79853 3.45554
      vertex 7.5 4.075 -3.58446
      vertex 7.5 4.075 3.58446
    endloop
  endfacet
  facet normal 1 0 0
    outer loop
      vertex 7.5 3.79853 3.45554
      vertex 7.5 3.79853 -3.45554
      vertex 7.5 4.075 -3.58446
    endloop
  endfacet
  facet normal 1 -0 0
    outer loop
      vertex 7.5 3.50388 3.37659
      vertex 7.5 3.79853 -3.45554
      vertex 7.5 3.79853 3.45554
    endloop
  endfacet
  facet normal 1 0 0
    outer loop
      vertex 7.5 3.50388 3.37659
      vertex 7.5 3.50388 -3.37659
      vertex 7.5 3.79853 -3.45554
    endloop
  endfacet
  facet normal 1 -0 0
    outer loop
      vertex 7.5 3.2 3.35
      vertex 7.5 3.50388 -3.37659
      vertex 7.5 3.50388 3.37659
    endloop
  endfacet
  facet normal 1 0 0
    outer loop
      vertex 7.5 3.2 3.35
      vertex 7.5 3.2 -3.35
      vertex 7.5 3.50388 -3.37659
    endloop
  endfacet
  facet normal 1 0 0
    outer loop
      vertex 7.5 2.89612 3.37659
      vertex 7.5 3.2 -3.35
      vertex 7.5 3.2 3.35
    endloop
  endfacet
  facet normal 1 0 0
    outer loop
      vertex 7.5 2.89612 3.37659
      vertex 7.5 2.89612 -3.37659
      vertex 7.5 3.2 -3.35
    endloop
  endfacet
  facet normal 1 0 0
    outer loop
      vertex 7.5 2.60146 3.45554
      vertex 7.5 2.89612 -3.37659
      vertex 7.5 2.89612 3.37659
    endloop
  endfacet
  facet normal 1 0 0
    outer loop
      vertex 7.5 2.60146 3.45554
      vertex 7.5 2.60146 -3.45554
      vertex 7.5 2.89612 -3.37659
    endloop
  endfacet
  facet normal 1 0 0
    outer loop
      vertex 7.5 2.325 3.58446
      vertex 7.5 2.60146 -3.45554
      vertex 7.5 2.60146 3.45554
    endloop
  endfacet
  facet normal 1 0 0
    outer loop
      vertex 7.5 2.325 3.58446
      vertex 7.5 2.325 -3.58446
      vertex 7.5 2.60146 -3.45554
    endloop
  endfacet
  facet normal 1 0 0
    outer loop
      vertex 7.5 2.07512 3.75942
      vertex 7.5 2.325 -3.58446
      vertex 7.5 2.325 3.58446
    endloop
  endfacet
  facet normal 1 0 0
    outer loop
      vertex 7.5 2.07512 3.75942
      vertex 7.5 2.07512 -3.75942
      vertex 7.5 2.325 -3.58446
    endloop
  endfacet
  facet normal 1 0 0
    outer loop
      vertex 7.5 1.85942 3.97512
      vertex 7.5 2.07512 -3.75942
      vertex 7.5 2.07512 3.75942
    endloop
  endfacet
  facet normal 1 0 0
    outer loop
      vertex 7.5 1.85942 3.97512
      vertex 7.5 1.85942 -3.97512
      vertex 7.5 2.07512 -3.75942
    endloop
  endfacet
  facet normal 1 0 0
    outer loop
      vertex 7.5 1.68445 4.225
      vertex 7.5 1.85942 -3.97512
      vertex 7.5 1.85942 3.97512
    endloop
  endfacet
  facet normal 1 0 0
    outer loop
      vertex 7.5 1.68445 4.225
      vertex 7.5 1.68445 -4.225
      vertex 7.5 1.85942 -3.97512
    endloop
  endfacet
  facet normal 1 0 0
    outer loop
      vertex 7.5 1.55554 4.50146
      vertex 7.5 1.68445 -4.225
      vertex 7.5 1.68445 4.225
    endloop
  endfacet
  facet normal 1 0 0
    outer loop
      vertex 7.5 1.55554 4.50146
      vertex 7.5 1.55554 -4.50146
      vertex 7.5 1.68445 -4.225
    endloop
  endfacet
  facet normal 1 0 0
    outer loop
      vertex 7.5 -5 10
      vertex 7.5 1.55554 4.50146
      vertex 7.5 1.47659 4.79611
    endloop
  endfacet
  facet normal 1 0 0
    outer loop
      vertex 7.5 1.55554 4.50146
      vertex 7.5 -5 10
      vertex 7.5 1.55554 -4.50146
    endloop
  endfacet
  facet normal 1 0 0
    outer loop
      vertex 7.5 -5 10
      vertex 7.5 1.47659 4.79611
      vertex 7.5 1.45 5.1
    endloop
  endfacet
  facet normal 1 0 0
    outer loop
      vertex 7.5 -5 -10
      vertex 7.5 1.55554 -4.50146
      vertex 7.5 -5 10
    endloop
  endfacet
  facet normal 1 0 0
    outer loop
      vertex 7.5 4.92341 4.79611
      vertex 7.5 7 10
      vertex 7.5 4.95 5.1
    endloop
  endfacet
  facet normal 1 0 0
    outer loop
      vertex 7.5 7 10
      vertex 7.5 4.92341 5.40388
      vertex 7.5 4.95 5.1
    endloop
  endfacet
  facet normal 1 0 0
    outer loop
      vertex 7.5 7 10
      vertex 7.5 4.84446 5.69853
      vertex 7.5 4.92341 5.40388
    endloop
  endfacet
  facet normal 1 0 0
    outer loop
      vertex 7.5 7 10
      vertex 7.5 4.71554 5.975
      vertex 7.5 4.84446 5.69853
    endloop
  endfacet
  facet normal 1 0 0
    outer loop
      vertex 7.5 7 10
      vertex 7.5 4.54058 6.22488
      vertex 7.5 4.71554 5.975
    endloop
  endfacet
  facet normal 1 0 0
    outer loop
      vertex 7.5 7 10
      vertex 7.5 4.32488 6.44058
      vertex 7.5 4.54058 6.22488
    endloop
  endfacet
  facet normal 1 0 0
    outer loop
      vertex 7.5 7 10
      vertex 7.5 4.075 6.61554
      vertex 7.5 4.32488 6.44058
    endloop
  endfacet
  facet normal 1 0 0
    outer loop
      vertex 7.5 7 10
      vertex 7.5 3.79853 6.74446
      vertex 7.5 4.075 6.61554
    endloop
  endfacet
  facet normal 1 0 0
    outer loop
      vertex 7.5 7 10
      vertex 7.5 3.50388 6.82341
      vertex 7.5 3.79853 6.74446
    endloop
  endfacet
  facet normal 1 0 0
    outer loop
      vertex 7.5 7 10
      vertex 7.5 3.2 6.85
      vertex 7.5 3.50388 6.82341
    endloop
  endfacet
  facet normal 1 0 0
    outer loop
      vertex 7.5 7 10
      vertex 7.5 2.89612 6.82341
      vertex 7.5 3.2 6.85
    endloop
  endfacet
  facet normal 1 0 0
    outer loop
      vertex 7.5 7 10
      vertex 7.5 2.60146 6.74446
      vertex 7.5 2.89612 6.82341
    endloop
  endfacet
  facet normal 1 -0 0
    outer loop
      vertex 7.5 -5 10
      vertex 7.5 2.60146 6.74446
      vertex 7.5 7 10
    endloop
  endfacet
  facet normal 1 0 0
    outer loop
      vertex 7.5 2.60146 6.74446
      vertex 7.5 -5 10
      vertex 7.5 2.325 6.61554
    endloop
  endfacet
  facet normal 1 0 0
    outer loop
      vertex 7.5 1.55554 -4.50146
      vertex 7.5 -5 -10
      vertex 7.5 1.47659 -4.79611
    endloop
  endfacet
  facet normal 1 0 0
    outer loop
      vertex 7.5 1.47659 5.40388
      vertex 7.5 -5 10
      vertex 7.5 1.45 5.1
    endloop
  endfacet
  facet normal 1 0 0
    outer loop
      vertex 7.5 1.55554 5.69853
      vertex 7.5 -5 10
      vertex 7.5 1.47659 5.40388
    endloop
  endfacet
  facet normal 1 0 0
    outer loop
      vertex 7.5 1.68445 5.975
      vertex 7.5 -5 10
      vertex 7.5 1.55554 5.69853
    endloop
  endfacet
  facet normal 1 0 0
    outer loop
      vertex 7.5 1.85942 6.22488
      vertex 7.5 -5 10
      vertex 7.5 1.68445 5.975
    endloop
  endfacet
  facet normal 1 0 0
    outer loop
      vertex 7.5 2.07512 6.44058
      vertex 7.5 -5 10
      vertex 7.5 1.85942 6.22488
    endloop
  endfacet
  facet normal 1 0 0
    outer loop
      vertex 7.5 2.325 6.61554
      vertex 7.5 -5 10
      vertex 7.5 2.07512 6.44058
    endloop
  endfacet
  facet normal 1 0 0
    outer loop
      vertex 7.5 7 10
      vertex 7.5 4.92341 4.79611
      vertex 7.5 7 -10
    endloop
  endfacet
  facet normal 1 -0 0
    outer loop
      vertex 7.5 4.92341 -5.40388
      vertex 7.5 7 -10
      vertex 7.5 4.95 -5.1
    endloop
  endfacet
  facet normal 1 -0 0
    outer loop
      vertex 7.5 4.84446 -5.69853
      vertex 7.5 7 -10
      vertex 7.5 4.92341 -5.40388
    endloop
  endfacet
  facet normal 1 -0 0
    outer loop
      vertex 7.5 4.71554 -5.975
      vertex 7.5 7 -10
      vertex 7.5 4.84446 -5.69853
    endloop
  endfacet
  facet normal 1 -0 0
    outer loop
      vertex 7.5 4.54058 -6.22488
      vertex 7.5 7 -10
      vertex 7.5 4.71554 -5.975
    endloop
  endfacet
  facet normal 1 -0 0
    outer loop
      vertex 7.5 4.32488 -6.44058
      vertex 7.5 7 -10
      vertex 7.5 4.54058 -6.22488
    endloop
  endfacet
  facet normal 1 -0 0
    outer loop
      vertex 7.5 4.075 -6.61554
      vertex 7.5 7 -10
      vertex 7.5 4.32488 -6.44058
    endloop
  endfacet
  facet normal 1 -0 0
    outer loop
      vertex 7.5 3.79853 -6.74446
      vertex 7.5 7 -10
      vertex 7.5 4.075 -6.61554
    endloop
  endfacet
  facet normal 1 -0 0
    outer loop
      vertex 7.5 3.50388 -6.82341
      vertex 7.5 7 -10
      vertex 7.5 3.79853 -6.74446
    endloop
  endfacet
  facet normal 1 -0 0
    outer loop
      vertex 7.5 3.2 -6.85
      vertex 7.5 7 -10
      vertex 7.5 3.50388 -6.82341
    endloop
  endfacet
  facet normal 1 0 0
    outer loop
      vertex 7.5 2.89612 -6.82341
      vertex 7.5 7 -10
      vertex 7.5 3.2 -6.85
    endloop
  endfacet
  facet normal 1 0 0
    outer loop
      vertex 7.5 2.60146 -6.74446
      vertex 7.5 7 -10
      vertex 7.5 2.89612 -6.82341
    endloop
  endfacet
  facet normal 1 0 0
    outer loop
      vertex 7.5 -5 -10
      vertex 7.5 2.60146 -6.74446
      vertex 7.5 2.325 -6.61554
    endloop
  endfacet
  facet normal 1 0 0
    outer loop
      vertex 7.5 -5 -10
      vertex 7.5 2.325 -6.61554
      vertex 7.5 2.07512 -6.44058
    endloop
  endfacet
  facet normal 1 0 0
    outer loop
      vertex 7.5 1.47659 -4.79611
      vertex 7.5 -5 -10
      vertex 7.5 1.45 -5.1
    endloop
  endfacet
  facet normal 1 0 0
    outer loop
      vertex 7.5 1.45 -5.1
      vertex 7.5 -5 -10
      vertex 7.5 1.47659 -5.40388
    endloop
  endfacet
  facet normal 1 0 0
    outer loop
      vertex 7.5 2.60146 -6.74446
      vertex 7.5 -5 -10
      vertex 7.5 7 -10
    endloop
  endfacet
  facet normal 1 0 0
    outer loop
      vertex 7.5 1.85942 -6.22488
      vertex 7.5 -5 -10
      vertex 7.5 2.07512 -6.44058
    endloop
  endfacet
  facet normal 1 0 0
    outer loop
      vertex 7.5 1.68445 -5.975
      vertex 7.5 -5 -10
      vertex 7.5 1.85942 -6.22488
    endloop
  endfacet
  facet normal 1 0 0
    outer loop
      vertex 7.5 1.55554 -5.69853
      vertex 7.5 -5 -10
      vertex 7.5 1.68445 -5.975
    endloop
  endfacet
  facet normal 1 0 0
    outer loop
      vertex 7.5 1.47659 -5.40388
      vertex 7.5 -5 -10
      vertex 7.5 1.55554 -5.69853
    endloop
  endfacet
  facet normal -0 0 1
    outer loop
      vertex 1.72341 -0.646115 10
      vertex 7.5 -5 10
      vertex 7.5 7 10
    endloop
  endfacet
  facet normal 0 0 1
    outer loop
      vertex 7.5 -5 10
      vertex 1.72341 -0.646115 10
      vertex 1.75 -0.95 10
    endloop
  endfacet
  facet normal 0 0 1
    outer loop
      vertex 7.5 7 10
      vertex 1.64446 -0.351464 10
      vertex 1.72341 -0.646115 10
    endloop
  endfacet
  facet normal 0 0 1
    outer loop
      vertex 7.5 7 10
      vertex 1.51554 -0.0749998 10
      vertex 1.64446 -0.351464 10
    endloop
  endfacet
  facet normal 0 0 1
    outer loop
      vertex 7.5 7 10
      vertex 1.34058 0.174878 10
      vertex 1.51554 -0.0749998 10
    endloop
  endfacet
  facet normal 0 0 1
    outer loop
      vertex 7.5 7 10
      vertex 1.12488 0.390577 10
      vertex 1.34058 0.174878 10
    endloop
  endfacet
  facet normal 0 0 1
    outer loop
      vertex 7.5 7 10
      vertex 0.874999 0.565544 10
      vertex 1.12488 0.390577 10
    endloop
  endfacet
  facet normal 0 0 1
    outer loop
      vertex 7.5 7 10
      vertex 0.598535 0.694462 10
      vertex 0.874999 0.565544 10
    endloop
  endfacet
  facet normal -0 0 1
    outer loop
      vertex -3.5 7 10
      vertex 0.598535 0.694462 10
      vertex 7.5 7 10
    endloop
  endfacet
  facet normal 0 0 1
    outer loop
      vertex 0.598535 0.694462 10
      vertex -3.5 7 10
      vertex 0.303884 0.773413 10
    endloop
  endfacet
  facet normal 0 0 1
    outer loop
      vertex 0.303884 0.773413 10
      vertex -3.5 7 10
      vertex 0 0.799999 10
    endloop
  endfacet
  facet normal 0 0 1
    outer loop
      vertex 0 0.799999 10
      vertex -3.5 7 10
      vertex -0.303884 0.773413 10
    endloop
  endfacet
  facet normal 0 0 1
    outer loop
      vertex -0.303884 0.773413 10
      vertex -3.5 7 10
      vertex -0.598535 0.694462 10
    endloop
  endfacet
  facet normal 0 0 1
    outer loop
      vertex -0.598535 0.694462 10
      vertex -3.5 7 10
      vertex -0.875 0.565544 10
    endloop
  endfacet
  facet normal 0 0 1
    outer loop
      vertex -3.5 -5 10
      vertex -1.72341 -0.646115 10
      vertex -3.5 7 10
    endloop
  endfacet
  facet normal 0 0 1
    outer loop
      vertex -1.64446 -0.351464 10
      vertex -3.5 7 10
      vertex -1.72341 -0.646115 10
    endloop
  endfacet
  facet normal 0 0 1
    outer loop
      vertex -1.51554 -0.0749998 10
      vertex -3.5 7 10
      vertex -1.64446 -0.351464 10
    endloop
  endfacet
  facet normal 0 0 1
    outer loop
      vertex -1.34058 0.174878 10
      vertex -3.5 7 10
      vertex -1.51554 -0.0749998 10
    endloop
  endfacet
  facet normal 0 0 1
    outer loop
      vertex -1.12488 0.390577 10
      vertex -3.5 7 10
      vertex -1.34058 0.174878 10
    endloop
  endfacet
  facet normal 0 0 1
    outer loop
      vertex -0.875 0.565544 10
      vertex -3.5 7 10
      vertex -1.12488 0.390577 10
    endloop
  endfacet
  facet normal -0 0 1
    outer loop
      vertex 1.72341 -1.25388 10
      vertex 7.5 -5 10
      vertex 1.75 -0.95 10
    endloop
  endfacet
  facet normal -0 0 1
    outer loop
      vertex 1.64446 -1.54853 10
      vertex 7.5 -5 10
      vertex 1.72341 -1.25388 10
    endloop
  endfacet
  facet normal -0 0 1
    outer loop
      vertex 1.51554 -1.825 10
      vertex 7.5 -5 10
      vertex 1.64446 -1.54853 10
    endloop
  endfacet
  facet normal -0 0 1
    outer loop
      vertex 1.34058 -2.07488 10
      vertex 7.5 -5 10
      vertex 1.51554 -1.825 10
    endloop
  endfacet
  facet normal -0 0 1
    outer loop
      vertex 1.12488 -2.29058 10
      vertex 7.5 -5 10
      vertex 1.34058 -2.07488 10
    endloop
  endfacet
  facet normal -0 0 1
    outer loop
      vertex 0.875 -2.46554 10
      vertex 7.5 -5 10
      vertex 1.12488 -2.29058 10
    endloop
  endfacet
  facet normal -0 0 1
    outer loop
      vertex 0.598535 -2.59446 10
      vertex 7.5 -5 10
      vertex 0.875 -2.46554 10
    endloop
  endfacet
  facet normal -0 0 1
    outer loop
      vertex 0.303884 -2.67341 10
      vertex 7.5 -5 10
      vertex 0.598535 -2.59446 10
    endloop
  endfacet
  facet normal 0 0 1
    outer loop
      vertex -3.5 -5 10
      vertex 0.303884 -2.67341 10
      vertex 0 -2.7 10
    endloop
  endfacet
  facet normal 0 0 1
    outer loop
      vertex -3.5 -5 10
      vertex 0 -2.7 10
      vertex -0.303884 -2.67341 10
    endloop
  endfacet
  facet normal 0 0 1
    outer loop
      vertex -3.5 -5 10
      vertex -0.303884 -2.67341 10
      vertex -0.598535 -2.59446 10
    endloop
  endfacet
  facet normal 0 0 1
    outer loop
      vertex -1.72341 -0.646115 10
      vertex -3.5 -5 10
      vertex -1.75 -0.95 10
    endloop
  endfacet
  facet normal 0 0 1
    outer loop
      vertex 0.303884 -2.67341 10
      vertex -3.5 -5 10
      vertex 7.5 -5 10
    endloop
  endfacet
  facet normal 0 0 1
    outer loop
      vertex -0.874999 -2.46554 10
      vertex -3.5 -5 10
      vertex -0.598535 -2.59446 10
    endloop
  endfacet
  facet normal 0 0 1
    outer loop
      vertex -1.12488 -2.29058 10
      vertex -3.5 -5 10
      vertex -0.874999 -2.46554 10
    endloop
  endfacet
  facet normal 0 0 1
    outer loop
      vertex -1.34058 -2.07488 10
      vertex -3.5 -5 10
      vertex -1.12488 -2.29058 10
    endloop
  endfacet
  facet normal 0 0 1
    outer loop
      vertex -1.51554 -1.825 10
      vertex -3.5 -5 10
      vertex -1.34058 -2.07488 10
    endloop
  endfacet
  facet normal 0 0 1
    outer loop
      vertex -1.64446 -1.54853 10
      vertex -3.5 -5 10
      vertex -1.51554 -1.825 10
    endloop
  endfacet
  facet normal 0 0 1
    outer loop
      vertex -1.72341 -1.25388 10
      vertex -3.5 -5 10
      vertex -1.64446 -1.54853 10
    endloop
  endfacet
  facet normal 0 0 1
    outer loop
      vertex -1.75 -0.95 10
      vertex -3.5 -5 10
      vertex -1.72341 -1.25388 10
    endloop
  endfacet
  facet normal -1 0 0
    outer loop
      vertex -3.5 4.92341 4.79611
      vertex -3.5 7 10
      vertex -3.5 4.92341 -4.79611
    endloop
  endfacet
  facet normal -1 0 0
    outer loop
      vertex -3.5 7 10
      vertex -3.5 4.92341 4.79611
      vertex -3.5 4.95 5.1
    endloop
  endfacet
  facet normal -1 0 0
    outer loop
      vertex -3.5 4.84446 -4.50146
      vertex -3.5 4.92341 4.79611
      vertex -3.5 4.92341 -4.79611
    endloop
  endfacet
  facet normal -1 0 0
    outer loop
      vertex -3.5 4.84446 -4.50146
      vertex -3.5 4.84446 4.50146
      vertex -3.5 4.92341 4.79611
    endloop
  endfacet
  facet normal -1 0 0
    outer loop
      vertex -3.5 4.71554 -4.225
      vertex -3.5 4.84446 4.50146
      vertex -3.5 4.84446 -4.50146
    endloop
  endfacet
  facet normal -1 0 0
    outer loop
      vertex -3.5 4.71554 -4.225
      vertex -3.5 4.71554 4.225
      vertex -3.5 4.84446 4.50146
    endloop
  endfacet
  facet normal -1 0 0
    outer loop
      vertex -3.5 4.54058 -3.97512
      vertex -3.5 4.71554 4.225
      vertex -3.5 4.71554 -4.225
    endloop
  endfacet
  facet normal -1 0 0
    outer loop
      vertex -3.5 4.54058 -3.97512
      vertex -3.5 4.54058 3.97512
      vertex -3.5 4.71554 4.225
    endloop
  endfacet
  facet normal -1 0 0
    outer loop
      vertex -3.5 4.32488 -3.75942
      vertex -3.5 4.54058 3.97512
      vertex -3.5 4.54058 -3.97512
    endloop
  endfacet
  facet normal -1 0 0
    outer loop
      vertex -3.5 4.32488 -3.75942
      vertex -3.5 4.32488 3.75942
      vertex -3.5 4.54058 3.97512
    endloop
  endfacet
  facet normal -1 0 0
    outer loop
      vertex -3.5 4.075 -3.58446
      vertex -3.5 4.32488 3.75942
      vertex -3.5 4.32488 -3.75942
    endloop
  endfacet
  facet normal -1 0 0
    outer loop
      vertex -3.5 4.075 -3.58446
      vertex -3.5 4.075 3.58446
      vertex -3.5 4.32488 3.75942
    endloop
  endfacet
  facet normal -1 0 0
    outer loop
      vertex -3.5 3.79853 -3.45554
      vertex -3.5 4.075 3.58446
      vertex -3.5 4.075 -3.58446
    endloop
  endfacet
  facet normal -1 0 0
    outer loop
      vertex -3.5 3.79853 -3.45554
      vertex -3.5 3.79853 3.45554
      vertex -3.5 4.075 3.58446
    endloop
  endfacet
  facet normal -1 0 0
    outer loop
      vertex -3.5 3.50388 -3.37659
      vertex -3.5 3.79853 3.45554
      vertex -3.5 3.79853 -3.45554
    endloop
  endfacet
  facet normal -1 0 0
    outer loop
      vertex -3.5 3.50388 -3.37659
      vertex -3.5 3.50388 3.37659
      vertex -3.5 3.79853 3.45554
    endloop
  endfacet
  facet normal -1 0 0
    outer loop
      vertex -3.5 3.2 -3.35
      vertex -3.5 3.50388 3.37659
      vertex -3.5 3.50388 -3.37659
    endloop
  endfacet
  facet normal -1 0 0
    outer loop
      vertex -3.5 3.2 -3.35
      vertex -3.5 3.2 3.35
      vertex -3.5 3.50388 3.37659
    endloop
  endfacet
  facet normal -1 0 0
    outer loop
      vertex -3.5 2.89612 -3.37659
      vertex -3.5 3.2 3.35
      vertex -3.5 3.2 -3.35
    endloop
  endfacet
  facet normal -1 0 0
    outer loop
      vertex -3.5 2.89612 -3.37659
      vertex -3.5 2.89612 3.37659
      vertex -3.5 3.2 3.35
    endloop
  endfacet
  facet normal -1 0 0
    outer loop
      vertex -3.5 2.60146 -3.45554
      vertex -3.5 2.89612 3.37659
      vertex -3.5 2.89612 -3.37659
    endloop
  endfacet
  facet normal -1 0 0
    outer loop
      vertex -3.5 2.60146 -3.45554
      vertex -3.5 2.60146 3.45554
      vertex -3.5 2.89612 3.37659
    endloop
  endfacet
  facet normal -1 0 0
    outer loop
      vertex -3.5 2.325 -3.58446
      vertex -3.5 2.60146 3.45554
      vertex -3.5 2.60146 -3.45554
    endloop
  endfacet
  facet normal -1 0 0
    outer loop
      vertex -3.5 2.325 -3.58446
      vertex -3.5 2.325 3.58446
      vertex -3.5 2.60146 3.45554
    endloop
  endfacet
  facet normal -1 0 0
    outer loop
      vertex -3.5 2.07512 -3.75942
      vertex -3.5 2.325 3.58446
      vertex -3.5 2.325 -3.58446
    endloop
  endfacet
  facet normal -1 0 0
    outer loop
      vertex -3.5 2.07512 -3.75942
      vertex -3.5 2.07512 3.75942
      vertex -3.5 2.325 3.58446
    endloop
  endfacet
  facet normal -1 0 0
    outer loop
      vertex -3.5 1.85942 -3.97512
      vertex -3.5 2.07512 3.75942
      vertex -3.5 2.07512 -3.75942
    endloop
  endfacet
  facet normal -1 0 0
    outer loop
      vertex -3.5 1.85942 -3.97512
      vertex -3.5 1.85942 3.97512
      vertex -3.5 2.07512 3.75942
    endloop
  endfacet
  facet normal -1 0 0
    outer loop
      vertex -3.5 1.68445 -4.225
      vertex -3.5 1.85942 3.97512
      vertex -3.5 1.85942 -3.97512
    endloop
  endfacet
  facet normal -1 0 0
    outer loop
      vertex -3.5 1.68445 -4.225
      vertex -3.5 1.68445 4.225
      vertex -3.5 1.85942 3.97512
    endloop
  endfacet
  facet normal -1 0 0
    outer loop
      vertex -3.5 1.55554 -4.50146
      vertex -3.5 1.68445 4.225
      vertex -3.5 1.68445 -4.225
    endloop
  endfacet
  facet normal -1 0 0
    outer loop
      vertex -3.5 1.55554 -4.50146
      vertex -3.5 1.55554 4.50146
      vertex -3.5 1.68445 4.225
    endloop
  endfacet
  facet normal -1 0 0
    outer loop
      vertex -3.5 -5 -10
      vertex -3.5 1.55554 -4.50146
      vertex -3.5 1.47659 -4.79611
    endloop
  endfacet
  facet normal -1 -0 0
    outer loop
      vertex -3.5 1.55554 -4.50146
      vertex -3.5 -5 -10
      vertex -3.5 1.55554 4.50146
    endloop
  endfacet
  facet normal -1 0 0
    outer loop
      vertex -3.5 -5 -10
      vertex -3.5 1.47659 -4.79611
      vertex -3.5 1.45 -5.1
    endloop
  endfacet
  facet normal -1 0 0
    outer loop
      vertex -3.5 -5 10
      vertex -3.5 1.55554 4.50146
      vertex -3.5 -5 -10
    endloop
  endfacet
  facet normal -1 0 0
    outer loop
      vertex -3.5 4.92341 -4.79611
      vertex -3.5 7 -10
      vertex -3.5 4.95 -5.1
    endloop
  endfacet
  facet normal -1 0 0
    outer loop
      vertex -3.5 7 -10
      vertex -3.5 4.92341 -5.40388
      vertex -3.5 4.95 -5.1
    endloop
  endfacet
  facet normal -1 0 0
    outer loop
      vertex -3.5 7 -10
      vertex -3.5 4.84446 -5.69853
      vertex -3.5 4.92341 -5.40388
    endloop
  endfacet
  facet normal -1 0 0
    outer loop
      vertex -3.5 7 -10
      vertex -3.5 4.71554 -5.975
      vertex -3.5 4.84446 -5.69853
    endloop
  endfacet
  facet normal -1 0 0
    outer loop
      vertex -3.5 7 -10
      vertex -3.5 4.54058 -6.22488
      vertex -3.5 4.71554 -5.975
    endloop
  endfacet
  facet normal -1 0 0
    outer loop
      vertex -3.5 7 -10
      vertex -3.5 4.32488 -6.44058
      vertex -3.5 4.54058 -6.22488
    endloop
  endfacet
  facet normal -1 0 0
    outer loop
      vertex -3.5 7 -10
      vertex -3.5 4.075 -6.61554
      vertex -3.5 4.32488 -6.44058
    endloop
  endfacet
  facet normal -1 0 0
    outer loop
      vertex -3.5 7 -10
      vertex -3.5 3.79853 -6.74446
      vertex -3.5 4.075 -6.61554
    endloop
  endfacet
  facet normal -1 0 0
    outer loop
      vertex -3.5 7 -10
      vertex -3.5 3.50388 -6.82341
      vertex -3.5 3.79853 -6.74446
    endloop
  endfacet
  facet normal -1 0 0
    outer loop
      vertex -3.5 7 -10
      vertex -3.5 3.2 -6.85
      vertex -3.5 3.50388 -6.82341
    endloop
  endfacet
  facet normal -1 0 0
    outer loop
      vertex -3.5 7 -10
      vertex -3.5 2.89612 -6.82341
      vertex -3.5 3.2 -6.85
    endloop
  endfacet
  facet normal -1 0 0
    outer loop
      vertex -3.5 7 -10
      vertex -3.5 2.60146 -6.74446
      vertex -3.5 2.89612 -6.82341
    endloop
  endfacet
  facet normal -1 0 0
    outer loop
      vertex -3.5 -5 -10
      vertex -3.5 2.60146 -6.74446
      vertex -3.5 7 -10
    endloop
  endfacet
  facet normal -1 -0 0
    outer loop
      vertex -3.5 2.60146 -6.74446
      vertex -3.5 -5 -10
      vertex -3.5 2.325 -6.61554
    endloop
  endfacet
  facet normal -1 0 0
    outer loop
      vertex -3.5 1.55554 4.50146
      vertex -3.5 -5 10
      vertex -3.5 1.47659 4.79611
    endloop
  endfacet
  facet normal -1 -0 0
    outer loop
      vertex -3.5 1.47659 -5.40388
      vertex -3.5 -5 -10
      vertex -3.5 1.45 -5.1
    endloop
  endfacet
  facet normal -1 -0 0
    outer loop
      vertex -3.5 1.55554 -5.69853
      vertex -3.5 -5 -10
      vertex -3.5 1.47659 -5.40388
    endloop
  endfacet
  facet normal -1 -0 0
    outer loop
      vertex -3.5 1.68445 -5.975
      vertex -3.5 -5 -10
      vertex -3.5 1.55554 -5.69853
    endloop
  endfacet
  facet normal -1 -0 0
    outer loop
      vertex -3.5 1.85942 -6.22488
      vertex -3.5 -5 -10
      vertex -3.5 1.68445 -5.975
    endloop
  endfacet
  facet normal -1 -0 0
    outer loop
      vertex -3.5 2.07512 -6.44058
      vertex -3.5 -5 -10
      vertex -3.5 1.85942 -6.22488
    endloop
  endfacet
  facet normal -1 -0 0
    outer loop
      vertex -3.5 2.325 -6.61554
      vertex -3.5 -5 -10
      vertex -3.5 2.07512 -6.44058
    endloop
  endfacet
  facet normal -1 0 0
    outer loop
      vertex -3.5 7 -10
      vertex -3.5 4.92341 -4.79611
      vertex -3.5 7 10
    endloop
  endfacet
  facet normal -1 0 0
    outer loop
      vertex -3.5 4.92341 5.40388
      vertex -3.5 7 10
      vertex -3.5 4.95 5.1
    endloop
  endfacet
  facet normal -1 0 0
    outer loop
      vertex -3.5 4.84446 5.69853
      vertex -3.5 7 10
      vertex -3.5 4.92341 5.40388
    endloop
  endfacet
  facet normal -1 0 0
    outer loop
      vertex -3.5 4.71554 5.975
      vertex -3.5 7 10
      vertex -3.5 4.84446 5.69853
    endloop
  endfacet
  facet normal -1 0 0
    outer loop
      vertex -3.5 4.54058 6.22488
      vertex -3.5 7 10
      vertex -3.5 4.71554 5.975
    endloop
  endfacet
  facet normal -1 0 0
    outer loop
      vertex -3.5 4.32488 6.44058
      vertex -3.5 7 10
      vertex -3.5 4.54058 6.22488
    endloop
  endfacet
  facet normal -1 0 0
    outer loop
      vertex -3.5 4.075 6.61554
      vertex -3.5 7 10
      vertex -3.5 4.32488 6.44058
    endloop
  endfacet
  facet normal -1 0 0
    outer loop
      vertex -3.5 3.79853 6.74446
      vertex -3.5 7 10
      vertex -3.5 4.075 6.61554
    endloop
  endfacet
  facet normal -1 0 0
    outer loop
      vertex -3.5 3.50388 6.82341
      vertex -3.5 7 10
      vertex -3.5 3.79853 6.74446
    endloop
  endfacet
  facet normal -1 0 0
    outer loop
      vertex -3.5 3.2 6.85
      vertex -3.5 7 10
      vertex -3.5 3.50388 6.82341
    endloop
  endfacet
  facet normal -1 0 0
    outer loop
      vertex -3.5 2.89612 6.82341
      vertex -3.5 7 10
      vertex -3.5 3.2 6.85
    endloop
  endfacet
  facet normal -1 0 0
    outer loop
      vertex -3.5 2.60146 6.74446
      vertex -3.5 7 10
      vertex -3.5 2.89612 6.82341
    endloop
  endfacet
  facet normal -1 0 0
    outer loop
      vertex -3.5 -5 10
      vertex -3.5 2.60146 6.74446
      vertex -3.5 2.325 6.61554
    endloop
  endfacet
  facet normal -1 0 0
    outer loop
      vertex -3.5 -5 10
      vertex -3.5 2.325 6.61554
      vertex -3.5 2.07512 6.44058
    endloop
  endfacet
  facet normal -1 0 0
    outer loop
      vertex -3.5 1.47659 4.79611
      vertex -3.5 -5 10
      vertex -3.5 1.45 5.1
    endloop
  endfacet
  facet normal -1 0 0
    outer loop
      vertex -3.5 1.45 5.1
      vertex -3.5 -5 10
      vertex -3.5 1.47659 5.40388
    endloop
  endfacet
  facet normal -1 0 0
    outer loop
      vertex -3.5 2.60146 6.74446
      vertex -3.5 -5 10
      vertex -3.5 7 10
    endloop
  endfacet
  facet normal -1 0 0
    outer loop
      vertex -3.5 1.85942 6.22488
      vertex -3.5 -5 10
      vertex -3.5 2.07512 6.44058
    endloop
  endfacet
  facet normal -1 0 0
    outer loop
      vertex -3.5 1.68445 5.975
      vertex -3.5 -5 10
      vertex -3.5 1.85942 6.22488
    endloop
  endfacet
  facet normal -1 0 0
    outer loop
      vertex -3.5 1.55554 5.69853
      vertex -3.5 -5 10
      vertex -3.5 1.68445 5.975
    endloop
  endfacet
  facet normal -1 0 0
    outer loop
      vertex -3.5 1.47659 5.40388
      vertex -3.5 -5 10
      vertex -3.5 1.55554 5.69853
    endloop
  endfacet
  facet normal 0 1 -0
    outer loop
      vertex 7.5 7 -10
      vertex -3.5 7 10
      vertex 7.5 7 10
    endloop
  endfacet
  facet normal 0 1 0
    outer loop
      vertex -3.5 7 10
      vertex 7.5 7 -10
      vertex -3.5 7 -10
    endloop
  endfacet
  facet normal 0 0 -1
    outer loop
      vertex 1.72341 -0.646115 -10
      vertex 7.5 -5 -10
      vertex 1.75 -0.95 -10
    endloop
  endfacet
  facet normal 0 0 -1
    outer loop
      vertex 7.5 -5 -10
      vertex 1.72341 -1.25388 -10
      vertex 1.75 -0.95 -10
    endloop
  endfacet
  facet normal 0 0 -1
    outer loop
      vertex 7.5 -5 -10
      vertex 1.64446 -1.54853 -10
      vertex 1.72341 -1.25388 -10
    endloop
  endfacet
  facet normal 0 0 -1
    outer loop
      vertex 7.5 -5 -10
      vertex 1.51554 -1.825 -10
      vertex 1.64446 -1.54853 -10
    endloop
  endfacet
  facet normal 0 0 -1
    outer loop
      vertex 7.5 -5 -10
      vertex 1.34058 -2.07488 -10
      vertex 1.51554 -1.825 -10
    endloop
  endfacet
  facet normal 0 0 -1
    outer loop
      vertex 7.5 -5 -10
      vertex 1.12488 -2.29058 -10
      vertex 1.34058 -2.07488 -10
    endloop
  endfacet
  facet normal 0 0 -1
    outer loop
      vertex 7.5 -5 -10
      vertex 0.875 -2.46554 -10
      vertex 1.12488 -2.29058 -10
    endloop
  endfacet
  facet normal 0 0 -1
    outer loop
      vertex 7.5 -5 -10
      vertex 0.598535 -2.59446 -10
      vertex 0.875 -2.46554 -10
    endloop
  endfacet
  facet normal 0 0 -1
    outer loop
      vertex 7.5 -5 -10
      vertex 0.303884 -2.67341 -10
      vertex 0.598535 -2.59446 -10
    endloop
  endfacet
  facet normal 0 0 -1
    outer loop
      vertex -3.5 -5 -10
      vertex 0.303884 -2.67341 -10
      vertex 7.5 -5 -10
    endloop
  endfacet
  facet normal 0 0 -1
    outer loop
      vertex 0.303884 -2.67341 -10
      vertex -3.5 -5 -10
      vertex 0 -2.7 -10
    endloop
  endfacet
  facet normal -0 0 -1
    outer loop
      vertex 0 -2.7 -10
      vertex -3.5 -5 -10
      vertex -0.303884 -2.67341 -10
    endloop
  endfacet
  facet normal -0 0 -1
    outer loop
      vertex -1.72341 -1.25388 -10
      vertex -3.5 -5 -10
      vertex -1.75 -0.95 -10
    endloop
  endfacet
  facet normal -0 0 -1
    outer loop
      vertex -1.64446 -1.54853 -10
      vertex -3.5 -5 -10
      vertex -1.72341 -1.25388 -10
    endloop
  endfacet
  facet normal -0 0 -1
    outer loop
      vertex -1.51554 -1.825 -10
      vertex -3.5 -5 -10
      vertex -1.64446 -1.54853 -10
    endloop
  endfacet
  facet normal -0 0 -1
    outer loop
      vertex -1.34058 -2.07488 -10
      vertex -3.5 -5 -10
      vertex -1.51554 -1.825 -10
    endloop
  endfacet
  facet normal -0 0 -1
    outer loop
      vertex -1.12488 -2.29058 -10
      vertex -3.5 -5 -10
      vertex -1.34058 -2.07488 -10
    endloop
  endfacet
  facet normal -0 0 -1
    outer loop
      vertex -0.874999 -2.46554 -10
      vertex -3.5 -5 -10
      vertex -1.12488 -2.29058 -10
    endloop
  endfacet
  facet normal -0 0 -1
    outer loop
      vertex -0.598535 -2.59446 -10
      vertex -3.5 -5 -10
      vertex -0.874999 -2.46554 -10
    endloop
  endfacet
  facet normal -0 0 -1
    outer loop
      vertex -0.303884 -2.67341 -10
      vertex -3.5 -5 -10
      vertex -0.598535 -2.59446 -10
    endloop
  endfacet
  facet normal 0 0 -1
    outer loop
      vertex 7.5 -5 -10
      vertex 1.72341 -0.646115 -10
      vertex 7.5 7 -10
    endloop
  endfacet
  facet normal 0 0 -1
    outer loop
      vertex 1.64446 -0.351464 -10
      vertex 7.5 7 -10
      vertex 1.72341 -0.646115 -10
    endloop
  endfacet
  facet normal 0 0 -1
    outer loop
      vertex 1.51554 -0.0749998 -10
      vertex 7.5 7 -10
      vertex 1.64446 -0.351464 -10
    endloop
  endfacet
  facet normal 0 0 -1
    outer loop
      vertex 1.34058 0.174878 -10
      vertex 7.5 7 -10
      vertex 1.51554 -0.0749998 -10
    endloop
  endfacet
  facet normal 0 0 -1
    outer loop
      vertex 1.12488 0.390577 -10
      vertex 7.5 7 -10
      vertex 1.34058 0.174878 -10
    endloop
  endfacet
  facet normal 0 0 -1
    outer loop
      vertex 0.874999 0.565544 -10
      vertex 7.5 7 -10
      vertex 1.12488 0.390577 -10
    endloop
  endfacet
  facet normal 0 0 -1
    outer loop
      vertex 0.598535 0.694462 -10
      vertex 7.5 7 -10
      vertex 0.874999 0.565544 -10
    endloop
  endfacet
  facet normal 0 0 -1
    outer loop
      vertex -3.5 7 -10
      vertex 0.598535 0.694462 -10
      vertex 0.303884 0.773413 -10
    endloop
  endfacet
  facet normal 0 0 -1
    outer loop
      vertex -3.5 7 -10
      vertex 0.303884 0.773413 -10
      vertex 0 0.799999 -10
    endloop
  endfacet
  facet normal 0 0 -1
    outer loop
      vertex -3.5 7 -10
      vertex 0 0.799999 -10
      vertex -0.303884 0.773413 -10
    endloop
  endfacet
  facet normal 0 0 -1
    outer loop
      vertex -3.5 7 -10
      vertex -0.303884 0.773413 -10
      vertex -0.598535 0.694462 -10
    endloop
  endfacet
  facet normal 0 0 -1
    outer loop
      vertex -3.5 7 -10
      vertex -0.598535 0.694462 -10
      vertex -0.875 0.565544 -10
    endloop
  endfacet
  facet normal 0 0 -1
    outer loop
      vertex -3.5 7 -10
      vertex -0.875 0.565544 -10
      vertex -1.12488 0.390577 -10
    endloop
  endfacet
  facet normal 0 0 -1
    outer loop
      vertex -3.5 -5 -10
      vertex -1.72341 -0.646115 -10
      vertex -1.75 -0.95 -10
    endloop
  endfacet
  facet normal 0 0 -1
    outer loop
      vertex -3.5 7 -10
      vertex -1.72341 -0.646115 -10
      vertex -3.5 -5 -10
    endloop
  endfacet
  facet normal 0 0 -1
    outer loop
      vertex 0.598535 0.694462 -10
      vertex -3.5 7 -10
      vertex 7.5 7 -10
    endloop
  endfacet
  facet normal 0 0 -1
    outer loop
      vertex -1.34058 0.174878 -10
      vertex -3.5 7 -10
      vertex -1.12488 0.390577 -10
    endloop
  endfacet
  facet normal 0 0 -1
    outer loop
      vertex -1.51554 -0.0749998 -10
      vertex -3.5 7 -10
      vertex -1.34058 0.174878 -10
    endloop
  endfacet
  facet normal 0 0 -1
    outer loop
      vertex -1.64446 -0.351464 -10
      vertex -3.5 7 -10
      vertex -1.51554 -0.0749998 -10
    endloop
  endfacet
  facet normal 0 0 -1
    outer loop
      vertex -1.72341 -0.646115 -10
      vertex -3.5 7 -10
      vertex -1.64446 -0.351464 -10
    endloop
  endfacet
  facet normal 0 -1 0
    outer loop
      vertex -3.5 -5 -10
      vertex 7.5 -5 10
      vertex -3.5 -5 10
    endloop
  endfacet
  facet normal 0 -1 -0
    outer loop
      vertex 7.5 -5 10
      vertex -3.5 -5 -10
      vertex 7.5 -5 -10
    endloop
  endfacet
  facet normal 0.996195 -0.087156 0
    outer loop
      vertex -1.75 -0.95 10
      vertex -1.72341 -0.646115 -10
      vertex -1.72341 -0.646115 10
    endloop
  endfacet
  facet normal 0.996195 -0.087156 0
    outer loop
      vertex -1.72341 -0.646115 -10
      vertex -1.75 -0.95 10
      vertex -1.75 -0.95 -10
    endloop
  endfacet
  facet normal -0.996195 -0.087156 0
    outer loop
      vertex 1.75 -0.95 -10
      vertex 1.72341 -0.646115 10
      vertex 1.72341 -0.646115 -10
    endloop
  endfacet
  facet normal -0.996195 -0.087156 0
    outer loop
      vertex 1.72341 -0.646115 10
      vertex 1.75 -0.95 -10
      vertex 1.75 -0.95 10
    endloop
  endfacet
  facet normal 0.0871563 -0.996195 0
    outer loop
      vertex -0.303884 0.773413 -10
      vertex 0 0.799999 10
      vertex -0.303884 0.773413 10
    endloop
  endfacet
  facet normal 0.0871563 -0.996195 0
    outer loop
      vertex 0 0.799999 10
      vertex -0.303884 0.773413 -10
      vertex 0 0.799999 -10
    endloop
  endfacet
  facet normal -0.0871563 0.996195 0
    outer loop
      vertex 0.303884 -2.67341 -10
      vertex 0 -2.7 10
      vertex 0.303884 -2.67341 10
    endloop
  endfacet
  facet normal -0.0871563 0.996195 0
    outer loop
      vertex 0 -2.7 10
      vertex 0.303884 -2.67341 -10
      vertex 0 -2.7 -10
    endloop
  endfacet
  facet normal -0.819151 0.573577 0
    outer loop
      vertex 1.34058 -2.07488 -10
      vertex 1.51554 -1.825 10
      vertex 1.51554 -1.825 -10
    endloop
  endfacet
  facet normal -0.819151 0.573577 0
    outer loop
      vertex 1.51554 -1.825 10
      vertex 1.34058 -2.07488 -10
      vertex 1.34058 -2.07488 10
    endloop
  endfacet
  facet normal 0.707107 -0.707107 0
    outer loop
      vertex -1.34058 0.174878 10
      vertex -1.12488 0.390577 -10
      vertex -1.12488 0.390577 10
    endloop
  endfacet
  facet normal 0.707107 -0.707107 0
    outer loop
      vertex -1.12488 0.390577 -10
      vertex -1.34058 0.174878 10
      vertex -1.34058 0.174878 -10
    endloop
  endfacet
  facet normal -0.573576 -0.819152 0
    outer loop
      vertex 0.874999 0.565544 -10
      vertex 1.12488 0.390577 10
      vertex 0.874999 0.565544 10
    endloop
  endfacet
  facet normal -0.573576 -0.819152 -0
    outer loop
      vertex 1.12488 0.390577 10
      vertex 0.874999 0.565544 -10
      vertex 1.12488 0.390577 -10
    endloop
  endfacet
  facet normal -0.258817 -0.965926 0
    outer loop
      vertex 0.303884 0.773413 -10
      vertex 0.598535 0.694462 10
      vertex 0.303884 0.773413 10
    endloop
  endfacet
  facet normal -0.258817 -0.965926 -0
    outer loop
      vertex 0.598535 0.694462 10
      vertex 0.303884 0.773413 -10
      vertex 0.598535 0.694462 -10
    endloop
  endfacet
  facet normal 0.707107 0.707107 0
    outer loop
      vertex -1.12488 -2.29058 10
      vertex -1.34058 -2.07488 -10
      vertex -1.34058 -2.07488 10
    endloop
  endfacet
  facet normal 0.707107 0.707107 0
    outer loop
      vertex -1.34058 -2.07488 -10
      vertex -1.12488 -2.29058 10
      vertex -1.12488 -2.29058 -10
    endloop
  endfacet
  facet normal 0.906308 -0.422619 0
    outer loop
      vertex -1.64446 -0.351464 10
      vertex -1.51554 -0.0749998 -10
      vertex -1.51554 -0.0749998 10
    endloop
  endfacet
  facet normal 0.906308 -0.422619 0
    outer loop
      vertex -1.51554 -0.0749998 -10
      vertex -1.64446 -0.351464 10
      vertex -1.64446 -0.351464 -10
    endloop
  endfacet
  facet normal 0.965926 -0.25882 0
    outer loop
      vertex -1.72341 -0.646115 10
      vertex -1.64446 -0.351464 -10
      vertex -1.64446 -0.351464 10
    endloop
  endfacet
  facet normal 0.965926 -0.25882 0
    outer loop
      vertex -1.64446 -0.351464 -10
      vertex -1.72341 -0.646115 10
      vertex -1.72341 -0.646115 -10
    endloop
  endfacet
  facet normal 0.819151 -0.573577 0
    outer loop
      vertex -1.51554 -0.0749998 10
      vertex -1.34058 0.174878 -10
      vertex -1.34058 0.174878 10
    endloop
  endfacet
  facet normal 0.819151 -0.573577 0
    outer loop
      vertex -1.34058 0.174878 -10
      vertex -1.51554 -0.0749998 10
      vertex -1.51554 -0.0749998 -10
    endloop
  endfacet
  facet normal 0.422618 -0.906308 0
    outer loop
      vertex -0.875 0.565544 -10
      vertex -0.598535 0.694462 10
      vertex -0.875 0.565544 10
    endloop
  endfacet
  facet normal 0.422618 -0.906308 0
    outer loop
      vertex -0.598535 0.694462 10
      vertex -0.875 0.565544 -10
      vertex -0.598535 0.694462 -10
    endloop
  endfacet
  facet normal 0.258817 -0.965926 0
    outer loop
      vertex -0.598535 0.694462 -10
      vertex -0.303884 0.773413 10
      vertex -0.598535 0.694462 10
    endloop
  endfacet
  facet normal 0.258817 -0.965926 0
    outer loop
      vertex -0.303884 0.773413 10
      vertex -0.598535 0.694462 -10
      vertex -0.303884 0.773413 -10
    endloop
  endfacet
  facet normal 0.573577 -0.819151 0
    outer loop
      vertex -1.12488 0.390577 -10
      vertex -0.875 0.565544 10
      vertex -1.12488 0.390577 10
    endloop
  endfacet
  facet normal 0.573577 -0.819151 0
    outer loop
      vertex -0.875 0.565544 10
      vertex -1.12488 0.390577 -10
      vertex -0.875 0.565544 -10
    endloop
  endfacet
  facet normal -0.906308 -0.422619 0
    outer loop
      vertex 1.64446 -0.351464 -10
      vertex 1.51554 -0.0749998 10
      vertex 1.51554 -0.0749998 -10
    endloop
  endfacet
  facet normal -0.906308 -0.422619 0
    outer loop
      vertex 1.51554 -0.0749998 10
      vertex 1.64446 -0.351464 -10
      vertex 1.64446 -0.351464 10
    endloop
  endfacet
  facet normal -0.965926 -0.25882 0
    outer loop
      vertex 1.72341 -0.646115 -10
      vertex 1.64446 -0.351464 10
      vertex 1.64446 -0.351464 -10
    endloop
  endfacet
  facet normal -0.965926 -0.25882 0
    outer loop
      vertex 1.64446 -0.351464 10
      vertex 1.72341 -0.646115 -10
      vertex 1.72341 -0.646115 10
    endloop
  endfacet
  facet normal -0.422619 -0.906308 0
    outer loop
      vertex 0.598535 0.694462 -10
      vertex 0.874999 0.565544 10
      vertex 0.598535 0.694462 10
    endloop
  endfacet
  facet normal -0.422619 -0.906308 -0
    outer loop
      vertex 0.874999 0.565544 10
      vertex 0.598535 0.694462 -10
      vertex 0.874999 0.565544 -10
    endloop
  endfacet
  facet normal -0.0871563 -0.996195 0
    outer loop
      vertex 0 0.799999 -10
      vertex 0.303884 0.773413 10
      vertex 0 0.799999 10
    endloop
  endfacet
  facet normal -0.0871563 -0.996195 -0
    outer loop
      vertex 0.303884 0.773413 10
      vertex 0 0.799999 -10
      vertex 0.303884 0.773413 -10
    endloop
  endfacet
  facet normal 0.996195 0.0871563 0
    outer loop
      vertex -1.72341 -1.25388 10
      vertex -1.75 -0.95 -10
      vertex -1.75 -0.95 10
    endloop
  endfacet
  facet normal 0.996195 0.0871563 0
    outer loop
      vertex -1.75 -0.95 -10
      vertex -1.72341 -1.25388 10
      vertex -1.72341 -1.25388 -10
    endloop
  endfacet
  facet normal 0.0871563 0.996195 -0
    outer loop
      vertex 0 -2.7 -10
      vertex -0.303884 -2.67341 10
      vertex 0 -2.7 10
    endloop
  endfacet
  facet normal 0.0871563 0.996195 0
    outer loop
      vertex -0.303884 -2.67341 10
      vertex 0 -2.7 -10
      vertex -0.303884 -2.67341 -10
    endloop
  endfacet
  facet normal -0.707107 0.707107 0
    outer loop
      vertex 1.12488 -2.29058 -10
      vertex 1.34058 -2.07488 10
      vertex 1.34058 -2.07488 -10
    endloop
  endfacet
  facet normal -0.707107 0.707107 0
    outer loop
      vertex 1.34058 -2.07488 10
      vertex 1.12488 -2.29058 -10
      vertex 1.12488 -2.29058 10
    endloop
  endfacet
  facet normal -0.906308 0.422618 0
    outer loop
      vertex 1.51554 -1.825 -10
      vertex 1.64446 -1.54853 10
      vertex 1.64446 -1.54853 -10
    endloop
  endfacet
  facet normal -0.906308 0.422618 0
    outer loop
      vertex 1.64446 -1.54853 10
      vertex 1.51554 -1.825 -10
      vertex 1.51554 -1.825 10
    endloop
  endfacet
  facet normal -0.996195 0.0871563 0
    outer loop
      vertex 1.72341 -1.25388 -10
      vertex 1.75 -0.95 10
      vertex 1.75 -0.95 -10
    endloop
  endfacet
  facet normal -0.996195 0.0871563 0
    outer loop
      vertex 1.75 -0.95 10
      vertex 1.72341 -1.25388 -10
      vertex 1.72341 -1.25388 10
    endloop
  endfacet
  facet normal -0.819151 -0.573577 0
    outer loop
      vertex 1.51554 -0.0749998 -10
      vertex 1.34058 0.174878 10
      vertex 1.34058 0.174878 -10
    endloop
  endfacet
  facet normal -0.819151 -0.573577 0
    outer loop
      vertex 1.34058 0.174878 10
      vertex 1.51554 -0.0749998 -10
      vertex 1.51554 -0.0749998 10
    endloop
  endfacet
  facet normal -0.707107 -0.707107 0
    outer loop
      vertex 1.34058 0.174878 -10
      vertex 1.12488 0.390577 10
      vertex 1.12488 0.390577 -10
    endloop
  endfacet
  facet normal -0.707107 -0.707107 0
    outer loop
      vertex 1.12488 0.390577 10
      vertex 1.34058 0.174878 -10
      vertex 1.34058 0.174878 10
    endloop
  endfacet
  facet normal 0.25882 0.965926 -0
    outer loop
      vertex -0.303884 -2.67341 -10
      vertex -0.598535 -2.59446 10
      vertex -0.303884 -2.67341 10
    endloop
  endfacet
  facet normal 0.25882 0.965926 0
    outer loop
      vertex -0.598535 -2.59446 10
      vertex -0.303884 -2.67341 -10
      vertex -0.598535 -2.59446 -10
    endloop
  endfacet
  facet normal 0.422619 0.906308 -0
    outer loop
      vertex -0.598535 -2.59446 -10
      vertex -0.874999 -2.46554 10
      vertex -0.598535 -2.59446 10
    endloop
  endfacet
  facet normal 0.422619 0.906308 0
    outer loop
      vertex -0.874999 -2.46554 10
      vertex -0.598535 -2.59446 -10
      vertex -0.874999 -2.46554 -10
    endloop
  endfacet
  facet normal 0.819151 0.573577 0
    outer loop
      vertex -1.34058 -2.07488 10
      vertex -1.51554 -1.825 -10
      vertex -1.51554 -1.825 10
    endloop
  endfacet
  facet normal 0.819151 0.573577 0
    outer loop
      vertex -1.51554 -1.825 -10
      vertex -1.34058 -2.07488 10
      vertex -1.34058 -2.07488 -10
    endloop
  endfacet
  facet normal -0.573577 0.819151 0
    outer loop
      vertex 1.12488 -2.29058 -10
      vertex 0.875 -2.46554 10
      vertex 1.12488 -2.29058 10
    endloop
  endfacet
  facet normal -0.573577 0.819151 0
    outer loop
      vertex 0.875 -2.46554 10
      vertex 1.12488 -2.29058 -10
      vertex 0.875 -2.46554 -10
    endloop
  endfacet
  facet normal -0.422618 0.906308 0
    outer loop
      vertex 0.875 -2.46554 -10
      vertex 0.598535 -2.59446 10
      vertex 0.875 -2.46554 10
    endloop
  endfacet
  facet normal -0.422618 0.906308 0
    outer loop
      vertex 0.598535 -2.59446 10
      vertex 0.875 -2.46554 -10
      vertex 0.598535 -2.59446 -10
    endloop
  endfacet
  facet normal -0.965926 0.25882 0
    outer loop
      vertex 1.64446 -1.54853 -10
      vertex 1.72341 -1.25388 10
      vertex 1.72341 -1.25388 -10
    endloop
  endfacet
  facet normal -0.965926 0.25882 0
    outer loop
      vertex 1.72341 -1.25388 10
      vertex 1.64446 -1.54853 -10
      vertex 1.64446 -1.54853 10
    endloop
  endfacet
  facet normal 0.573576 0.819152 -0
    outer loop
      vertex -0.874999 -2.46554 -10
      vertex -1.12488 -2.29058 10
      vertex -0.874999 -2.46554 10
    endloop
  endfacet
  facet normal 0.573576 0.819152 0
    outer loop
      vertex -1.12488 -2.29058 10
      vertex -0.874999 -2.46554 -10
      vertex -1.12488 -2.29058 -10
    endloop
  endfacet
  facet normal 0.906308 0.422618 0
    outer loop
      vertex -1.51554 -1.825 10
      vertex -1.64446 -1.54853 -10
      vertex -1.64446 -1.54853 10
    endloop
  endfacet
  facet normal 0.906308 0.422618 0
    outer loop
      vertex -1.64446 -1.54853 -10
      vertex -1.51554 -1.825 10
      vertex -1.51554 -1.825 -10
    endloop
  endfacet
  facet normal -0.25882 0.965926 0
    outer loop
      vertex 0.598535 -2.59446 -10
      vertex 0.303884 -2.67341 10
      vertex 0.598535 -2.59446 10
    endloop
  endfacet
  facet normal -0.25882 0.965926 0
    outer loop
      vertex 0.303884 -2.67341 10
      vertex 0.598535 -2.59446 -10
      vertex 0.303884 -2.67341 -10
    endloop
  endfacet
  facet normal 0.965926 0.25882 0
    outer loop
      vertex -1.64446 -1.54853 10
      vertex -1.72341 -1.25388 -10
      vertex -1.72341 -1.25388 10
    endloop
  endfacet
  facet normal 0.965926 0.25882 0
    outer loop
      vertex -1.72341 -1.25388 -10
      vertex -1.64446 -1.54853 10
      vertex -1.64446 -1.54853 -10
    endloop
  endfacet
  facet normal 0 -0.0871563 -0.996195
    outer loop
      vertex -3.5 3.2 -3.35
      vertex 7.5 3.50388 -3.37659
      vertex 7.5 3.2 -3.35
    endloop
  endfacet
  facet normal -0 -0.0871563 -0.996195
    outer loop
      vertex 7.5 3.50388 -3.37659
      vertex -3.5 3.2 -3.35
      vertex -3.5 3.50388 -3.37659
    endloop
  endfacet
  facet normal -0 0.087156 0.996195
    outer loop
      vertex -3.5 3.2 -6.85
      vertex 7.5 2.89612 -6.82341
      vertex 7.5 3.2 -6.85
    endloop
  endfacet
  facet normal 0 0.087156 0.996195
    outer loop
      vertex 7.5 2.89612 -6.82341
      vertex -3.5 3.2 -6.85
      vertex -3.5 2.89612 -6.82341
    endloop
  endfacet
  facet normal 0 -0.573577 0.819151
    outer loop
      vertex -3.5 4.32488 -6.44058
      vertex 7.5 4.075 -6.61554
      vertex 7.5 4.32488 -6.44058
    endloop
  endfacet
  facet normal 0 -0.573577 0.819151
    outer loop
      vertex 7.5 4.075 -6.61554
      vertex -3.5 4.32488 -6.44058
      vertex -3.5 4.075 -6.61554
    endloop
  endfacet
  facet normal 0 -0.996195 0.087156
    outer loop
      vertex -3.5 4.92341 -5.40388
      vertex 7.5 4.95 -5.1
      vertex -3.5 4.95 -5.1
    endloop
  endfacet
  facet normal 0 -0.996195 0.087156
    outer loop
      vertex 7.5 4.95 -5.1
      vertex -3.5 4.92341 -5.40388
      vertex 7.5 4.92341 -5.40388
    endloop
  endfacet
  facet normal 0 -0.965926 0.25882
    outer loop
      vertex -3.5 4.84446 -5.69853
      vertex 7.5 4.92341 -5.40388
      vertex -3.5 4.92341 -5.40388
    endloop
  endfacet
  facet normal 0 -0.965926 0.25882
    outer loop
      vertex 7.5 4.92341 -5.40388
      vertex -3.5 4.84446 -5.69853
      vertex 7.5 4.84446 -5.69853
    endloop
  endfacet
  facet normal 0 -0.906308 -0.422619
    outer loop
      vertex -3.5 4.84446 -4.50146
      vertex 7.5 4.71554 -4.225
      vertex -3.5 4.71554 -4.225
    endloop
  endfacet
  facet normal 0 -0.906308 -0.422619
    outer loop
      vertex 7.5 4.71554 -4.225
      vertex -3.5 4.84446 -4.50146
      vertex 7.5 4.84446 -4.50146
    endloop
  endfacet
  facet normal 0 -0.25882 -0.965926
    outer loop
      vertex -3.5 3.50388 -3.37659
      vertex 7.5 3.79853 -3.45554
      vertex 7.5 3.50388 -3.37659
    endloop
  endfacet
  facet normal -0 -0.25882 -0.965926
    outer loop
      vertex 7.5 3.79853 -3.45554
      vertex -3.5 3.50388 -3.37659
      vertex -3.5 3.79853 -3.45554
    endloop
  endfacet
  facet normal 0 -0.258817 0.965926
    outer loop
      vertex -3.5 3.79853 -6.74446
      vertex 7.5 3.50388 -6.82341
      vertex 7.5 3.79853 -6.74446
    endloop
  endfacet
  facet normal 0 -0.258817 0.965926
    outer loop
      vertex 7.5 3.50388 -6.82341
      vertex -3.5 3.79853 -6.74446
      vertex -3.5 3.50388 -6.82341
    endloop
  endfacet
  facet normal 0 -0.422618 0.906308
    outer loop
      vertex -3.5 4.075 -6.61554
      vertex 7.5 3.79853 -6.74446
      vertex 7.5 4.075 -6.61554
    endloop
  endfacet
  facet normal 0 -0.422618 0.906308
    outer loop
      vertex 7.5 3.79853 -6.74446
      vertex -3.5 4.075 -6.61554
      vertex -3.5 3.79853 -6.74446
    endloop
  endfacet
  facet normal 0 -0.996195 -0.087156
    outer loop
      vertex -3.5 4.95 -5.1
      vertex 7.5 4.92341 -4.79611
      vertex -3.5 4.92341 -4.79611
    endloop
  endfacet
  facet normal 0 -0.996195 -0.087156
    outer loop
      vertex 7.5 4.92341 -4.79611
      vertex -3.5 4.95 -5.1
      vertex 7.5 4.95 -5.1
    endloop
  endfacet
  facet normal 0 -0.906308 0.422619
    outer loop
      vertex -3.5 4.71554 -5.975
      vertex 7.5 4.84446 -5.69853
      vertex -3.5 4.84446 -5.69853
    endloop
  endfacet
  facet normal 0 -0.906308 0.422619
    outer loop
      vertex 7.5 4.84446 -5.69853
      vertex -3.5 4.71554 -5.975
      vertex 7.5 4.71554 -5.975
    endloop
  endfacet
  facet normal 0 0.087156 -0.996195
    outer loop
      vertex -3.5 2.89612 -3.37659
      vertex 7.5 3.2 -3.35
      vertex 7.5 2.89612 -3.37659
    endloop
  endfacet
  facet normal 0 0.087156 -0.996195
    outer loop
      vertex 7.5 3.2 -3.35
      vertex -3.5 2.89612 -3.37659
      vertex -3.5 3.2 -3.35
    endloop
  endfacet
  facet normal 0 -0.573575 -0.819153
    outer loop
      vertex -3.5 4.075 -3.58446
      vertex 7.5 4.32488 -3.75942
      vertex 7.5 4.075 -3.58446
    endloop
  endfacet
  facet normal -0 -0.573575 -0.819153
    outer loop
      vertex 7.5 4.32488 -3.75942
      vertex -3.5 4.075 -3.58446
      vertex -3.5 4.32488 -3.75942
    endloop
  endfacet
  facet normal 0 -0.819151 -0.573577
    outer loop
      vertex -3.5 4.71554 -4.225
      vertex 7.5 4.54058 -3.97512
      vertex -3.5 4.54058 -3.97512
    endloop
  endfacet
  facet normal 0 -0.819151 -0.573577
    outer loop
      vertex 7.5 4.54058 -3.97512
      vertex -3.5 4.71554 -4.225
      vertex 7.5 4.71554 -4.225
    endloop
  endfacet
  facet normal 0 -0.965926 -0.25882
    outer loop
      vertex -3.5 4.92341 -4.79611
      vertex 7.5 4.84446 -4.50146
      vertex -3.5 4.84446 -4.50146
    endloop
  endfacet
  facet normal 0 -0.965926 -0.25882
    outer loop
      vertex 7.5 4.84446 -4.50146
      vertex -3.5 4.92341 -4.79611
      vertex 7.5 4.92341 -4.79611
    endloop
  endfacet
  facet normal 0 -0.707108 -0.707105
    outer loop
      vertex -3.5 4.54058 -3.97512
      vertex 7.5 4.32488 -3.75942
      vertex -3.5 4.32488 -3.75942
    endloop
  endfacet
  facet normal 0 -0.707108 -0.707105
    outer loop
      vertex 7.5 4.32488 -3.75942
      vertex -3.5 4.54058 -3.97512
      vertex 7.5 4.54058 -3.97512
    endloop
  endfacet
  facet normal 0 -0.0871563 0.996195
    outer loop
      vertex -3.5 3.50388 -6.82341
      vertex 7.5 3.2 -6.85
      vertex 7.5 3.50388 -6.82341
    endloop
  endfacet
  facet normal 0 -0.0871563 0.996195
    outer loop
      vertex 7.5 3.2 -6.85
      vertex -3.5 3.50388 -6.82341
      vertex -3.5 3.2 -6.85
    endloop
  endfacet
  facet normal 0 0.25882 -0.965926
    outer loop
      vertex -3.5 2.60146 -3.45554
      vertex 7.5 2.89612 -3.37659
      vertex 7.5 2.60146 -3.45554
    endloop
  endfacet
  facet normal 0 0.25882 -0.965926
    outer loop
      vertex 7.5 2.89612 -3.37659
      vertex -3.5 2.60146 -3.45554
      vertex -3.5 2.89612 -3.37659
    endloop
  endfacet
  facet normal 0 0.819152 0.573576
    outer loop
      vertex 7.5 1.85942 -6.22488
      vertex -3.5 1.68445 -5.975
      vertex 7.5 1.68445 -5.975
    endloop
  endfacet
  facet normal 0 0.819152 0.573576
    outer loop
      vertex -3.5 1.68445 -5.975
      vertex 7.5 1.85942 -6.22488
      vertex -3.5 1.85942 -6.22488
    endloop
  endfacet
  facet normal -0 0.422619 0.906308
    outer loop
      vertex -3.5 2.60146 -6.74446
      vertex 7.5 2.325 -6.61554
      vertex 7.5 2.60146 -6.74446
    endloop
  endfacet
  facet normal 0 0.422619 0.906308
    outer loop
      vertex 7.5 2.325 -6.61554
      vertex -3.5 2.60146 -6.74446
      vertex -3.5 2.325 -6.61554
    endloop
  endfacet
  facet normal 0 -0.707107 0.707107
    outer loop
      vertex -3.5 4.32488 -6.44058
      vertex 7.5 4.54058 -6.22488
      vertex -3.5 4.54058 -6.22488
    endloop
  endfacet
  facet normal 0 -0.707107 0.707107
    outer loop
      vertex 7.5 4.54058 -6.22488
      vertex -3.5 4.32488 -6.44058
      vertex 7.5 4.32488 -6.44058
    endloop
  endfacet
  facet normal 0 -0.819152 0.573576
    outer loop
      vertex -3.5 4.54058 -6.22488
      vertex 7.5 4.71554 -5.975
      vertex -3.5 4.71554 -5.975
    endloop
  endfacet
  facet normal 0 -0.819152 0.573576
    outer loop
      vertex 7.5 4.71554 -5.975
      vertex -3.5 4.54058 -6.22488
      vertex 7.5 4.54058 -6.22488
    endloop
  endfacet
  facet normal 0 -0.422618 -0.906308
    outer loop
      vertex -3.5 3.79853 -3.45554
      vertex 7.5 4.075 -3.58446
      vertex 7.5 3.79853 -3.45554
    endloop
  endfacet
  facet normal -0 -0.422618 -0.906308
    outer loop
      vertex 7.5 4.075 -3.58446
      vertex -3.5 3.79853 -3.45554
      vertex -3.5 4.075 -3.58446
    endloop
  endfacet
  facet normal -0 0.258817 0.965926
    outer loop
      vertex -3.5 2.89612 -6.82341
      vertex 7.5 2.60146 -6.74446
      vertex 7.5 2.89612 -6.82341
    endloop
  endfacet
  facet normal 0 0.258817 0.965926
    outer loop
      vertex 7.5 2.60146 -6.74446
      vertex -3.5 2.89612 -6.82341
      vertex -3.5 2.60146 -6.74446
    endloop
  endfacet
  facet normal 0 0.965926 0.258817
    outer loop
      vertex 7.5 1.55554 -5.69853
      vertex -3.5 1.47659 -5.40388
      vertex 7.5 1.47659 -5.40388
    endloop
  endfacet
  facet normal 0 0.965926 0.258817
    outer loop
      vertex -3.5 1.47659 -5.40388
      vertex 7.5 1.55554 -5.69853
      vertex -3.5 1.55554 -5.69853
    endloop
  endfacet
  facet normal 0 0.906308 0.422619
    outer loop
      vertex 7.5 1.68445 -5.975
      vertex -3.5 1.55554 -5.69853
      vertex 7.5 1.55554 -5.69853
    endloop
  endfacet
  facet normal 0 0.906308 0.422619
    outer loop
      vertex -3.5 1.55554 -5.69853
      vertex 7.5 1.68445 -5.975
      vertex -3.5 1.68445 -5.975
    endloop
  endfacet
  facet normal 0 0.996195 0.087156
    outer loop
      vertex 7.5 1.47659 -5.40388
      vertex -3.5 1.45 -5.1
      vertex 7.5 1.45 -5.1
    endloop
  endfacet
  facet normal 0 0.996195 0.087156
    outer loop
      vertex -3.5 1.45 -5.1
      vertex 7.5 1.47659 -5.40388
      vertex -3.5 1.47659 -5.40388
    endloop
  endfacet
  facet normal 0 0.996195 -0.087156
    outer loop
      vertex 7.5 1.45 -5.1
      vertex -3.5 1.47659 -4.79611
      vertex 7.5 1.47659 -4.79611
    endloop
  endfacet
  facet normal 0 0.996195 -0.087156
    outer loop
      vertex -3.5 1.47659 -4.79611
      vertex 7.5 1.45 -5.1
      vertex -3.5 1.45 -5.1
    endloop
  endfacet
  facet normal 0 0.965926 -0.258817
    outer loop
      vertex 7.5 1.47659 -4.79611
      vertex -3.5 1.55554 -4.50146
      vertex 7.5 1.55554 -4.50146
    endloop
  endfacet
  facet normal 0 0.965926 -0.258817
    outer loop
      vertex -3.5 1.55554 -4.50146
      vertex 7.5 1.47659 -4.79611
      vertex -3.5 1.47659 -4.79611
    endloop
  endfacet
  facet normal 0 0.573574 -0.819154
    outer loop
      vertex -3.5 2.07512 -3.75942
      vertex 7.5 2.325 -3.58446
      vertex 7.5 2.07512 -3.75942
    endloop
  endfacet
  facet normal 0 0.573574 -0.819154
    outer loop
      vertex 7.5 2.325 -3.58446
      vertex -3.5 2.07512 -3.75942
      vertex -3.5 2.325 -3.58446
    endloop
  endfacet
  facet normal 0 0.819151 -0.573577
    outer loop
      vertex 7.5 1.68445 -4.225
      vertex -3.5 1.85942 -3.97512
      vertex 7.5 1.85942 -3.97512
    endloop
  endfacet
  facet normal 0 0.819151 -0.573577
    outer loop
      vertex -3.5 1.85942 -3.97512
      vertex 7.5 1.68445 -4.225
      vertex -3.5 1.68445 -4.225
    endloop
  endfacet
  facet normal 0 0.707108 -0.707105
    outer loop
      vertex 7.5 1.85942 -3.97512
      vertex -3.5 2.07512 -3.75942
      vertex 7.5 2.07512 -3.75942
    endloop
  endfacet
  facet normal 0 0.707108 -0.707105
    outer loop
      vertex -3.5 2.07512 -3.75942
      vertex 7.5 1.85942 -3.97512
      vertex -3.5 1.85942 -3.97512
    endloop
  endfacet
  facet normal 0 0.707107 0.707107
    outer loop
      vertex 7.5 2.07512 -6.44058
      vertex -3.5 1.85942 -6.22488
      vertex 7.5 1.85942 -6.22488
    endloop
  endfacet
  facet normal 0 0.707107 0.707107
    outer loop
      vertex -3.5 1.85942 -6.22488
      vertex 7.5 2.07512 -6.44058
      vertex -3.5 2.07512 -6.44058
    endloop
  endfacet
  facet normal -0 0.573576 0.819152
    outer loop
      vertex -3.5 2.325 -6.61554
      vertex 7.5 2.07512 -6.44058
      vertex 7.5 2.325 -6.61554
    endloop
  endfacet
  facet normal 0 0.573576 0.819152
    outer loop
      vertex 7.5 2.07512 -6.44058
      vertex -3.5 2.325 -6.61554
      vertex -3.5 2.07512 -6.44058
    endloop
  endfacet
  facet normal 0 0.906308 -0.422619
    outer loop
      vertex 7.5 1.55554 -4.50146
      vertex -3.5 1.68445 -4.225
      vertex 7.5 1.68445 -4.225
    endloop
  endfacet
  facet normal 0 0.906308 -0.422619
    outer loop
      vertex -3.5 1.68445 -4.225
      vertex 7.5 1.55554 -4.50146
      vertex -3.5 1.55554 -4.50146
    endloop
  endfacet
  facet normal 0 0.422619 -0.906308
    outer loop
      vertex -3.5 2.325 -3.58446
      vertex 7.5 2.60146 -3.45554
      vertex 7.5 2.325 -3.58446
    endloop
  endfacet
  facet normal 0 0.422619 -0.906308
    outer loop
      vertex 7.5 2.60146 -3.45554
      vertex -3.5 2.325 -3.58446
      vertex -3.5 2.60146 -3.45554
    endloop
  endfacet
  facet normal 0 -0.0871563 -0.996195
    outer loop
      vertex -3.5 3.2 6.85
      vertex 7.5 3.50388 6.82341
      vertex 7.5 3.2 6.85
    endloop
  endfacet
  facet normal -0 -0.0871563 -0.996195
    outer loop
      vertex 7.5 3.50388 6.82341
      vertex -3.5 3.2 6.85
      vertex -3.5 3.50388 6.82341
    endloop
  endfacet
  facet normal 0 -0.707108 0.707105
    outer loop
      vertex -3.5 4.32488 3.75942
      vertex 7.5 4.54058 3.97512
      vertex -3.5 4.54058 3.97512
    endloop
  endfacet
  facet normal 0 -0.707108 0.707105
    outer loop
      vertex 7.5 4.54058 3.97512
      vertex -3.5 4.32488 3.75942
      vertex 7.5 4.32488 3.75942
    endloop
  endfacet
  facet normal 0 -0.996195 0.087156
    outer loop
      vertex -3.5 4.92341 4.79611
      vertex 7.5 4.95 5.1
      vertex -3.5 4.95 5.1
    endloop
  endfacet
  facet normal 0 -0.996195 0.087156
    outer loop
      vertex 7.5 4.95 5.1
      vertex -3.5 4.92341 4.79611
      vertex 7.5 4.92341 4.79611
    endloop
  endfacet
  facet normal 0 -0.819152 -0.573576
    outer loop
      vertex -3.5 4.71554 5.975
      vertex 7.5 4.54058 6.22488
      vertex -3.5 4.54058 6.22488
    endloop
  endfacet
  facet normal 0 -0.819152 -0.573576
    outer loop
      vertex 7.5 4.54058 6.22488
      vertex -3.5 4.71554 5.975
      vertex 7.5 4.71554 5.975
    endloop
  endfacet
  facet normal 0 -0.258817 -0.965926
    outer loop
      vertex -3.5 3.50388 6.82341
      vertex 7.5 3.79853 6.74446
      vertex 7.5 3.50388 6.82341
    endloop
  endfacet
  facet normal -0 -0.258817 -0.965926
    outer loop
      vertex 7.5 3.79853 6.74446
      vertex -3.5 3.50388 6.82341
      vertex -3.5 3.79853 6.74446
    endloop
  endfacet
  facet normal -0 0.087156 0.996195
    outer loop
      vertex -3.5 3.2 3.35
      vertex 7.5 2.89612 3.37659
      vertex 7.5 3.2 3.35
    endloop
  endfacet
  facet normal 0 0.087156 0.996195
    outer loop
      vertex 7.5 2.89612 3.37659
      vertex -3.5 3.2 3.35
      vertex -3.5 2.89612 3.37659
    endloop
  endfacet
  facet normal 0 -0.573575 0.819153
    outer loop
      vertex -3.5 4.32488 3.75942
      vertex 7.5 4.075 3.58446
      vertex 7.5 4.32488 3.75942
    endloop
  endfacet
  facet normal 0 -0.573575 0.819153
    outer loop
      vertex 7.5 4.075 3.58446
      vertex -3.5 4.32488 3.75942
      vertex -3.5 4.075 3.58446
    endloop
  endfacet
  facet normal 0 -0.996195 -0.087156
    outer loop
      vertex -3.5 4.95 5.1
      vertex 7.5 4.92341 5.40388
      vertex -3.5 4.92341 5.40388
    endloop
  endfacet
  facet normal 0 -0.996195 -0.087156
    outer loop
      vertex 7.5 4.92341 5.40388
      vertex -3.5 4.95 5.1
      vertex 7.5 4.95 5.1
    endloop
  endfacet
  facet normal 0 -0.906308 0.422619
    outer loop
      vertex -3.5 4.71554 4.225
      vertex 7.5 4.84446 4.50146
      vertex -3.5 4.84446 4.50146
    endloop
  endfacet
  facet normal 0 -0.906308 0.422619
    outer loop
      vertex 7.5 4.84446 4.50146
      vertex -3.5 4.71554 4.225
      vertex 7.5 4.71554 4.225
    endloop
  endfacet
  facet normal 0 0.087156 -0.996195
    outer loop
      vertex -3.5 2.89612 6.82341
      vertex 7.5 3.2 6.85
      vertex 7.5 2.89612 6.82341
    endloop
  endfacet
  facet normal 0 0.087156 -0.996195
    outer loop
      vertex 7.5 3.2 6.85
      vertex -3.5 2.89612 6.82341
      vertex -3.5 3.2 6.85
    endloop
  endfacet
  facet normal 0 -0.422618 -0.906308
    outer loop
      vertex -3.5 3.79853 6.74446
      vertex 7.5 4.075 6.61554
      vertex 7.5 3.79853 6.74446
    endloop
  endfacet
  facet normal -0 -0.422618 -0.906308
    outer loop
      vertex 7.5 4.075 6.61554
      vertex -3.5 3.79853 6.74446
      vertex -3.5 4.075 6.61554
    endloop
  endfacet
  facet normal 0 -0.707107 -0.707107
    outer loop
      vertex -3.5 4.54058 6.22488
      vertex 7.5 4.32488 6.44058
      vertex -3.5 4.32488 6.44058
    endloop
  endfacet
  facet normal 0 -0.707107 -0.707107
    outer loop
      vertex 7.5 4.32488 6.44058
      vertex -3.5 4.54058 6.22488
      vertex 7.5 4.54058 6.22488
    endloop
  endfacet
  facet normal 0 -0.965926 -0.25882
    outer loop
      vertex -3.5 4.92341 5.40388
      vertex 7.5 4.84446 5.69853
      vertex -3.5 4.84446 5.69853
    endloop
  endfacet
  facet normal 0 -0.965926 -0.25882
    outer loop
      vertex 7.5 4.84446 5.69853
      vertex -3.5 4.92341 5.40388
      vertex 7.5 4.92341 5.40388
    endloop
  endfacet
  facet normal 0 -0.573577 -0.819151
    outer loop
      vertex -3.5 4.075 6.61554
      vertex 7.5 4.32488 6.44058
      vertex 7.5 4.075 6.61554
    endloop
  endfacet
  facet normal -0 -0.573577 -0.819151
    outer loop
      vertex 7.5 4.32488 6.44058
      vertex -3.5 4.075 6.61554
      vertex -3.5 4.32488 6.44058
    endloop
  endfacet
  facet normal 0 -0.0871563 0.996195
    outer loop
      vertex -3.5 3.50388 3.37659
      vertex 7.5 3.2 3.35
      vertex 7.5 3.50388 3.37659
    endloop
  endfacet
  facet normal 0 -0.0871563 0.996195
    outer loop
      vertex 7.5 3.2 3.35
      vertex -3.5 3.50388 3.37659
      vertex -3.5 3.2 3.35
    endloop
  endfacet
  facet normal -0 0.25882 0.965926
    outer loop
      vertex -3.5 2.89612 3.37659
      vertex 7.5 2.60146 3.45554
      vertex 7.5 2.89612 3.37659
    endloop
  endfacet
  facet normal 0 0.25882 0.965926
    outer loop
      vertex 7.5 2.60146 3.45554
      vertex -3.5 2.89612 3.37659
      vertex -3.5 2.60146 3.45554
    endloop
  endfacet
  facet normal 0 0.819152 -0.573576
    outer loop
      vertex 7.5 1.68445 5.975
      vertex -3.5 1.85942 6.22488
      vertex 7.5 1.85942 6.22488
    endloop
  endfacet
  facet normal 0 0.819152 -0.573576
    outer loop
      vertex -3.5 1.85942 6.22488
      vertex 7.5 1.68445 5.975
      vertex -3.5 1.68445 5.975
    endloop
  endfacet
  facet normal 0 0.819151 0.573577
    outer loop
      vertex 7.5 1.85942 3.97512
      vertex -3.5 1.68445 4.225
      vertex 7.5 1.68445 4.225
    endloop
  endfacet
  facet normal 0 0.819151 0.573577
    outer loop
      vertex -3.5 1.68445 4.225
      vertex 7.5 1.85942 3.97512
      vertex -3.5 1.85942 3.97512
    endloop
  endfacet
  facet normal 0 -0.25882 0.965926
    outer loop
      vertex -3.5 3.79853 3.45554
      vertex 7.5 3.50388 3.37659
      vertex 7.5 3.79853 3.45554
    endloop
  endfacet
  facet normal 0 -0.25882 0.965926
    outer loop
      vertex 7.5 3.50388 3.37659
      vertex -3.5 3.79853 3.45554
      vertex -3.5 3.50388 3.37659
    endloop
  endfacet
  facet normal 0 -0.422618 0.906308
    outer loop
      vertex -3.5 4.075 3.58446
      vertex 7.5 3.79853 3.45554
      vertex 7.5 4.075 3.58446
    endloop
  endfacet
  facet normal 0 -0.422618 0.906308
    outer loop
      vertex 7.5 3.79853 3.45554
      vertex -3.5 4.075 3.58446
      vertex -3.5 3.79853 3.45554
    endloop
  endfacet
  facet normal 0 -0.819151 0.573577
    outer loop
      vertex -3.5 4.54058 3.97512
      vertex 7.5 4.71554 4.225
      vertex -3.5 4.71554 4.225
    endloop
  endfacet
  facet normal 0 -0.819151 0.573577
    outer loop
      vertex 7.5 4.71554 4.225
      vertex -3.5 4.54058 3.97512
      vertex 7.5 4.54058 3.97512
    endloop
  endfacet
  facet normal 0 -0.965926 0.25882
    outer loop
      vertex -3.5 4.84446 4.50146
      vertex 7.5 4.92341 4.79611
      vertex -3.5 4.92341 4.79611
    endloop
  endfacet
  facet normal 0 -0.965926 0.25882
    outer loop
      vertex 7.5 4.92341 4.79611
      vertex -3.5 4.84446 4.50146
      vertex 7.5 4.84446 4.50146
    endloop
  endfacet
  facet normal 0 -0.906308 -0.422619
    outer loop
      vertex -3.5 4.84446 5.69853
      vertex 7.5 4.71554 5.975
      vertex -3.5 4.71554 5.975
    endloop
  endfacet
  facet normal 0 -0.906308 -0.422619
    outer loop
      vertex 7.5 4.71554 5.975
      vertex -3.5 4.84446 5.69853
      vertex 7.5 4.84446 5.69853
    endloop
  endfacet
  facet normal -0 0.573574 0.819154
    outer loop
      vertex -3.5 2.325 3.58446
      vertex 7.5 2.07512 3.75942
      vertex 7.5 2.325 3.58446
    endloop
  endfacet
  facet normal 0 0.573574 0.819154
    outer loop
      vertex 7.5 2.07512 3.75942
      vertex -3.5 2.325 3.58446
      vertex -3.5 2.07512 3.75942
    endloop
  endfacet
  facet normal 0 0.422619 -0.906308
    outer loop
      vertex -3.5 2.325 6.61554
      vertex 7.5 2.60146 6.74446
      vertex 7.5 2.325 6.61554
    endloop
  endfacet
  facet normal 0 0.422619 -0.906308
    outer loop
      vertex 7.5 2.60146 6.74446
      vertex -3.5 2.325 6.61554
      vertex -3.5 2.60146 6.74446
    endloop
  endfacet
  facet normal 0 0.258817 -0.965926
    outer loop
      vertex -3.5 2.60146 6.74446
      vertex 7.5 2.89612 6.82341
      vertex 7.5 2.60146 6.74446
    endloop
  endfacet
  facet normal 0 0.258817 -0.965926
    outer loop
      vertex 7.5 2.89612 6.82341
      vertex -3.5 2.60146 6.74446
      vertex -3.5 2.89612 6.82341
    endloop
  endfacet
  facet normal 0 0.707107 -0.707107
    outer loop
      vertex 7.5 1.85942 6.22488
      vertex -3.5 2.07512 6.44058
      vertex 7.5 2.07512 6.44058
    endloop
  endfacet
  facet normal 0 0.707107 -0.707107
    outer loop
      vertex -3.5 2.07512 6.44058
      vertex 7.5 1.85942 6.22488
      vertex -3.5 1.85942 6.22488
    endloop
  endfacet
  facet normal 0 0.965926 0.258817
    outer loop
      vertex 7.5 1.55554 4.50146
      vertex -3.5 1.47659 4.79611
      vertex 7.5 1.47659 4.79611
    endloop
  endfacet
  facet normal 0 0.965926 0.258817
    outer loop
      vertex -3.5 1.47659 4.79611
      vertex 7.5 1.55554 4.50146
      vertex -3.5 1.55554 4.50146
    endloop
  endfacet
  facet normal 0 0.906308 0.422619
    outer loop
      vertex 7.5 1.68445 4.225
      vertex -3.5 1.55554 4.50146
      vertex 7.5 1.55554 4.50146
    endloop
  endfacet
  facet normal 0 0.906308 0.422619
    outer loop
      vertex -3.5 1.55554 4.50146
      vertex 7.5 1.68445 4.225
      vertex -3.5 1.68445 4.225
    endloop
  endfacet
  facet normal -0 0.422619 0.906308
    outer loop
      vertex -3.5 2.60146 3.45554
      vertex 7.5 2.325 3.58446
      vertex 7.5 2.60146 3.45554
    endloop
  endfacet
  facet normal 0 0.422619 0.906308
    outer loop
      vertex 7.5 2.325 3.58446
      vertex -3.5 2.60146 3.45554
      vertex -3.5 2.325 3.58446
    endloop
  endfacet
  facet normal 0 0.906308 -0.422619
    outer loop
      vertex 7.5 1.55554 5.69853
      vertex -3.5 1.68445 5.975
      vertex 7.5 1.68445 5.975
    endloop
  endfacet
  facet normal 0 0.906308 -0.422619
    outer loop
      vertex -3.5 1.68445 5.975
      vertex 7.5 1.55554 5.69853
      vertex -3.5 1.55554 5.69853
    endloop
  endfacet
  facet normal 0 0.996195 0.087156
    outer loop
      vertex 7.5 1.47659 4.79611
      vertex -3.5 1.45 5.1
      vertex 7.5 1.45 5.1
    endloop
  endfacet
  facet normal 0 0.996195 0.087156
    outer loop
      vertex -3.5 1.45 5.1
      vertex 7.5 1.47659 4.79611
      vertex -3.5 1.47659 4.79611
    endloop
  endfacet
  facet normal 0 0.996195 -0.087156
    outer loop
      vertex 7.5 1.45 5.1
      vertex -3.5 1.47659 5.40388
      vertex 7.5 1.47659 5.40388
    endloop
  endfacet
  facet normal 0 0.996195 -0.087156
    outer loop
      vertex -3.5 1.47659 5.40388
      vertex 7.5 1.45 5.1
      vertex -3.5 1.45 5.1
    endloop
  endfacet
  facet normal 0 0.573576 -0.819152
    outer loop
      vertex -3.5 2.07512 6.44058
      vertex 7.5 2.325 6.61554
      vertex 7.5 2.07512 6.44058
    endloop
  endfacet
  facet normal 0 0.573576 -0.819152
    outer loop
      vertex 7.5 2.325 6.61554
      vertex -3.5 2.07512 6.44058
      vertex -3.5 2.325 6.61554
    endloop
  endfacet
  facet normal 0 0.707108 0.707105
    outer loop
      vertex 7.5 2.07512 3.75942
      vertex -3.5 1.85942 3.97512
      vertex 7.5 1.85942 3.97512
    endloop
  endfacet
  facet normal 0 0.707108 0.707105
    outer loop
      vertex -3.5 1.85942 3.97512
      vertex 7.5 2.07512 3.75942
      vertex -3.5 2.07512 3.75942
    endloop
  endfacet
  facet normal 0 0.965926 -0.258817
    outer loop
      vertex 7.5 1.47659 5.40388
      vertex -3.5 1.55554 5.69853
      vertex 7.5 1.55554 5.69853
    endloop
  endfacet
  facet normal 0 0.965926 -0.258817
    outer loop
      vertex -3.5 1.55554 5.69853
      vertex 7.5 1.47659 5.40388
      vertex -3.5 1.47659 5.40388
    endloop
  endfacet
endsolid OpenSCAD_Model
