<?xml version="1.0" standalone="no"?>
<!DOCTYPE svg PUBLIC "-//W3C//DTD SVG 1.1//EN" "http://www.w3.org/Graphics/SVG/1.1/DTD/svg11.dtd">
<svg width="120mm" height="70mm" viewBox="-60 -35 120 70" xmlns="http://www.w3.org/2000/svg" version="1.1">
<title>OpenSCAD Model</title>
<path d="
M 49.5418,-30.3589 L 48.2723,-31.7919 L 46,-32.5 L -46,-32.5 L -47.8589,-32.0418 L -49.2919,-30.7723
 L -50,-28.5 L -50,28.5 L -49.5418,30.3589 L -48.2723,31.7919 L -46,32.5 L 46,32.5
 L 47.8589,32.0418 L 49.2919,30.7723 L 50,28.5 L 50,-28.5 z
M -37.5579,-24.3484 L -37.621,-24.0519 L -37.7443,-23.775 L -37.9224,-23.5298 L -38.1477,-23.3269 L -38.4102,-23.1754
 L -38.6985,-23.0817 L -39,-23.05 L -39.3015,-23.0817 L -39.5898,-23.1754 L -39.8523,-23.3269 L -40.0775,-23.5298
 L -40.2557,-23.775 L -40.379,-24.0519 L -40.442,-24.3484 L -40.442,-24.6516 L -40.379,-24.9481 L -40.2557,-25.225
 L -40.0775,-25.4702 L -39.8523,-25.6731 L -39.5898,-25.8246 L -39.3015,-25.9183 L -39,-25.95 L -38.6985,-25.9183
 L -38.4102,-25.8246 L -38.1477,-25.6731 L -37.9224,-25.4702 L -37.7443,-25.225 L -37.621,-24.9481 L -37.5579,-24.6516
 z
M -37.5579,24.6516 L -37.621,24.9481 L -37.7443,25.225 L -37.9224,25.4702 L -38.1477,25.6731 L -38.4102,25.8246
 L -38.6985,25.9183 L -39,25.95 L -39.3015,25.9183 L -39.5898,25.8246 L -39.8523,25.6731 L -40.0775,25.4702
 L -40.2557,25.225 L -40.379,24.9481 L -40.442,24.6516 L -40.442,24.3484 L -40.379,24.0519 L -40.2557,23.775
 L -40.0775,23.5298 L -39.8523,23.3269 L -39.5898,23.1754 L -39.3015,23.0817 L -39,23.05 L -38.6985,23.0817
 L -38.4102,23.1754 L -38.1477,23.3269 L -37.9224,23.5298 L -37.7443,23.775 L -37.621,24.0519 L -37.5579,24.3484
 z
M 20.442,-24.3484 L 20.379,-24.0519 L 20.2557,-23.775 L 20.0775,-23.5298 L 19.8523,-23.3269 L 19.5898,-23.1754
 L 19.3015,-23.0817 L 19,-23.05 L 18.6985,-23.0817 L 18.4102,-23.1754 L 18.1477,-23.3269 L 17.9224,-23.5298
 L 17.7443,-23.775 L 17.621,-24.0519 L 17.5579,-24.3484 L 17.5579,-24.6516 L 17.621,-24.9481 L 17.7443,-25.225
 L 17.9224,-25.4702 L 18.1477,-25.6731 L 18.4102,-25.8246 L 18.6985,-25.9183 L 19,-25.95 L 19.3015,-25.9183
 L 19.5898,-25.8246 L 19.8523,-25.6731 L 20.0775,-25.4702 L 20.2557,-25.225 L 20.379,-24.9481 L 20.442,-24.6516
 z
M 20.442,24.6516 L 20.379,24.9481 L 20.2557,25.225 L 20.0775,25.4702 L 19.8523,25.6731 L 19.5898,25.8246
 L 19.3015,25.9183 L 19,25.95 L 18.6985,25.9183 L 18.4102,25.8246 L 18.1477,25.6731 L 17.9224,25.4702
 L 17.7443,25.225 L 17.621,24.9481 L 17.5579,24.6516 L 17.5579,24.3484 L 17.621,24.0519 L 17.7443,23.775
 L 17.9224,23.5298 L 18.1477,23.3269 L 18.4102,23.1754 L 18.6985,23.0817 L 19,23.05 L 19.3015,23.0817
 L 19.5898,23.1754 L 19.8523,23.3269 L 20.0775,23.5298 L 20.2557,23.775 L 20.379,24.0519 L 20.442,24.3484
 z
" stroke="black" fill="lightgray" stroke-width="0.5"/></svg>
