<?xml version="1.0" standalone="no"?>
<!DOCTYPE svg PUBLIC "-//W3C//DTD SVG 1.1//EN" "http://www.w3.org/Graphics/SVG/1.1/DTD/svg11.dtd">
<svg width="120mm" height="70mm" viewBox="-60 -35 120 70" xmlns="http://www.w3.org/2000/svg" version="1.1">
<title>OpenSCAD Model</title>
<path d="
M 49.5418,-30.3589 L 48.2723,-31.7919 L 46,-32.5 L -46,-32.5 L -47.8589,-32.0418 L -49.2919,-30.7723
 L -50,-28.5 L -50,28.5 L -49.5418,30.3589 L -48.2723,31.7919 L -46,32.5 L 46,32.5
 L 47.8589,32.0418 L 49.2919,30.7723 L 50,28.5 L 50,-28.5 z
M -37.2596,-24.3171 L -37.3356,-23.9592 L -37.4845,-23.625 L -37.6995,-23.329 L -37.9714,-23.0842 L -38.2882,-22.9013
 L -38.6362,-22.7882 L -39,-22.75 L -39.3638,-22.7882 L -39.7118,-22.9013 L -40.0286,-23.0842 L -40.3005,-23.329
 L -40.5155,-23.625 L -40.6643,-23.9592 L -40.7404,-24.3171 L -40.7404,-24.6829 L -40.6643,-25.0408 L -40.5155,-25.375
 L -40.3005,-25.671 L -40.0286,-25.9158 L -39.7118,-26.0987 L -39.3638,-26.2117 L -39,-26.25 L -38.6362,-26.2117
 L -38.2882,-26.0987 L -37.9714,-25.9158 L -37.6995,-25.671 L -37.4845,-25.375 L -37.3356,-25.0408 L -37.2596,-24.6829
 z
M -37.2596,24.6829 L -37.3356,25.0408 L -37.4845,25.375 L -37.6995,25.671 L -37.9714,25.9158 L -38.2882,26.0987
 L -38.6362,26.2117 L -39,26.25 L -39.3638,26.2117 L -39.7118,26.0987 L -40.0286,25.9158 L -40.3005,25.671
 L -40.5155,25.375 L -40.6643,25.0408 L -40.7404,24.6829 L -40.7404,24.3171 L -40.6643,23.9592 L -40.5155,23.625
 L -40.3005,23.329 L -40.0286,23.0842 L -39.7118,22.9013 L -39.3638,22.7882 L -39,22.75 L -38.6362,22.7882
 L -38.2882,22.9013 L -37.9714,23.0842 L -37.6995,23.329 L -37.4845,23.625 L -37.3356,23.9592 L -37.2596,24.3171
 z
M 20.7404,-24.3171 L 20.6643,-23.9592 L 20.5155,-23.625 L 20.3005,-23.329 L 20.0286,-23.0842 L 19.7118,-22.9013
 L 19.3638,-22.7882 L 19,-22.75 L 18.6362,-22.7882 L 18.2882,-22.9013 L 17.9714,-23.0842 L 17.6995,-23.329
 L 17.4845,-23.625 L 17.3356,-23.9592 L 17.2596,-24.3171 L 17.2596,-24.6829 L 17.3356,-25.0408 L 17.4845,-25.375
 L 17.6995,-25.671 L 17.9714,-25.9158 L 18.2882,-26.0987 L 18.6362,-26.2117 L 19,-26.25 L 19.3638,-26.2117
 L 19.7118,-26.0987 L 20.0286,-25.9158 L 20.3005,-25.671 L 20.5155,-25.375 L 20.6643,-25.0408 L 20.7404,-24.6829
 z
M 20.7404,24.6829 L 20.6643,25.0408 L 20.5155,25.375 L 20.3005,25.671 L 20.0286,25.9158 L 19.7118,26.0987
 L 19.3638,26.2117 L 19,26.25 L 18.6362,26.2117 L 18.2882,26.0987 L 17.9714,25.9158 L 17.6995,25.671
 L 17.4845,25.375 L 17.3356,25.0408 L 17.2596,24.6829 L 17.2596,24.3171 L 17.3356,23.9592 L 17.4845,23.625
 L 17.6995,23.329 L 17.9714,23.0842 L 18.2882,22.9013 L 18.6362,22.7882 L 19,22.75 L 19.3638,22.7882
 L 19.7118,22.9013 L 20.0286,23.0842 L 20.3005,23.329 L 20.5155,23.625 L 20.6643,23.9592 L 20.7404,24.3171
 z
" stroke="black" fill="lightgray" stroke-width="0.5"/></svg>
