solid OpenSCAD_Model
  facet normal -1 0 0
    outer loop
      vertex -2.6 5.71126 -4.6572
      vertex -2.6 5.75 5.1
      vertex -2.6 5.75 -5.1
    endloop
  endfacet
  facet normal -1 0 0
    outer loop
      vertex -2.6 5.71126 -4.6572
      vertex -2.6 5.71126 4.6572
      vertex -2.6 5.75 5.1
    endloop
  endfacet
  facet normal -1 0 0
    outer loop
      vertex -2.6 5.59622 -4.22785
      vertex -2.6 5.71126 4.6572
      vertex -2.6 5.71126 -4.6572
    endloop
  endfacet
  facet normal -1 0 0
    outer loop
      vertex -2.6 5.59622 -4.22785
      vertex -2.6 5.59622 4.22785
      vertex -2.6 5.71126 4.6572
    endloop
  endfacet
  facet normal -1 0 0
    outer loop
      vertex -2.6 5.40836 -3.825
      vertex -2.6 5.59622 4.22785
      vertex -2.6 5.59622 -4.22785
    endloop
  endfacet
  facet normal -1 0 0
    outer loop
      vertex -2.6 5.40836 -3.825
      vertex -2.6 5.40836 3.825
      vertex -2.6 5.59622 4.22785
    endloop
  endfacet
  facet normal -1 0 0
    outer loop
      vertex -2.6 5.15341 -3.46089
      vertex -2.6 5.40836 3.825
      vertex -2.6 5.40836 -3.825
    endloop
  endfacet
  facet normal -1 0 0
    outer loop
      vertex -2.6 5.15341 -3.46089
      vertex -2.6 5.15341 3.46089
      vertex -2.6 5.40836 3.825
    endloop
  endfacet
  facet normal -1 0 0
    outer loop
      vertex -2.6 4.83911 -3.14659
      vertex -2.6 5.15341 3.46089
      vertex -2.6 5.15341 -3.46089
    endloop
  endfacet
  facet normal -1 0 0
    outer loop
      vertex -2.6 4.83911 -3.14659
      vertex -2.6 4.83911 3.14659
      vertex -2.6 5.15341 3.46089
    endloop
  endfacet
  facet normal -1 0 0
    outer loop
      vertex -2.6 4.475 -2.89163
      vertex -2.6 4.83911 3.14659
      vertex -2.6 4.83911 -3.14659
    endloop
  endfacet
  facet normal -1 0 0
    outer loop
      vertex -2.6 4.475 -2.89163
      vertex -2.6 4.475 2.89163
      vertex -2.6 4.83911 3.14659
    endloop
  endfacet
  facet normal -1 0 0
    outer loop
      vertex -2.6 4.07215 -2.70378
      vertex -2.6 4.475 2.89163
      vertex -2.6 4.475 -2.89163
    endloop
  endfacet
  facet normal -1 0 0
    outer loop
      vertex -2.6 4.07215 -2.70378
      vertex -2.6 4.07215 2.70378
      vertex -2.6 4.475 2.89163
    endloop
  endfacet
  facet normal -1 0 0
    outer loop
      vertex -2.6 3.6428 -2.58874
      vertex -2.6 4.07215 2.70378
      vertex -2.6 4.07215 -2.70378
    endloop
  endfacet
  facet normal -1 0 0
    outer loop
      vertex -2.6 3.6428 -2.58874
      vertex -2.6 3.6428 2.58874
      vertex -2.6 4.07215 2.70378
    endloop
  endfacet
  facet normal -1 0 0
    outer loop
      vertex -2.6 3.2 -2.55
      vertex -2.6 3.6428 2.58874
      vertex -2.6 3.6428 -2.58874
    endloop
  endfacet
  facet normal -1 0 0
    outer loop
      vertex -2.6 3.2 -2.55
      vertex -2.6 3.2 2.55
      vertex -2.6 3.6428 2.58874
    endloop
  endfacet
  facet normal -1 0 0
    outer loop
      vertex -2.6 2.7572 -2.58874
      vertex -2.6 3.2 2.55
      vertex -2.6 3.2 -2.55
    endloop
  endfacet
  facet normal -1 0 0
    outer loop
      vertex -2.6 2.7572 -2.58874
      vertex -2.6 2.7572 2.58874
      vertex -2.6 3.2 2.55
    endloop
  endfacet
  facet normal -1 0 0
    outer loop
      vertex -2.6 2.32785 -2.70378
      vertex -2.6 2.7572 2.58874
      vertex -2.6 2.7572 -2.58874
    endloop
  endfacet
  facet normal -1 0 0
    outer loop
      vertex -2.6 2.32785 -2.70378
      vertex -2.6 2.32785 2.70378
      vertex -2.6 2.7572 2.58874
    endloop
  endfacet
  facet normal -1 0 0
    outer loop
      vertex -2.6 1.925 -2.89163
      vertex -2.6 2.32785 2.70378
      vertex -2.6 2.32785 -2.70378
    endloop
  endfacet
  facet normal -1 0 0
    outer loop
      vertex -2.6 1.925 -2.89163
      vertex -2.6 1.925 2.89163
      vertex -2.6 2.32785 2.70378
    endloop
  endfacet
  facet normal -1 0 0
    outer loop
      vertex -2.6 1.56089 -3.14659
      vertex -2.6 1.925 2.89163
      vertex -2.6 1.925 -2.89163
    endloop
  endfacet
  facet normal -1 0 0
    outer loop
      vertex -2.6 1.56089 -3.14659
      vertex -2.6 1.56089 3.14659
      vertex -2.6 1.925 2.89163
    endloop
  endfacet
  facet normal -1 0 0
    outer loop
      vertex -2.6 1.24659 -3.46089
      vertex -2.6 1.56089 3.14659
      vertex -2.6 1.56089 -3.14659
    endloop
  endfacet
  facet normal -1 0 0
    outer loop
      vertex -2.6 1.24659 -3.46089
      vertex -2.6 1.24659 3.46089
      vertex -2.6 1.56089 3.14659
    endloop
  endfacet
  facet normal -1 0 0
    outer loop
      vertex -2.6 1 -3.81305
      vertex -2.6 1.24659 3.46089
      vertex -2.6 1.24659 -3.46089
    endloop
  endfacet
  facet normal -1 -0 0
    outer loop
      vertex -2.6 1.24659 3.46089
      vertex -2.6 1 -3.81305
      vertex -2.6 1 3.81305
    endloop
  endfacet
  facet normal -1 0 0
    outer loop
      vertex -2.6 6 -10
      vertex -2.6 5.75 -5.1
      vertex -2.6 6 10
    endloop
  endfacet
  facet normal -1 0 0
    outer loop
      vertex -2.6 6 -10
      vertex -2.6 5.71126 -5.5428
      vertex -2.6 5.75 -5.1
    endloop
  endfacet
  facet normal -1 0 0
    outer loop
      vertex -2.6 6 -10
      vertex -2.6 5.59622 -5.97215
      vertex -2.6 5.71126 -5.5428
    endloop
  endfacet
  facet normal -1 0 0
    outer loop
      vertex -2.6 6 -10
      vertex -2.6 5.44124 -6.3045
      vertex -2.6 5.59622 -5.97215
    endloop
  endfacet
  facet normal -1 0 0
    outer loop
      vertex -2.6 6 -10
      vertex -2.6 5.40836 -6.375
      vertex -2.6 5.44124 -6.3045
    endloop
  endfacet
  facet normal -1 0 0
    outer loop
      vertex -2.6 6 -10
      vertex -2.6 5.36375 -6.43872
      vertex -2.6 5.40836 -6.375
    endloop
  endfacet
  facet normal -1 0 0
    outer loop
      vertex -2.6 6 -10
      vertex -2.6 5.15341 -6.73911
      vertex -2.6 5.36375 -6.43872
    endloop
  endfacet
  facet normal -1 0 0
    outer loop
      vertex -2.6 6 -10
      vertex -2.6 4.83911 -7.05341
      vertex -2.6 5.15341 -6.73911
    endloop
  endfacet
  facet normal -1 0 0
    outer loop
      vertex -2.6 6 -10
      vertex -2.6 4.475 -7.30836
      vertex -2.6 4.83911 -7.05341
    endloop
  endfacet
  facet normal -1 0 0
    outer loop
      vertex -2.6 6 -10
      vertex -2.6 4.07215 -7.49622
      vertex -2.6 4.475 -7.30836
    endloop
  endfacet
  facet normal -1 0 0
    outer loop
      vertex -2.6 6 -10
      vertex -2.6 3.6428 -7.61126
      vertex -2.6 4.07215 -7.49622
    endloop
  endfacet
  facet normal -1 0 0
    outer loop
      vertex -2.6 6 -10
      vertex -2.6 3.2 -7.65
      vertex -2.6 3.6428 -7.61126
    endloop
  endfacet
  facet normal -1 0 0
    outer loop
      vertex -2.6 6 -10
      vertex -2.6 2.7572 -7.61126
      vertex -2.6 3.2 -7.65
    endloop
  endfacet
  facet normal -1 0 0
    outer loop
      vertex -2.6 1 -8
      vertex -2.6 2.7572 -7.61126
      vertex -2.6 6 -10
    endloop
  endfacet
  facet normal -1 -0 0
    outer loop
      vertex -2.6 2.7572 -7.61126
      vertex -2.6 1 -8
      vertex -2.6 2.32785 -7.49622
    endloop
  endfacet
  facet normal -1 -0 0
    outer loop
      vertex -2.6 1.56089 -7.05341
      vertex -2.6 1 -8
      vertex -2.6 1.24659 -6.73911
    endloop
  endfacet
  facet normal -1 -0 0
    outer loop
      vertex -2.6 1.925 -7.30836
      vertex -2.6 1 -8
      vertex -2.6 1.56089 -7.05341
    endloop
  endfacet
  facet normal -1 -0 0
    outer loop
      vertex -2.6 2.32785 -7.49622
      vertex -2.6 1 -8
      vertex -2.6 1.925 -7.30836
    endloop
  endfacet
  facet normal -1 0 0
    outer loop
      vertex -2.6 -6 -10
      vertex -2.6 1 -8
      vertex -2.6 6 -10
    endloop
  endfacet
  facet normal -1 -0 0
    outer loop
      vertex -2.6 1 -8
      vertex -2.6 -6 -10
      vertex -2.6 -6 -8
    endloop
  endfacet
  facet normal -1 0 0
    outer loop
      vertex -2.6 5.75 5.1
      vertex -2.6 6 10
      vertex -2.6 5.75 -5.1
    endloop
  endfacet
  facet normal -1 0 0
    outer loop
      vertex -2.6 5.71126 5.5428
      vertex -2.6 6 10
      vertex -2.6 5.75 5.1
    endloop
  endfacet
  facet normal -1 0 0
    outer loop
      vertex -2.6 5.59622 5.97215
      vertex -2.6 6 10
      vertex -2.6 5.71126 5.5428
    endloop
  endfacet
  facet normal -1 0 0
    outer loop
      vertex -2.6 5.56334 6.04265
      vertex -2.6 6 10
      vertex -2.6 5.59622 5.97215
    endloop
  endfacet
  facet normal -1 0 0
    outer loop
      vertex -2.6 5.40836 6.375
      vertex -2.6 6 10
      vertex -2.6 5.56334 6.04265
    endloop
  endfacet
  facet normal -1 0 0
    outer loop
      vertex -2.6 5.19803 6.67539
      vertex -2.6 6 10
      vertex -2.6 5.40836 6.375
    endloop
  endfacet
  facet normal -1 0 0
    outer loop
      vertex -2.6 5.15341 6.73911
      vertex -2.6 6 10
      vertex -2.6 5.19803 6.67539
    endloop
  endfacet
  facet normal -1 0 0
    outer loop
      vertex -2.6 4.83911 7.05341
      vertex -2.6 6 10
      vertex -2.6 5.15341 6.73911
    endloop
  endfacet
  facet normal -1 0 0
    outer loop
      vertex -2.6 4.475 7.30836
      vertex -2.6 6 10
      vertex -2.6 4.83911 7.05341
    endloop
  endfacet
  facet normal -1 0 0
    outer loop
      vertex -2.6 4.07215 7.49622
      vertex -2.6 6 10
      vertex -2.6 4.475 7.30836
    endloop
  endfacet
  facet normal -1 0 0
    outer loop
      vertex -2.6 3.6428 7.61126
      vertex -2.6 6 10
      vertex -2.6 4.07215 7.49622
    endloop
  endfacet
  facet normal -1 0 0
    outer loop
      vertex -2.6 3.2 7.65
      vertex -2.6 6 10
      vertex -2.6 3.6428 7.61126
    endloop
  endfacet
  facet normal -1 0 0
    outer loop
      vertex -2.6 2.7572 7.61126
      vertex -2.6 6 10
      vertex -2.6 3.2 7.65
    endloop
  endfacet
  facet normal -1 0 0
    outer loop
      vertex -2.6 1 8
      vertex -2.6 2.7572 7.61126
      vertex -2.6 2.32785 7.49622
    endloop
  endfacet
  facet normal -1 0 0
    outer loop
      vertex -2.6 1 8
      vertex -2.6 2.32785 7.49622
      vertex -2.6 1.925 7.30836
    endloop
  endfacet
  facet normal -1 0 0
    outer loop
      vertex -2.6 1 8
      vertex -2.6 1.24659 6.73911
      vertex -2.6 1 6.38695
    endloop
  endfacet
  facet normal -1 0 0
    outer loop
      vertex -2.6 1 8
      vertex -2.6 1.56089 7.05341
      vertex -2.6 1.24659 6.73911
    endloop
  endfacet
  facet normal -1 0 0
    outer loop
      vertex -2.6 1 8
      vertex -2.6 1.925 7.30836
      vertex -2.6 1.56089 7.05341
    endloop
  endfacet
  facet normal -1 0 0
    outer loop
      vertex -2.6 2.7572 7.61126
      vertex -2.6 1 8
      vertex -2.6 6 10
    endloop
  endfacet
  facet normal -1 0 0
    outer loop
      vertex -2.6 -6 10
      vertex -2.6 1 8
      vertex -2.6 -6 8
    endloop
  endfacet
  facet normal -1 0 0
    outer loop
      vertex -2.6 1 8
      vertex -2.6 -6 10
      vertex -2.6 6 10
    endloop
  endfacet
  facet normal -1 -0 0
    outer loop
      vertex -2.6 1.24659 -6.73911
      vertex -2.6 1 -8
      vertex -2.6 1 -6.38695
    endloop
  endfacet
  facet normal -0 0 1
    outer loop
      vertex 1.42797 -1.74821 10
      vertex 2.6 -6 10
      vertex 2.6 6 10
    endloop
  endfacet
  facet normal 0 0 1
    outer loop
      vertex 2.6 -6 10
      vertex 1.42797 -1.74821 10
      vertex 1.45 -2 10
    endloop
  endfacet
  facet normal 0 0 1
    outer loop
      vertex 2.6 6 10
      vertex 1.36255 -1.50407 10
      vertex 1.42797 -1.74821 10
    endloop
  endfacet
  facet normal 0 0 1
    outer loop
      vertex 2.6 6 10
      vertex 1.25574 -1.275 10
      vertex 1.36255 -1.50407 10
    endloop
  endfacet
  facet normal 0 0 1
    outer loop
      vertex 2.6 6 10
      vertex 1.11076 -1.06796 10
      vertex 1.25574 -1.275 10
    endloop
  endfacet
  facet normal 0 0 1
    outer loop
      vertex 2.6 6 10
      vertex 0.932041 -0.889235 10
      vertex 1.11076 -1.06796 10
    endloop
  endfacet
  facet normal 0 0 1
    outer loop
      vertex 2.6 6 10
      vertex 0.724999 -0.744263 10
      vertex 0.932041 -0.889235 10
    endloop
  endfacet
  facet normal 0 0 1
    outer loop
      vertex 2.6 6 10
      vertex 0.495929 -0.637445 10
      vertex 0.724999 -0.744263 10
    endloop
  endfacet
  facet normal 0 0 1
    outer loop
      vertex 2.6 6 10
      vertex 0.251789 -0.572028 10
      vertex 0.495929 -0.637445 10
    endloop
  endfacet
  facet normal 0 0 1
    outer loop
      vertex 2.6 6 10
      vertex 0 -0.549999 10
      vertex 0.251789 -0.572028 10
    endloop
  endfacet
  facet normal -0 0 1
    outer loop
      vertex -2.6 6 10
      vertex 0 -0.549999 10
      vertex 2.6 6 10
    endloop
  endfacet
  facet normal 0 0 1
    outer loop
      vertex 0 -0.549999 10
      vertex -2.6 6 10
      vertex -0.251789 -0.572028 10
    endloop
  endfacet
  facet normal 0 0 1
    outer loop
      vertex -0.251789 -0.572028 10
      vertex -2.6 6 10
      vertex -0.495929 -0.637445 10
    endloop
  endfacet
  facet normal 0 0 1
    outer loop
      vertex -0.495929 -0.637445 10
      vertex -2.6 6 10
      vertex -0.724999 -0.744263 10
    endloop
  endfacet
  facet normal 0 0 1
    outer loop
      vertex -0.724999 -0.744263 10
      vertex -2.6 6 10
      vertex -0.932041 -0.889235 10
    endloop
  endfacet
  facet normal 0 0 1
    outer loop
      vertex -0.932041 -0.889235 10
      vertex -2.6 6 10
      vertex -1.11076 -1.06796 10
    endloop
  endfacet
  facet normal 0 0 1
    outer loop
      vertex -2.6 -6 10
      vertex -1.42797 -1.74821 10
      vertex -2.6 6 10
    endloop
  endfacet
  facet normal 0 0 1
    outer loop
      vertex -1.36255 -1.50407 10
      vertex -2.6 6 10
      vertex -1.42797 -1.74821 10
    endloop
  endfacet
  facet normal 0 0 1
    outer loop
      vertex -1.25574 -1.275 10
      vertex -2.6 6 10
      vertex -1.36255 -1.50407 10
    endloop
  endfacet
  facet normal 0 0 1
    outer loop
      vertex -1.11076 -1.06796 10
      vertex -2.6 6 10
      vertex -1.25574 -1.275 10
    endloop
  endfacet
  facet normal -0 0 1
    outer loop
      vertex 1.42797 -2.25179 10
      vertex 2.6 -6 10
      vertex 1.45 -2 10
    endloop
  endfacet
  facet normal -0 0 1
    outer loop
      vertex 1.36255 -2.49593 10
      vertex 2.6 -6 10
      vertex 1.42797 -2.25179 10
    endloop
  endfacet
  facet normal -0 0 1
    outer loop
      vertex 1.25574 -2.725 10
      vertex 2.6 -6 10
      vertex 1.36255 -2.49593 10
    endloop
  endfacet
  facet normal -0 0 1
    outer loop
      vertex 1.11076 -2.93204 10
      vertex 2.6 -6 10
      vertex 1.25574 -2.725 10
    endloop
  endfacet
  facet normal -0 0 1
    outer loop
      vertex 0.932041 -3.11076 10
      vertex 2.6 -6 10
      vertex 1.11076 -2.93204 10
    endloop
  endfacet
  facet normal -0 0 1
    outer loop
      vertex 0.724999 -3.25574 10
      vertex 2.6 -6 10
      vertex 0.932041 -3.11076 10
    endloop
  endfacet
  facet normal -0 0 1
    outer loop
      vertex 0.495929 -3.36255 10
      vertex 2.6 -6 10
      vertex 0.724999 -3.25574 10
    endloop
  endfacet
  facet normal -0 0 1
    outer loop
      vertex 0.251789 -3.42797 10
      vertex 2.6 -6 10
      vertex 0.495929 -3.36255 10
    endloop
  endfacet
  facet normal -0 0 1
    outer loop
      vertex 0 -3.45 10
      vertex 2.6 -6 10
      vertex 0.251789 -3.42797 10
    endloop
  endfacet
  facet normal 0 0 1
    outer loop
      vertex -2.6 -6 10
      vertex 0 -3.45 10
      vertex -0.251789 -3.42797 10
    endloop
  endfacet
  facet normal 0 0 1
    outer loop
      vertex -2.6 -6 10
      vertex -0.251789 -3.42797 10
      vertex -0.495929 -3.36255 10
    endloop
  endfacet
  facet normal 0 0 1
    outer loop
      vertex -2.6 -6 10
      vertex -0.495929 -3.36255 10
      vertex -0.724999 -3.25574 10
    endloop
  endfacet
  facet normal 0 0 1
    outer loop
      vertex -2.6 -6 10
      vertex -0.724999 -3.25574 10
      vertex -0.932041 -3.11076 10
    endloop
  endfacet
  facet normal 0 0 1
    outer loop
      vertex -1.42797 -1.74821 10
      vertex -2.6 -6 10
      vertex -1.45 -2 10
    endloop
  endfacet
  facet normal 0 0 1
    outer loop
      vertex 0 -3.45 10
      vertex -2.6 -6 10
      vertex 2.6 -6 10
    endloop
  endfacet
  facet normal 0 0 1
    outer loop
      vertex -1.11076 -2.93204 10
      vertex -2.6 -6 10
      vertex -0.932041 -3.11076 10
    endloop
  endfacet
  facet normal 0 0 1
    outer loop
      vertex -1.25574 -2.725 10
      vertex -2.6 -6 10
      vertex -1.11076 -2.93204 10
    endloop
  endfacet
  facet normal 0 0 1
    outer loop
      vertex -1.36255 -2.49593 10
      vertex -2.6 -6 10
      vertex -1.25574 -2.725 10
    endloop
  endfacet
  facet normal 0 0 1
    outer loop
      vertex -1.42797 -2.25179 10
      vertex -2.6 -6 10
      vertex -1.36255 -2.49593 10
    endloop
  endfacet
  facet normal 0 0 1
    outer loop
      vertex -1.45 -2 10
      vertex -2.6 -6 10
      vertex -1.42797 -2.25179 10
    endloop
  endfacet
  facet normal 1 -0 0
    outer loop
      vertex 2.6 5.71126 4.6572
      vertex 2.6 5.75 -5.1
      vertex 2.6 5.75 5.1
    endloop
  endfacet
  facet normal 1 0 0
    outer loop
      vertex 2.6 5.71126 4.6572
      vertex 2.6 5.71126 -4.6572
      vertex 2.6 5.75 -5.1
    endloop
  endfacet
  facet normal 1 -0 0
    outer loop
      vertex 2.6 5.59622 4.22785
      vertex 2.6 5.71126 -4.6572
      vertex 2.6 5.71126 4.6572
    endloop
  endfacet
  facet normal 1 0 0
    outer loop
      vertex 2.6 5.59622 4.22785
      vertex 2.6 5.59622 -4.22785
      vertex 2.6 5.71126 -4.6572
    endloop
  endfacet
  facet normal 1 -0 0
    outer loop
      vertex 2.6 5.40836 3.825
      vertex 2.6 5.59622 -4.22785
      vertex 2.6 5.59622 4.22785
    endloop
  endfacet
  facet normal 1 0 0
    outer loop
      vertex 2.6 5.40836 3.825
      vertex 2.6 5.40836 -3.825
      vertex 2.6 5.59622 -4.22785
    endloop
  endfacet
  facet normal 1 -0 0
    outer loop
      vertex 2.6 5.15341 3.46089
      vertex 2.6 5.40836 -3.825
      vertex 2.6 5.40836 3.825
    endloop
  endfacet
  facet normal 1 0 0
    outer loop
      vertex 2.6 5.15341 3.46089
      vertex 2.6 5.15341 -3.46089
      vertex 2.6 5.40836 -3.825
    endloop
  endfacet
  facet normal 1 -0 0
    outer loop
      vertex 2.6 4.83911 3.14659
      vertex 2.6 5.15341 -3.46089
      vertex 2.6 5.15341 3.46089
    endloop
  endfacet
  facet normal 1 0 0
    outer loop
      vertex 2.6 4.83911 3.14659
      vertex 2.6 4.83911 -3.14659
      vertex 2.6 5.15341 -3.46089
    endloop
  endfacet
  facet normal 1 -0 0
    outer loop
      vertex 2.6 4.475 2.89163
      vertex 2.6 4.83911 -3.14659
      vertex 2.6 4.83911 3.14659
    endloop
  endfacet
  facet normal 1 0 0
    outer loop
      vertex 2.6 4.475 2.89163
      vertex 2.6 4.475 -2.89163
      vertex 2.6 4.83911 -3.14659
    endloop
  endfacet
  facet normal 1 -0 0
    outer loop
      vertex 2.6 4.07215 2.70378
      vertex 2.6 4.475 -2.89163
      vertex 2.6 4.475 2.89163
    endloop
  endfacet
  facet normal 1 0 0
    outer loop
      vertex 2.6 4.07215 2.70378
      vertex 2.6 4.07215 -2.70378
      vertex 2.6 4.475 -2.89163
    endloop
  endfacet
  facet normal 1 -0 0
    outer loop
      vertex 2.6 3.6428 2.58874
      vertex 2.6 4.07215 -2.70378
      vertex 2.6 4.07215 2.70378
    endloop
  endfacet
  facet normal 1 0 0
    outer loop
      vertex 2.6 3.6428 2.58874
      vertex 2.6 3.6428 -2.58874
      vertex 2.6 4.07215 -2.70378
    endloop
  endfacet
  facet normal 1 -0 0
    outer loop
      vertex 2.6 3.2 2.55
      vertex 2.6 3.6428 -2.58874
      vertex 2.6 3.6428 2.58874
    endloop
  endfacet
  facet normal 1 0 0
    outer loop
      vertex 2.6 3.2 2.55
      vertex 2.6 3.2 -2.55
      vertex 2.6 3.6428 -2.58874
    endloop
  endfacet
  facet normal 1 0 0
    outer loop
      vertex 2.6 2.7572 2.58874
      vertex 2.6 3.2 -2.55
      vertex 2.6 3.2 2.55
    endloop
  endfacet
  facet normal 1 0 0
    outer loop
      vertex 2.6 2.7572 2.58874
      vertex 2.6 2.7572 -2.58874
      vertex 2.6 3.2 -2.55
    endloop
  endfacet
  facet normal 1 0 0
    outer loop
      vertex 2.6 2.32785 2.70378
      vertex 2.6 2.7572 -2.58874
      vertex 2.6 2.7572 2.58874
    endloop
  endfacet
  facet normal 1 0 0
    outer loop
      vertex 2.6 2.32785 2.70378
      vertex 2.6 2.32785 -2.70378
      vertex 2.6 2.7572 -2.58874
    endloop
  endfacet
  facet normal 1 0 0
    outer loop
      vertex 2.6 1.925 2.89163
      vertex 2.6 2.32785 -2.70378
      vertex 2.6 2.32785 2.70378
    endloop
  endfacet
  facet normal 1 0 0
    outer loop
      vertex 2.6 1.925 2.89163
      vertex 2.6 1.925 -2.89163
      vertex 2.6 2.32785 -2.70378
    endloop
  endfacet
  facet normal 1 0 0
    outer loop
      vertex 2.6 1.56089 3.14659
      vertex 2.6 1.925 -2.89163
      vertex 2.6 1.925 2.89163
    endloop
  endfacet
  facet normal 1 0 0
    outer loop
      vertex 2.6 1.56089 3.14659
      vertex 2.6 1.56089 -3.14659
      vertex 2.6 1.925 -2.89163
    endloop
  endfacet
  facet normal 1 0 0
    outer loop
      vertex 2.6 1.24659 3.46089
      vertex 2.6 1.56089 -3.14659
      vertex 2.6 1.56089 3.14659
    endloop
  endfacet
  facet normal 1 0 0
    outer loop
      vertex 2.6 1.24659 3.46089
      vertex 2.6 1.24659 -3.46089
      vertex 2.6 1.56089 -3.14659
    endloop
  endfacet
  facet normal 1 0 0
    outer loop
      vertex 2.6 1 3.81305
      vertex 2.6 1.24659 -3.46089
      vertex 2.6 1.24659 3.46089
    endloop
  endfacet
  facet normal 1 0 0
    outer loop
      vertex 2.6 1.24659 -3.46089
      vertex 2.6 1 3.81305
      vertex 2.6 1 -3.81305
    endloop
  endfacet
  facet normal 1 0 0
    outer loop
      vertex 2.6 6 10
      vertex 2.6 5.75 5.1
      vertex 2.6 6 -10
    endloop
  endfacet
  facet normal 1 0 0
    outer loop
      vertex 2.6 6 10
      vertex 2.6 5.71126 5.5428
      vertex 2.6 5.75 5.1
    endloop
  endfacet
  facet normal 1 0 0
    outer loop
      vertex 2.6 6 10
      vertex 2.6 5.59622 5.97215
      vertex 2.6 5.71126 5.5428
    endloop
  endfacet
  facet normal 1 0 0
    outer loop
      vertex 2.6 6 10
      vertex 2.6 5.44124 6.3045
      vertex 2.6 5.59622 5.97215
    endloop
  endfacet
  facet normal 1 0 0
    outer loop
      vertex 2.6 6 10
      vertex 2.6 5.40836 6.375
      vertex 2.6 5.44124 6.3045
    endloop
  endfacet
  facet normal 1 0 0
    outer loop
      vertex 2.6 6 10
      vertex 2.6 5.36375 6.43872
      vertex 2.6 5.40836 6.375
    endloop
  endfacet
  facet normal 1 0 0
    outer loop
      vertex 2.6 6 10
      vertex 2.6 5.15341 6.73911
      vertex 2.6 5.36375 6.43872
    endloop
  endfacet
  facet normal 1 0 0
    outer loop
      vertex 2.6 6 10
      vertex 2.6 4.83911 7.05341
      vertex 2.6 5.15341 6.73911
    endloop
  endfacet
  facet normal 1 0 0
    outer loop
      vertex 2.6 6 10
      vertex 2.6 4.475 7.30836
      vertex 2.6 4.83911 7.05341
    endloop
  endfacet
  facet normal 1 0 0
    outer loop
      vertex 2.6 6 10
      vertex 2.6 4.07215 7.49622
      vertex 2.6 4.475 7.30836
    endloop
  endfacet
  facet normal 1 0 0
    outer loop
      vertex 2.6 6 10
      vertex 2.6 3.6428 7.61126
      vertex 2.6 4.07215 7.49622
    endloop
  endfacet
  facet normal 1 0 0
    outer loop
      vertex 2.6 6 10
      vertex 2.6 3.2 7.65
      vertex 2.6 3.6428 7.61126
    endloop
  endfacet
  facet normal 1 0 0
    outer loop
      vertex 2.6 6 10
      vertex 2.6 2.7572 7.61126
      vertex 2.6 3.2 7.65
    endloop
  endfacet
  facet normal 1 -0 0
    outer loop
      vertex 2.6 1 8
      vertex 2.6 2.7572 7.61126
      vertex 2.6 6 10
    endloop
  endfacet
  facet normal 1 0 0
    outer loop
      vertex 2.6 2.7572 7.61126
      vertex 2.6 1 8
      vertex 2.6 2.32785 7.49622
    endloop
  endfacet
  facet normal 1 0 0
    outer loop
      vertex 2.6 1.56089 7.05341
      vertex 2.6 1 8
      vertex 2.6 1.24659 6.73911
    endloop
  endfacet
  facet normal 1 0 0
    outer loop
      vertex 2.6 1.925 7.30836
      vertex 2.6 1 8
      vertex 2.6 1.56089 7.05341
    endloop
  endfacet
  facet normal 1 0 0
    outer loop
      vertex 2.6 2.32785 7.49622
      vertex 2.6 1 8
      vertex 2.6 1.925 7.30836
    endloop
  endfacet
  facet normal 1 -0 0
    outer loop
      vertex 2.6 -6 10
      vertex 2.6 1 8
      vertex 2.6 6 10
    endloop
  endfacet
  facet normal 1 0 0
    outer loop
      vertex 2.6 1 8
      vertex 2.6 -6 10
      vertex 2.6 -6 8
    endloop
  endfacet
  facet normal 1 -0 0
    outer loop
      vertex 2.6 5.75 -5.1
      vertex 2.6 6 -10
      vertex 2.6 5.75 5.1
    endloop
  endfacet
  facet normal 1 -0 0
    outer loop
      vertex 2.6 5.71126 -5.5428
      vertex 2.6 6 -10
      vertex 2.6 5.75 -5.1
    endloop
  endfacet
  facet normal 1 -0 0
    outer loop
      vertex 2.6 5.59622 -5.97215
      vertex 2.6 6 -10
      vertex 2.6 5.71126 -5.5428
    endloop
  endfacet
  facet normal 1 -0 0
    outer loop
      vertex 2.6 5.56334 -6.04265
      vertex 2.6 6 -10
      vertex 2.6 5.59622 -5.97215
    endloop
  endfacet
  facet normal 1 -0 0
    outer loop
      vertex 2.6 5.40836 -6.375
      vertex 2.6 6 -10
      vertex 2.6 5.56334 -6.04265
    endloop
  endfacet
  facet normal 1 -0 0
    outer loop
      vertex 2.6 5.19803 -6.67539
      vertex 2.6 6 -10
      vertex 2.6 5.40836 -6.375
    endloop
  endfacet
  facet normal 1 -0 0
    outer loop
      vertex 2.6 5.15341 -6.73911
      vertex 2.6 6 -10
      vertex 2.6 5.19803 -6.67539
    endloop
  endfacet
  facet normal 1 -0 0
    outer loop
      vertex 2.6 4.83911 -7.05341
      vertex 2.6 6 -10
      vertex 2.6 5.15341 -6.73911
    endloop
  endfacet
  facet normal 1 -0 0
    outer loop
      vertex 2.6 4.475 -7.30836
      vertex 2.6 6 -10
      vertex 2.6 4.83911 -7.05341
    endloop
  endfacet
  facet normal 1 -0 0
    outer loop
      vertex 2.6 4.07215 -7.49622
      vertex 2.6 6 -10
      vertex 2.6 4.475 -7.30836
    endloop
  endfacet
  facet normal 1 -0 0
    outer loop
      vertex 2.6 3.6428 -7.61126
      vertex 2.6 6 -10
      vertex 2.6 4.07215 -7.49622
    endloop
  endfacet
  facet normal 1 -0 0
    outer loop
      vertex 2.6 3.2 -7.65
      vertex 2.6 6 -10
      vertex 2.6 3.6428 -7.61126
    endloop
  endfacet
  facet normal 1 0 0
    outer loop
      vertex 2.6 2.7572 -7.61126
      vertex 2.6 6 -10
      vertex 2.6 3.2 -7.65
    endloop
  endfacet
  facet normal 1 0 0
    outer loop
      vertex 2.6 1 -8
      vertex 2.6 2.7572 -7.61126
      vertex 2.6 2.32785 -7.49622
    endloop
  endfacet
  facet normal 1 0 0
    outer loop
      vertex 2.6 1 -8
      vertex 2.6 2.32785 -7.49622
      vertex 2.6 1.925 -7.30836
    endloop
  endfacet
  facet normal 1 0 0
    outer loop
      vertex 2.6 1 -8
      vertex 2.6 1.24659 -6.73911
      vertex 2.6 1 -6.38695
    endloop
  endfacet
  facet normal 1 0 0
    outer loop
      vertex 2.6 1 -8
      vertex 2.6 1.56089 -7.05341
      vertex 2.6 1.24659 -6.73911
    endloop
  endfacet
  facet normal 1 0 0
    outer loop
      vertex 2.6 1 -8
      vertex 2.6 1.925 -7.30836
      vertex 2.6 1.56089 -7.05341
    endloop
  endfacet
  facet normal 1 0 0
    outer loop
      vertex 2.6 2.7572 -7.61126
      vertex 2.6 1 -8
      vertex 2.6 6 -10
    endloop
  endfacet
  facet normal 1 0 0
    outer loop
      vertex 2.6 -6 -10
      vertex 2.6 1 -8
      vertex 2.6 -6 -8
    endloop
  endfacet
  facet normal 1 0 0
    outer loop
      vertex 2.6 1 -8
      vertex 2.6 -6 -10
      vertex 2.6 6 -10
    endloop
  endfacet
  facet normal 1 0 0
    outer loop
      vertex 2.6 1.24659 6.73911
      vertex 2.6 1 8
      vertex 2.6 1 6.38695
    endloop
  endfacet
  facet normal 0 1 -0
    outer loop
      vertex 2.6 6 -10
      vertex -2.6 6 10
      vertex 2.6 6 10
    endloop
  endfacet
  facet normal 0 1 0
    outer loop
      vertex -2.6 6 10
      vertex 2.6 6 -10
      vertex -2.6 6 -10
    endloop
  endfacet
  facet normal 0 0 -1
    outer loop
      vertex 1.42797 -1.74821 -10
      vertex 2.6 -6 -10
      vertex 1.45 -2 -10
    endloop
  endfacet
  facet normal 0 0 -1
    outer loop
      vertex 2.6 -6 -10
      vertex 1.42797 -2.25179 -10
      vertex 1.45 -2 -10
    endloop
  endfacet
  facet normal 0 0 -1
    outer loop
      vertex 2.6 -6 -10
      vertex 1.36255 -2.49593 -10
      vertex 1.42797 -2.25179 -10
    endloop
  endfacet
  facet normal 0 0 -1
    outer loop
      vertex 2.6 -6 -10
      vertex 1.25574 -2.725 -10
      vertex 1.36255 -2.49593 -10
    endloop
  endfacet
  facet normal 0 0 -1
    outer loop
      vertex 2.6 -6 -10
      vertex 1.11076 -2.93204 -10
      vertex 1.25574 -2.725 -10
    endloop
  endfacet
  facet normal 0 0 -1
    outer loop
      vertex 2.6 -6 -10
      vertex 0.932041 -3.11076 -10
      vertex 1.11076 -2.93204 -10
    endloop
  endfacet
  facet normal 0 0 -1
    outer loop
      vertex 2.6 -6 -10
      vertex 0.724999 -3.25574 -10
      vertex 0.932041 -3.11076 -10
    endloop
  endfacet
  facet normal 0 0 -1
    outer loop
      vertex 2.6 -6 -10
      vertex 0.495929 -3.36255 -10
      vertex 0.724999 -3.25574 -10
    endloop
  endfacet
  facet normal 0 0 -1
    outer loop
      vertex 2.6 -6 -10
      vertex 0.251789 -3.42797 -10
      vertex 0.495929 -3.36255 -10
    endloop
  endfacet
  facet normal 0 0 -1
    outer loop
      vertex 2.6 -6 -10
      vertex 0 -3.45 -10
      vertex 0.251789 -3.42797 -10
    endloop
  endfacet
  facet normal 0 0 -1
    outer loop
      vertex -2.6 -6 -10
      vertex 0 -3.45 -10
      vertex 2.6 -6 -10
    endloop
  endfacet
  facet normal -0 0 -1
    outer loop
      vertex 0 -3.45 -10
      vertex -2.6 -6 -10
      vertex -0.251789 -3.42797 -10
    endloop
  endfacet
  facet normal -0 0 -1
    outer loop
      vertex -0.251789 -3.42797 -10
      vertex -2.6 -6 -10
      vertex -0.495929 -3.36255 -10
    endloop
  endfacet
  facet normal -0 0 -1
    outer loop
      vertex -0.495929 -3.36255 -10
      vertex -2.6 -6 -10
      vertex -0.724999 -3.25574 -10
    endloop
  endfacet
  facet normal -0 0 -1
    outer loop
      vertex -1.42797 -2.25179 -10
      vertex -2.6 -6 -10
      vertex -1.45 -2 -10
    endloop
  endfacet
  facet normal -0 0 -1
    outer loop
      vertex -1.36255 -2.49593 -10
      vertex -2.6 -6 -10
      vertex -1.42797 -2.25179 -10
    endloop
  endfacet
  facet normal -0 0 -1
    outer loop
      vertex -1.25574 -2.725 -10
      vertex -2.6 -6 -10
      vertex -1.36255 -2.49593 -10
    endloop
  endfacet
  facet normal -0 0 -1
    outer loop
      vertex -1.11076 -2.93204 -10
      vertex -2.6 -6 -10
      vertex -1.25574 -2.725 -10
    endloop
  endfacet
  facet normal -0 0 -1
    outer loop
      vertex -0.932041 -3.11076 -10
      vertex -2.6 -6 -10
      vertex -1.11076 -2.93204 -10
    endloop
  endfacet
  facet normal -0 0 -1
    outer loop
      vertex -0.724999 -3.25574 -10
      vertex -2.6 -6 -10
      vertex -0.932041 -3.11076 -10
    endloop
  endfacet
  facet normal 0 0 -1
    outer loop
      vertex 2.6 -6 -10
      vertex 1.42797 -1.74821 -10
      vertex 2.6 6 -10
    endloop
  endfacet
  facet normal 0 0 -1
    outer loop
      vertex 1.36255 -1.50407 -10
      vertex 2.6 6 -10
      vertex 1.42797 -1.74821 -10
    endloop
  endfacet
  facet normal 0 0 -1
    outer loop
      vertex 1.25574 -1.275 -10
      vertex 2.6 6 -10
      vertex 1.36255 -1.50407 -10
    endloop
  endfacet
  facet normal 0 0 -1
    outer loop
      vertex 1.11076 -1.06796 -10
      vertex 2.6 6 -10
      vertex 1.25574 -1.275 -10
    endloop
  endfacet
  facet normal 0 0 -1
    outer loop
      vertex 0.932041 -0.889235 -10
      vertex 2.6 6 -10
      vertex 1.11076 -1.06796 -10
    endloop
  endfacet
  facet normal 0 0 -1
    outer loop
      vertex 0.724999 -0.744263 -10
      vertex 2.6 6 -10
      vertex 0.932041 -0.889235 -10
    endloop
  endfacet
  facet normal 0 0 -1
    outer loop
      vertex 0.495929 -0.637445 -10
      vertex 2.6 6 -10
      vertex 0.724999 -0.744263 -10
    endloop
  endfacet
  facet normal 0 0 -1
    outer loop
      vertex 0.251789 -0.572028 -10
      vertex 2.6 6 -10
      vertex 0.495929 -0.637445 -10
    endloop
  endfacet
  facet normal 0 0 -1
    outer loop
      vertex 0 -0.549999 -10
      vertex 2.6 6 -10
      vertex 0.251789 -0.572028 -10
    endloop
  endfacet
  facet normal 0 0 -1
    outer loop
      vertex -2.6 6 -10
      vertex 0 -0.549999 -10
      vertex -0.251789 -0.572028 -10
    endloop
  endfacet
  facet normal 0 0 -1
    outer loop
      vertex -2.6 6 -10
      vertex -0.251789 -0.572028 -10
      vertex -0.495929 -0.637445 -10
    endloop
  endfacet
  facet normal 0 0 -1
    outer loop
      vertex -2.6 6 -10
      vertex -0.495929 -0.637445 -10
      vertex -0.724999 -0.744263 -10
    endloop
  endfacet
  facet normal 0 0 -1
    outer loop
      vertex -2.6 6 -10
      vertex -0.724999 -0.744263 -10
      vertex -0.932041 -0.889235 -10
    endloop
  endfacet
  facet normal 0 0 -1
    outer loop
      vertex -2.6 6 -10
      vertex -0.932041 -0.889235 -10
      vertex -1.11076 -1.06796 -10
    endloop
  endfacet
  facet normal 0 0 -1
    outer loop
      vertex -2.6 6 -10
      vertex -1.11076 -1.06796 -10
      vertex -1.25574 -1.275 -10
    endloop
  endfacet
  facet normal 0 0 -1
    outer loop
      vertex -2.6 -6 -10
      vertex -1.42797 -1.74821 -10
      vertex -1.45 -2 -10
    endloop
  endfacet
  facet normal 0 0 -1
    outer loop
      vertex -2.6 6 -10
      vertex -1.42797 -1.74821 -10
      vertex -2.6 -6 -10
    endloop
  endfacet
  facet normal 0 0 -1
    outer loop
      vertex 0 -0.549999 -10
      vertex -2.6 6 -10
      vertex 2.6 6 -10
    endloop
  endfacet
  facet normal 0 0 -1
    outer loop
      vertex -1.36255 -1.50407 -10
      vertex -2.6 6 -10
      vertex -1.25574 -1.275 -10
    endloop
  endfacet
  facet normal 0 0 -1
    outer loop
      vertex -1.42797 -1.74821 -10
      vertex -2.6 6 -10
      vertex -1.36255 -1.50407 -10
    endloop
  endfacet
  facet normal 0 -1 0
    outer loop
      vertex -2.6 -6 8
      vertex 2.6 -6 10
      vertex -2.6 -6 10
    endloop
  endfacet
  facet normal 0 -1 -0
    outer loop
      vertex 2.6 -6 10
      vertex -2.6 -6 8
      vertex 2.6 -6 8
    endloop
  endfacet
  facet normal 0 -1 0
    outer loop
      vertex -2.6 -6 -10
      vertex 2.6 -6 -8
      vertex -2.6 -6 -8
    endloop
  endfacet
  facet normal 0 -1 -0
    outer loop
      vertex 2.6 -6 -8
      vertex -2.6 -6 -10
      vertex 2.6 -6 -10
    endloop
  endfacet
  facet normal 0 0 -1
    outer loop
      vertex 2.6 -6 8
      vertex 1.45 -2 8
      vertex 2.6 1 8
    endloop
  endfacet
  facet normal 0 0 -1
    outer loop
      vertex 2.6 -6 8
      vertex 1.42797 -2.25179 8
      vertex 1.45 -2 8
    endloop
  endfacet
  facet normal 0 0 -1
    outer loop
      vertex 2.6 -6 8
      vertex 1.36255 -2.49593 8
      vertex 1.42797 -2.25179 8
    endloop
  endfacet
  facet normal 0 0 -1
    outer loop
      vertex 2.6 -6 8
      vertex 1.25574 -2.725 8
      vertex 1.36255 -2.49593 8
    endloop
  endfacet
  facet normal 0 0 -1
    outer loop
      vertex 2.6 -6 8
      vertex 1.11076 -2.93204 8
      vertex 1.25574 -2.725 8
    endloop
  endfacet
  facet normal 0 0 -1
    outer loop
      vertex 2.6 -6 8
      vertex 0.932041 -3.11076 8
      vertex 1.11076 -2.93204 8
    endloop
  endfacet
  facet normal 0 0 -1
    outer loop
      vertex 2.6 -6 8
      vertex 0.724999 -3.25574 8
      vertex 0.932041 -3.11076 8
    endloop
  endfacet
  facet normal 0 0 -1
    outer loop
      vertex 2.6 -6 8
      vertex 0.495929 -3.36255 8
      vertex 0.724999 -3.25574 8
    endloop
  endfacet
  facet normal 0 0 -1
    outer loop
      vertex 2.6 -6 8
      vertex 0.251789 -3.42797 8
      vertex 0.495929 -3.36255 8
    endloop
  endfacet
  facet normal 0 0 -1
    outer loop
      vertex 2.6 -6 8
      vertex 0 -3.45 8
      vertex 0.251789 -3.42797 8
    endloop
  endfacet
  facet normal 0 0 -1
    outer loop
      vertex -2.6 -6 8
      vertex 0 -3.45 8
      vertex 2.6 -6 8
    endloop
  endfacet
  facet normal -0 0 -1
    outer loop
      vertex 0 -3.45 8
      vertex -2.6 -6 8
      vertex -0.251789 -3.42797 8
    endloop
  endfacet
  facet normal -0 0 -1
    outer loop
      vertex -0.251789 -3.42797 8
      vertex -2.6 -6 8
      vertex -0.495929 -3.36255 8
    endloop
  endfacet
  facet normal -0 0 -1
    outer loop
      vertex -0.495929 -3.36255 8
      vertex -2.6 -6 8
      vertex -0.724999 -3.25574 8
    endloop
  endfacet
  facet normal -0 0 -1
    outer loop
      vertex -1.42797 -2.25179 8
      vertex -2.6 -6 8
      vertex -1.45 -2 8
    endloop
  endfacet
  facet normal -0 0 -1
    outer loop
      vertex -1.36255 -2.49593 8
      vertex -2.6 -6 8
      vertex -1.42797 -2.25179 8
    endloop
  endfacet
  facet normal -0 0 -1
    outer loop
      vertex -1.25574 -2.725 8
      vertex -2.6 -6 8
      vertex -1.36255 -2.49593 8
    endloop
  endfacet
  facet normal -0 0 -1
    outer loop
      vertex -1.11076 -2.93204 8
      vertex -2.6 -6 8
      vertex -1.25574 -2.725 8
    endloop
  endfacet
  facet normal -0 0 -1
    outer loop
      vertex -0.932041 -3.11076 8
      vertex -2.6 -6 8
      vertex -1.11076 -2.93204 8
    endloop
  endfacet
  facet normal -0 0 -1
    outer loop
      vertex -0.724999 -3.25574 8
      vertex -2.6 -6 8
      vertex -0.932041 -3.11076 8
    endloop
  endfacet
  facet normal 0 0 -1
    outer loop
      vertex 1.42797 -1.74821 8
      vertex 2.6 1 8
      vertex 1.45 -2 8
    endloop
  endfacet
  facet normal 0 0 -1
    outer loop
      vertex 1.36255 -1.50407 8
      vertex 2.6 1 8
      vertex 1.42797 -1.74821 8
    endloop
  endfacet
  facet normal 0 0 -1
    outer loop
      vertex 1.25574 -1.275 8
      vertex 2.6 1 8
      vertex 1.36255 -1.50407 8
    endloop
  endfacet
  facet normal 0 0 -1
    outer loop
      vertex 1.11076 -1.06796 8
      vertex 2.6 1 8
      vertex 1.25574 -1.275 8
    endloop
  endfacet
  facet normal 0 0 -1
    outer loop
      vertex 0.932041 -0.889235 8
      vertex 2.6 1 8
      vertex 1.11076 -1.06796 8
    endloop
  endfacet
  facet normal 0 0 -1
    outer loop
      vertex 0.724999 -0.744263 8
      vertex 2.6 1 8
      vertex 0.932041 -0.889235 8
    endloop
  endfacet
  facet normal 0 0 -1
    outer loop
      vertex 0.495929 -0.637445 8
      vertex 2.6 1 8
      vertex 0.724999 -0.744263 8
    endloop
  endfacet
  facet normal 0 0 -1
    outer loop
      vertex 0.251789 -0.572028 8
      vertex 2.6 1 8
      vertex 0.495929 -0.637445 8
    endloop
  endfacet
  facet normal 0 0 -1
    outer loop
      vertex 0 -0.549999 8
      vertex 2.6 1 8
      vertex 0.251789 -0.572028 8
    endloop
  endfacet
  facet normal 0 0 -1
    outer loop
      vertex -2.6 1 8
      vertex 0 -0.549999 8
      vertex -0.251789 -0.572028 8
    endloop
  endfacet
  facet normal 0 0 -1
    outer loop
      vertex -2.6 1 8
      vertex -0.251789 -0.572028 8
      vertex -0.495929 -0.637445 8
    endloop
  endfacet
  facet normal 0 0 -1
    outer loop
      vertex -2.6 1 8
      vertex -0.495929 -0.637445 8
      vertex -0.724999 -0.744263 8
    endloop
  endfacet
  facet normal 0 0 -1
    outer loop
      vertex -2.6 1 8
      vertex -1.45 -2 8
      vertex -2.6 -6 8
    endloop
  endfacet
  facet normal 0 0 -1
    outer loop
      vertex -1.45 -2 8
      vertex -2.6 1 8
      vertex -1.42797 -1.74821 8
    endloop
  endfacet
  facet normal 0 0 -1
    outer loop
      vertex 0 -0.549999 8
      vertex -2.6 1 8
      vertex 2.6 1 8
    endloop
  endfacet
  facet normal 0 0 -1
    outer loop
      vertex -0.932041 -0.889235 8
      vertex -2.6 1 8
      vertex -0.724999 -0.744263 8
    endloop
  endfacet
  facet normal 0 0 -1
    outer loop
      vertex -1.11076 -1.06796 8
      vertex -2.6 1 8
      vertex -0.932041 -0.889235 8
    endloop
  endfacet
  facet normal 0 0 -1
    outer loop
      vertex -1.25574 -1.275 8
      vertex -2.6 1 8
      vertex -1.11076 -1.06796 8
    endloop
  endfacet
  facet normal 0 0 -1
    outer loop
      vertex -1.36255 -1.50407 8
      vertex -2.6 1 8
      vertex -1.25574 -1.275 8
    endloop
  endfacet
  facet normal 0 0 -1
    outer loop
      vertex -1.42797 -1.74821 8
      vertex -2.6 1 8
      vertex -1.36255 -1.50407 8
    endloop
  endfacet
  facet normal 0 0 1
    outer loop
      vertex 2.6 1 -8
      vertex 1.45 -2 -8
      vertex 2.6 -6 -8
    endloop
  endfacet
  facet normal 0 0 1
    outer loop
      vertex 2.6 1 -8
      vertex 1.42797 -1.74821 -8
      vertex 1.45 -2 -8
    endloop
  endfacet
  facet normal 0 0 1
    outer loop
      vertex 2.6 1 -8
      vertex 1.36255 -1.50407 -8
      vertex 1.42797 -1.74821 -8
    endloop
  endfacet
  facet normal 0 0 1
    outer loop
      vertex 2.6 1 -8
      vertex 1.25574 -1.275 -8
      vertex 1.36255 -1.50407 -8
    endloop
  endfacet
  facet normal 0 0 1
    outer loop
      vertex 2.6 1 -8
      vertex 1.11076 -1.06796 -8
      vertex 1.25574 -1.275 -8
    endloop
  endfacet
  facet normal 0 0 1
    outer loop
      vertex 2.6 1 -8
      vertex 0.932041 -0.889235 -8
      vertex 1.11076 -1.06796 -8
    endloop
  endfacet
  facet normal 0 0 1
    outer loop
      vertex 2.6 1 -8
      vertex 0.724999 -0.744263 -8
      vertex 0.932041 -0.889235 -8
    endloop
  endfacet
  facet normal 0 0 1
    outer loop
      vertex 2.6 1 -8
      vertex 0.495929 -0.637445 -8
      vertex 0.724999 -0.744263 -8
    endloop
  endfacet
  facet normal 0 0 1
    outer loop
      vertex 2.6 1 -8
      vertex 0.251789 -0.572028 -8
      vertex 0.495929 -0.637445 -8
    endloop
  endfacet
  facet normal 0 0 1
    outer loop
      vertex 2.6 1 -8
      vertex 0 -0.549999 -8
      vertex 0.251789 -0.572028 -8
    endloop
  endfacet
  facet normal -0 0 1
    outer loop
      vertex -2.6 1 -8
      vertex 0 -0.549999 -8
      vertex 2.6 1 -8
    endloop
  endfacet
  facet normal 0 0 1
    outer loop
      vertex 0 -0.549999 -8
      vertex -2.6 1 -8
      vertex -0.251789 -0.572028 -8
    endloop
  endfacet
  facet normal 0 0 1
    outer loop
      vertex -0.251789 -0.572028 -8
      vertex -2.6 1 -8
      vertex -0.495929 -0.637445 -8
    endloop
  endfacet
  facet normal 0 0 1
    outer loop
      vertex -1.42797 -1.74821 -8
      vertex -2.6 1 -8
      vertex -1.45 -2 -8
    endloop
  endfacet
  facet normal 0 0 1
    outer loop
      vertex -1.36255 -1.50407 -8
      vertex -2.6 1 -8
      vertex -1.42797 -1.74821 -8
    endloop
  endfacet
  facet normal 0 0 1
    outer loop
      vertex -1.25574 -1.275 -8
      vertex -2.6 1 -8
      vertex -1.36255 -1.50407 -8
    endloop
  endfacet
  facet normal 0 0 1
    outer loop
      vertex -1.11076 -1.06796 -8
      vertex -2.6 1 -8
      vertex -1.25574 -1.275 -8
    endloop
  endfacet
  facet normal 0 0 1
    outer loop
      vertex -0.932041 -0.889235 -8
      vertex -2.6 1 -8
      vertex -1.11076 -1.06796 -8
    endloop
  endfacet
  facet normal 0 0 1
    outer loop
      vertex -0.724999 -0.744263 -8
      vertex -2.6 1 -8
      vertex -0.932041 -0.889235 -8
    endloop
  endfacet
  facet normal 0 0 1
    outer loop
      vertex -0.495929 -0.637445 -8
      vertex -2.6 1 -8
      vertex -0.724999 -0.744263 -8
    endloop
  endfacet
  facet normal -0 0 1
    outer loop
      vertex 1.42797 -2.25179 -8
      vertex 2.6 -6 -8
      vertex 1.45 -2 -8
    endloop
  endfacet
  facet normal -0 0 1
    outer loop
      vertex 1.36255 -2.49593 -8
      vertex 2.6 -6 -8
      vertex 1.42797 -2.25179 -8
    endloop
  endfacet
  facet normal -0 0 1
    outer loop
      vertex 1.25574 -2.725 -8
      vertex 2.6 -6 -8
      vertex 1.36255 -2.49593 -8
    endloop
  endfacet
  facet normal -0 0 1
    outer loop
      vertex 1.11076 -2.93204 -8
      vertex 2.6 -6 -8
      vertex 1.25574 -2.725 -8
    endloop
  endfacet
  facet normal -0 0 1
    outer loop
      vertex 0.932041 -3.11076 -8
      vertex 2.6 -6 -8
      vertex 1.11076 -2.93204 -8
    endloop
  endfacet
  facet normal -0 0 1
    outer loop
      vertex 0.724999 -3.25574 -8
      vertex 2.6 -6 -8
      vertex 0.932041 -3.11076 -8
    endloop
  endfacet
  facet normal -0 0 1
    outer loop
      vertex 0.495929 -3.36255 -8
      vertex 2.6 -6 -8
      vertex 0.724999 -3.25574 -8
    endloop
  endfacet
  facet normal -0 0 1
    outer loop
      vertex 0.251789 -3.42797 -8
      vertex 2.6 -6 -8
      vertex 0.495929 -3.36255 -8
    endloop
  endfacet
  facet normal -0 0 1
    outer loop
      vertex 0 -3.45 -8
      vertex 2.6 -6 -8
      vertex 0.251789 -3.42797 -8
    endloop
  endfacet
  facet normal 0 0 1
    outer loop
      vertex -2.6 -6 -8
      vertex 0 -3.45 -8
      vertex -0.251789 -3.42797 -8
    endloop
  endfacet
  facet normal 0 0 1
    outer loop
      vertex -2.6 -6 -8
      vertex -0.251789 -3.42797 -8
      vertex -0.495929 -3.36255 -8
    endloop
  endfacet
  facet normal 0 0 1
    outer loop
      vertex -2.6 -6 -8
      vertex -0.495929 -3.36255 -8
      vertex -0.724999 -3.25574 -8
    endloop
  endfacet
  facet normal 0 0 1
    outer loop
      vertex -2.6 -6 -8
      vertex -0.724999 -3.25574 -8
      vertex -0.932041 -3.11076 -8
    endloop
  endfacet
  facet normal 0 0 1
    outer loop
      vertex -2.6 -6 -8
      vertex -1.45 -2 -8
      vertex -2.6 1 -8
    endloop
  endfacet
  facet normal 0 0 1
    outer loop
      vertex -1.45 -2 -8
      vertex -2.6 -6 -8
      vertex -1.42797 -2.25179 -8
    endloop
  endfacet
  facet normal 0 0 1
    outer loop
      vertex 0 -3.45 -8
      vertex -2.6 -6 -8
      vertex 2.6 -6 -8
    endloop
  endfacet
  facet normal 0 0 1
    outer loop
      vertex -1.11076 -2.93204 -8
      vertex -2.6 -6 -8
      vertex -0.932041 -3.11076 -8
    endloop
  endfacet
  facet normal 0 0 1
    outer loop
      vertex -1.25574 -2.725 -8
      vertex -2.6 -6 -8
      vertex -1.11076 -2.93204 -8
    endloop
  endfacet
  facet normal 0 0 1
    outer loop
      vertex -1.36255 -2.49593 -8
      vertex -2.6 -6 -8
      vertex -1.25574 -2.725 -8
    endloop
  endfacet
  facet normal 0 0 1
    outer loop
      vertex -1.42797 -2.25179 -8
      vertex -2.6 -6 -8
      vertex -1.36255 -2.49593 -8
    endloop
  endfacet
  facet normal 0 -1 0
    outer loop
      vertex -2.6 1 6.38695
      vertex 2.6 1 8
      vertex -2.6 1 8
    endloop
  endfacet
  facet normal 0 -1 -0
    outer loop
      vertex 2.6 1 8
      vertex -2.6 1 6.38695
      vertex 2.6 1 6.38695
    endloop
  endfacet
  facet normal 0 -1 0
    outer loop
      vertex -2.6 1 -8
      vertex 2.6 1 -6.38695
      vertex -2.6 1 -6.38695
    endloop
  endfacet
  facet normal 0 -1 -0
    outer loop
      vertex 2.6 1 -6.38695
      vertex -2.6 1 -8
      vertex 2.6 1 -8
    endloop
  endfacet
  facet normal 0 -1 0
    outer loop
      vertex -2.6 1 -3.81305
      vertex 2.6 1 3.81305
      vertex -2.6 1 3.81305
    endloop
  endfacet
  facet normal 0 -1 -0
    outer loop
      vertex 2.6 1 3.81305
      vertex -2.6 1 -3.81305
      vertex 2.6 1 -3.81305
    endloop
  endfacet
  facet normal -0.573578 -0.819151 0
    outer loop
      vertex 0.724999 -0.744263 -10
      vertex 0.932041 -0.889235 -8
      vertex 0.724999 -0.744263 -8
    endloop
  endfacet
  facet normal -0.573578 -0.819151 -0
    outer loop
      vertex 0.932041 -0.889235 -8
      vertex 0.724999 -0.744263 -10
      vertex 0.932041 -0.889235 -10
    endloop
  endfacet
  facet normal -0.573578 -0.819151 0
    outer loop
      vertex 0.724999 -0.744263 8
      vertex 0.932041 -0.889235 10
      vertex 0.724999 -0.744263 10
    endloop
  endfacet
  facet normal -0.573578 -0.819151 -0
    outer loop
      vertex 0.932041 -0.889235 10
      vertex 0.724999 -0.744263 8
      vertex 0.932041 -0.889235 8
    endloop
  endfacet
  facet normal -0.996195 0.0871567 0
    outer loop
      vertex 1.42797 -2.25179 -10
      vertex 1.45 -2 -8
      vertex 1.45 -2 -10
    endloop
  endfacet
  facet normal -0.996195 0.0871567 0
    outer loop
      vertex 1.45 -2 -8
      vertex 1.42797 -2.25179 -10
      vertex 1.42797 -2.25179 -8
    endloop
  endfacet
  facet normal -0.996195 0.0871567 0
    outer loop
      vertex 1.42797 -2.25179 8
      vertex 1.45 -2 10
      vertex 1.45 -2 8
    endloop
  endfacet
  facet normal -0.996195 0.0871567 0
    outer loop
      vertex 1.45 -2 10
      vertex 1.42797 -2.25179 8
      vertex 1.42797 -2.25179 10
    endloop
  endfacet
  facet normal 0.25882 -0.965926 0
    outer loop
      vertex -0.495929 -0.637445 -10
      vertex -0.251789 -0.572028 -8
      vertex -0.495929 -0.637445 -8
    endloop
  endfacet
  facet normal 0.25882 -0.965926 0
    outer loop
      vertex -0.251789 -0.572028 -8
      vertex -0.495929 -0.637445 -10
      vertex -0.251789 -0.572028 -10
    endloop
  endfacet
  facet normal 0.25882 -0.965926 0
    outer loop
      vertex -0.495929 -0.637445 8
      vertex -0.251789 -0.572028 10
      vertex -0.495929 -0.637445 10
    endloop
  endfacet
  facet normal 0.25882 -0.965926 0
    outer loop
      vertex -0.251789 -0.572028 10
      vertex -0.495929 -0.637445 8
      vertex -0.251789 -0.572028 8
    endloop
  endfacet
  facet normal 0.819151 -0.573578 0
    outer loop
      vertex -1.25574 -1.275 -8
      vertex -1.11076 -1.06796 -10
      vertex -1.11076 -1.06796 -8
    endloop
  endfacet
  facet normal 0.819151 -0.573578 0
    outer loop
      vertex -1.11076 -1.06796 -10
      vertex -1.25574 -1.275 -8
      vertex -1.25574 -1.275 -10
    endloop
  endfacet
  facet normal 0.819151 -0.573578 0
    outer loop
      vertex -1.25574 -1.275 10
      vertex -1.11076 -1.06796 8
      vertex -1.11076 -1.06796 10
    endloop
  endfacet
  facet normal 0.819151 -0.573578 0
    outer loop
      vertex -1.11076 -1.06796 8
      vertex -1.25574 -1.275 10
      vertex -1.25574 -1.275 8
    endloop
  endfacet
  facet normal -0.707107 0.707107 0
    outer loop
      vertex 0.932041 -3.11076 -10
      vertex 1.11076 -2.93204 -8
      vertex 1.11076 -2.93204 -10
    endloop
  endfacet
  facet normal -0.707107 0.707107 0
    outer loop
      vertex 1.11076 -2.93204 -8
      vertex 0.932041 -3.11076 -10
      vertex 0.932041 -3.11076 -8
    endloop
  endfacet
  facet normal -0.707107 0.707107 0
    outer loop
      vertex 0.932041 -3.11076 8
      vertex 1.11076 -2.93204 10
      vertex 1.11076 -2.93204 8
    endloop
  endfacet
  facet normal -0.707107 0.707107 0
    outer loop
      vertex 1.11076 -2.93204 10
      vertex 0.932041 -3.11076 8
      vertex 0.932041 -3.11076 10
    endloop
  endfacet
  facet normal -0.906308 -0.422618 0
    outer loop
      vertex 1.36255 -1.50407 -10
      vertex 1.25574 -1.275 -8
      vertex 1.25574 -1.275 -10
    endloop
  endfacet
  facet normal -0.906308 -0.422618 0
    outer loop
      vertex 1.25574 -1.275 -8
      vertex 1.36255 -1.50407 -10
      vertex 1.36255 -1.50407 -8
    endloop
  endfacet
  facet normal -0.906308 -0.422618 0
    outer loop
      vertex 1.36255 -1.50407 8
      vertex 1.25574 -1.275 10
      vertex 1.25574 -1.275 8
    endloop
  endfacet
  facet normal -0.906308 -0.422618 0
    outer loop
      vertex 1.25574 -1.275 10
      vertex 1.36255 -1.50407 8
      vertex 1.36255 -1.50407 10
    endloop
  endfacet
  facet normal -0.819151 -0.573578 0
    outer loop
      vertex 1.25574 -1.275 -10
      vertex 1.11076 -1.06796 -8
      vertex 1.11076 -1.06796 -10
    endloop
  endfacet
  facet normal -0.819151 -0.573578 0
    outer loop
      vertex 1.11076 -1.06796 -8
      vertex 1.25574 -1.275 -10
      vertex 1.25574 -1.275 -8
    endloop
  endfacet
  facet normal -0.819151 -0.573578 0
    outer loop
      vertex 1.25574 -1.275 8
      vertex 1.11076 -1.06796 10
      vertex 1.11076 -1.06796 8
    endloop
  endfacet
  facet normal -0.819151 -0.573578 0
    outer loop
      vertex 1.11076 -1.06796 10
      vertex 1.25574 -1.275 8
      vertex 1.25574 -1.275 10
    endloop
  endfacet
  facet normal -0.707107 -0.707107 0
    outer loop
      vertex 1.11076 -1.06796 -10
      vertex 0.932041 -0.889235 -8
      vertex 0.932041 -0.889235 -10
    endloop
  endfacet
  facet normal -0.707107 -0.707107 0
    outer loop
      vertex 0.932041 -0.889235 -8
      vertex 1.11076 -1.06796 -10
      vertex 1.11076 -1.06796 -8
    endloop
  endfacet
  facet normal -0.707107 -0.707107 0
    outer loop
      vertex 1.11076 -1.06796 8
      vertex 0.932041 -0.889235 10
      vertex 0.932041 -0.889235 8
    endloop
  endfacet
  facet normal -0.707107 -0.707107 0
    outer loop
      vertex 0.932041 -0.889235 10
      vertex 1.11076 -1.06796 8
      vertex 1.11076 -1.06796 10
    endloop
  endfacet
  facet normal -0.422618 -0.906308 0
    outer loop
      vertex 0.495929 -0.637445 -10
      vertex 0.724999 -0.744263 -8
      vertex 0.495929 -0.637445 -8
    endloop
  endfacet
  facet normal -0.422618 -0.906308 -0
    outer loop
      vertex 0.724999 -0.744263 -8
      vertex 0.495929 -0.637445 -10
      vertex 0.724999 -0.744263 -10
    endloop
  endfacet
  facet normal -0.422618 -0.906308 0
    outer loop
      vertex 0.495929 -0.637445 8
      vertex 0.724999 -0.744263 10
      vertex 0.495929 -0.637445 10
    endloop
  endfacet
  facet normal -0.422618 -0.906308 -0
    outer loop
      vertex 0.724999 -0.744263 10
      vertex 0.495929 -0.637445 8
      vertex 0.724999 -0.744263 8
    endloop
  endfacet
  facet normal -0.0871567 -0.996195 0
    outer loop
      vertex 0 -0.549999 -10
      vertex 0.251789 -0.572028 -8
      vertex 0 -0.549999 -8
    endloop
  endfacet
  facet normal -0.0871567 -0.996195 -0
    outer loop
      vertex 0.251789 -0.572028 -8
      vertex 0 -0.549999 -10
      vertex 0.251789 -0.572028 -10
    endloop
  endfacet
  facet normal -0.0871567 -0.996195 0
    outer loop
      vertex 0 -0.549999 8
      vertex 0.251789 -0.572028 10
      vertex 0 -0.549999 10
    endloop
  endfacet
  facet normal -0.0871567 -0.996195 -0
    outer loop
      vertex 0.251789 -0.572028 10
      vertex 0 -0.549999 8
      vertex 0.251789 -0.572028 8
    endloop
  endfacet
  facet normal 0.996195 -0.0871567 0
    outer loop
      vertex -1.45 -2 -8
      vertex -1.42797 -1.74821 -10
      vertex -1.42797 -1.74821 -8
    endloop
  endfacet
  facet normal 0.996195 -0.0871567 0
    outer loop
      vertex -1.42797 -1.74821 -10
      vertex -1.45 -2 -8
      vertex -1.45 -2 -10
    endloop
  endfacet
  facet normal 0.996195 -0.0871567 0
    outer loop
      vertex -1.45 -2 10
      vertex -1.42797 -1.74821 8
      vertex -1.42797 -1.74821 10
    endloop
  endfacet
  facet normal 0.996195 -0.0871567 0
    outer loop
      vertex -1.42797 -1.74821 8
      vertex -1.45 -2 10
      vertex -1.45 -2 8
    endloop
  endfacet
  facet normal 0.707107 -0.707107 0
    outer loop
      vertex -1.11076 -1.06796 -8
      vertex -0.932041 -0.889235 -10
      vertex -0.932041 -0.889235 -8
    endloop
  endfacet
  facet normal 0.707107 -0.707107 0
    outer loop
      vertex -0.932041 -0.889235 -10
      vertex -1.11076 -1.06796 -8
      vertex -1.11076 -1.06796 -10
    endloop
  endfacet
  facet normal 0.707107 -0.707107 0
    outer loop
      vertex -1.11076 -1.06796 10
      vertex -0.932041 -0.889235 8
      vertex -0.932041 -0.889235 10
    endloop
  endfacet
  facet normal 0.707107 -0.707107 0
    outer loop
      vertex -0.932041 -0.889235 8
      vertex -1.11076 -1.06796 10
      vertex -1.11076 -1.06796 8
    endloop
  endfacet
  facet normal 0.422618 -0.906308 0
    outer loop
      vertex -0.724999 -0.744263 -10
      vertex -0.495929 -0.637445 -8
      vertex -0.724999 -0.744263 -8
    endloop
  endfacet
  facet normal 0.422618 -0.906308 0
    outer loop
      vertex -0.495929 -0.637445 -8
      vertex -0.724999 -0.744263 -10
      vertex -0.495929 -0.637445 -10
    endloop
  endfacet
  facet normal 0.422618 -0.906308 0
    outer loop
      vertex -0.724999 -0.744263 8
      vertex -0.495929 -0.637445 10
      vertex -0.724999 -0.744263 10
    endloop
  endfacet
  facet normal 0.422618 -0.906308 0
    outer loop
      vertex -0.495929 -0.637445 10
      vertex -0.724999 -0.744263 8
      vertex -0.495929 -0.637445 8
    endloop
  endfacet
  facet normal 0.0871567 -0.996195 0
    outer loop
      vertex -0.251789 -0.572028 -10
      vertex 0 -0.549999 -8
      vertex -0.251789 -0.572028 -8
    endloop
  endfacet
  facet normal 0.0871567 -0.996195 0
    outer loop
      vertex 0 -0.549999 -8
      vertex -0.251789 -0.572028 -10
      vertex 0 -0.549999 -10
    endloop
  endfacet
  facet normal 0.0871567 -0.996195 0
    outer loop
      vertex -0.251789 -0.572028 8
      vertex 0 -0.549999 10
      vertex -0.251789 -0.572028 10
    endloop
  endfacet
  facet normal 0.0871567 -0.996195 0
    outer loop
      vertex 0 -0.549999 10
      vertex -0.251789 -0.572028 8
      vertex 0 -0.549999 8
    endloop
  endfacet
  facet normal 0.573578 -0.819151 0
    outer loop
      vertex -0.932041 -0.889235 -10
      vertex -0.724999 -0.744263 -8
      vertex -0.932041 -0.889235 -8
    endloop
  endfacet
  facet normal 0.573578 -0.819151 0
    outer loop
      vertex -0.724999 -0.744263 -8
      vertex -0.932041 -0.889235 -10
      vertex -0.724999 -0.744263 -10
    endloop
  endfacet
  facet normal 0.573578 -0.819151 0
    outer loop
      vertex -0.932041 -0.889235 8
      vertex -0.724999 -0.744263 10
      vertex -0.932041 -0.889235 10
    endloop
  endfacet
  facet normal 0.573578 -0.819151 0
    outer loop
      vertex -0.724999 -0.744263 10
      vertex -0.932041 -0.889235 8
      vertex -0.724999 -0.744263 8
    endloop
  endfacet
  facet normal -0.996195 -0.0871563 0
    outer loop
      vertex 1.45 -2 -10
      vertex 1.42797 -1.74821 -8
      vertex 1.42797 -1.74821 -10
    endloop
  endfacet
  facet normal -0.996195 -0.0871563 0
    outer loop
      vertex 1.42797 -1.74821 -8
      vertex 1.45 -2 -10
      vertex 1.45 -2 -8
    endloop
  endfacet
  facet normal -0.996195 -0.0871563 0
    outer loop
      vertex 1.45 -2 8
      vertex 1.42797 -1.74821 10
      vertex 1.42797 -1.74821 8
    endloop
  endfacet
  facet normal -0.996195 -0.0871563 0
    outer loop
      vertex 1.42797 -1.74821 10
      vertex 1.45 -2 8
      vertex 1.45 -2 10
    endloop
  endfacet
  facet normal -0.0871567 0.996195 0
    outer loop
      vertex 0.251789 -3.42797 -10
      vertex 0 -3.45 -8
      vertex 0.251789 -3.42797 -8
    endloop
  endfacet
  facet normal -0.0871567 0.996195 0
    outer loop
      vertex 0 -3.45 -8
      vertex 0.251789 -3.42797 -10
      vertex 0 -3.45 -10
    endloop
  endfacet
  facet normal -0.0871567 0.996195 0
    outer loop
      vertex 0.251789 -3.42797 8
      vertex 0 -3.45 10
      vertex 0.251789 -3.42797 10
    endloop
  endfacet
  facet normal -0.0871567 0.996195 0
    outer loop
      vertex 0 -3.45 10
      vertex 0.251789 -3.42797 8
      vertex 0 -3.45 8
    endloop
  endfacet
  facet normal -0.965926 0.25882 0
    outer loop
      vertex 1.36255 -2.49593 -10
      vertex 1.42797 -2.25179 -8
      vertex 1.42797 -2.25179 -10
    endloop
  endfacet
  facet normal -0.965926 0.25882 0
    outer loop
      vertex 1.42797 -2.25179 -8
      vertex 1.36255 -2.49593 -10
      vertex 1.36255 -2.49593 -8
    endloop
  endfacet
  facet normal -0.965926 0.25882 0
    outer loop
      vertex 1.36255 -2.49593 8
      vertex 1.42797 -2.25179 10
      vertex 1.42797 -2.25179 8
    endloop
  endfacet
  facet normal -0.965926 0.25882 0
    outer loop
      vertex 1.42797 -2.25179 10
      vertex 1.36255 -2.49593 8
      vertex 1.36255 -2.49593 10
    endloop
  endfacet
  facet normal -0.422618 0.906308 0
    outer loop
      vertex 0.724999 -3.25574 -10
      vertex 0.495929 -3.36255 -8
      vertex 0.724999 -3.25574 -8
    endloop
  endfacet
  facet normal -0.422618 0.906308 0
    outer loop
      vertex 0.495929 -3.36255 -8
      vertex 0.724999 -3.25574 -10
      vertex 0.495929 -3.36255 -10
    endloop
  endfacet
  facet normal -0.422618 0.906308 0
    outer loop
      vertex 0.724999 -3.25574 8
      vertex 0.495929 -3.36255 10
      vertex 0.724999 -3.25574 10
    endloop
  endfacet
  facet normal -0.422618 0.906308 0
    outer loop
      vertex 0.495929 -3.36255 10
      vertex 0.724999 -3.25574 8
      vertex 0.495929 -3.36255 8
    endloop
  endfacet
  facet normal -0.573578 0.819151 0
    outer loop
      vertex 0.932041 -3.11076 -10
      vertex 0.724999 -3.25574 -8
      vertex 0.932041 -3.11076 -8
    endloop
  endfacet
  facet normal -0.573578 0.819151 0
    outer loop
      vertex 0.724999 -3.25574 -8
      vertex 0.932041 -3.11076 -10
      vertex 0.724999 -3.25574 -10
    endloop
  endfacet
  facet normal -0.573578 0.819151 0
    outer loop
      vertex 0.932041 -3.11076 8
      vertex 0.724999 -3.25574 10
      vertex 0.932041 -3.11076 10
    endloop
  endfacet
  facet normal -0.573578 0.819151 0
    outer loop
      vertex 0.724999 -3.25574 10
      vertex 0.932041 -3.11076 8
      vertex 0.724999 -3.25574 8
    endloop
  endfacet
  facet normal 0.0871567 0.996195 -0
    outer loop
      vertex 0 -3.45 -10
      vertex -0.251789 -3.42797 -8
      vertex 0 -3.45 -8
    endloop
  endfacet
  facet normal 0.0871567 0.996195 0
    outer loop
      vertex -0.251789 -3.42797 -8
      vertex 0 -3.45 -10
      vertex -0.251789 -3.42797 -10
    endloop
  endfacet
  facet normal 0.0871567 0.996195 -0
    outer loop
      vertex 0 -3.45 8
      vertex -0.251789 -3.42797 10
      vertex 0 -3.45 10
    endloop
  endfacet
  facet normal 0.0871567 0.996195 0
    outer loop
      vertex -0.251789 -3.42797 10
      vertex 0 -3.45 8
      vertex -0.251789 -3.42797 8
    endloop
  endfacet
  facet normal 0.707107 0.707107 0
    outer loop
      vertex -0.932041 -3.11076 -8
      vertex -1.11076 -2.93204 -10
      vertex -1.11076 -2.93204 -8
    endloop
  endfacet
  facet normal 0.707107 0.707107 0
    outer loop
      vertex -1.11076 -2.93204 -10
      vertex -0.932041 -3.11076 -8
      vertex -0.932041 -3.11076 -10
    endloop
  endfacet
  facet normal 0.707107 0.707107 0
    outer loop
      vertex -0.932041 -3.11076 10
      vertex -1.11076 -2.93204 8
      vertex -1.11076 -2.93204 10
    endloop
  endfacet
  facet normal 0.707107 0.707107 0
    outer loop
      vertex -1.11076 -2.93204 8
      vertex -0.932041 -3.11076 10
      vertex -0.932041 -3.11076 8
    endloop
  endfacet
  facet normal 0.906308 0.422618 0
    outer loop
      vertex -1.25574 -2.725 -8
      vertex -1.36255 -2.49593 -10
      vertex -1.36255 -2.49593 -8
    endloop
  endfacet
  facet normal 0.906308 0.422618 0
    outer loop
      vertex -1.36255 -2.49593 -10
      vertex -1.25574 -2.725 -8
      vertex -1.25574 -2.725 -10
    endloop
  endfacet
  facet normal 0.906308 0.422618 0
    outer loop
      vertex -1.25574 -2.725 10
      vertex -1.36255 -2.49593 8
      vertex -1.36255 -2.49593 10
    endloop
  endfacet
  facet normal 0.906308 0.422618 0
    outer loop
      vertex -1.36255 -2.49593 8
      vertex -1.25574 -2.725 10
      vertex -1.25574 -2.725 8
    endloop
  endfacet
  facet normal 0.996195 0.0871563 0
    outer loop
      vertex -1.42797 -2.25179 -8
      vertex -1.45 -2 -10
      vertex -1.45 -2 -8
    endloop
  endfacet
  facet normal 0.996195 0.0871563 0
    outer loop
      vertex -1.45 -2 -10
      vertex -1.42797 -2.25179 -8
      vertex -1.42797 -2.25179 -10
    endloop
  endfacet
  facet normal 0.996195 0.0871563 0
    outer loop
      vertex -1.42797 -2.25179 10
      vertex -1.45 -2 8
      vertex -1.45 -2 10
    endloop
  endfacet
  facet normal 0.996195 0.0871563 0
    outer loop
      vertex -1.45 -2 8
      vertex -1.42797 -2.25179 10
      vertex -1.42797 -2.25179 8
    endloop
  endfacet
  facet normal 0.819151 0.573578 0
    outer loop
      vertex -1.11076 -2.93204 -8
      vertex -1.25574 -2.725 -10
      vertex -1.25574 -2.725 -8
    endloop
  endfacet
  facet normal 0.819151 0.573578 0
    outer loop
      vertex -1.25574 -2.725 -10
      vertex -1.11076 -2.93204 -8
      vertex -1.11076 -2.93204 -10
    endloop
  endfacet
  facet normal 0.819151 0.573578 0
    outer loop
      vertex -1.11076 -2.93204 10
      vertex -1.25574 -2.725 8
      vertex -1.25574 -2.725 10
    endloop
  endfacet
  facet normal 0.819151 0.573578 0
    outer loop
      vertex -1.25574 -2.725 8
      vertex -1.11076 -2.93204 10
      vertex -1.11076 -2.93204 8
    endloop
  endfacet
  facet normal -0.965926 -0.25882 0
    outer loop
      vertex 1.42797 -1.74821 -10
      vertex 1.36255 -1.50407 -8
      vertex 1.36255 -1.50407 -10
    endloop
  endfacet
  facet normal -0.965926 -0.25882 0
    outer loop
      vertex 1.36255 -1.50407 -8
      vertex 1.42797 -1.74821 -10
      vertex 1.42797 -1.74821 -8
    endloop
  endfacet
  facet normal -0.965926 -0.25882 0
    outer loop
      vertex 1.42797 -1.74821 8
      vertex 1.36255 -1.50407 10
      vertex 1.36255 -1.50407 8
    endloop
  endfacet
  facet normal -0.965926 -0.25882 0
    outer loop
      vertex 1.36255 -1.50407 10
      vertex 1.42797 -1.74821 8
      vertex 1.42797 -1.74821 10
    endloop
  endfacet
  facet normal -0.25882 -0.965926 0
    outer loop
      vertex 0.251789 -0.572028 -10
      vertex 0.495929 -0.637445 -8
      vertex 0.251789 -0.572028 -8
    endloop
  endfacet
  facet normal -0.25882 -0.965926 -0
    outer loop
      vertex 0.495929 -0.637445 -8
      vertex 0.251789 -0.572028 -10
      vertex 0.495929 -0.637445 -10
    endloop
  endfacet
  facet normal -0.25882 -0.965926 0
    outer loop
      vertex 0.251789 -0.572028 8
      vertex 0.495929 -0.637445 10
      vertex 0.251789 -0.572028 10
    endloop
  endfacet
  facet normal -0.25882 -0.965926 -0
    outer loop
      vertex 0.495929 -0.637445 10
      vertex 0.251789 -0.572028 8
      vertex 0.495929 -0.637445 8
    endloop
  endfacet
  facet normal 0.906308 -0.422618 0
    outer loop
      vertex -1.36255 -1.50407 -8
      vertex -1.25574 -1.275 -10
      vertex -1.25574 -1.275 -8
    endloop
  endfacet
  facet normal 0.906308 -0.422618 0
    outer loop
      vertex -1.25574 -1.275 -10
      vertex -1.36255 -1.50407 -8
      vertex -1.36255 -1.50407 -10
    endloop
  endfacet
  facet normal 0.906308 -0.422618 0
    outer loop
      vertex -1.36255 -1.50407 10
      vertex -1.25574 -1.275 8
      vertex -1.25574 -1.275 10
    endloop
  endfacet
  facet normal 0.906308 -0.422618 0
    outer loop
      vertex -1.25574 -1.275 8
      vertex -1.36255 -1.50407 10
      vertex -1.36255 -1.50407 8
    endloop
  endfacet
  facet normal 0.965926 -0.25882 0
    outer loop
      vertex -1.42797 -1.74821 -8
      vertex -1.36255 -1.50407 -10
      vertex -1.36255 -1.50407 -8
    endloop
  endfacet
  facet normal 0.965926 -0.25882 0
    outer loop
      vertex -1.36255 -1.50407 -10
      vertex -1.42797 -1.74821 -8
      vertex -1.42797 -1.74821 -10
    endloop
  endfacet
  facet normal 0.965926 -0.25882 0
    outer loop
      vertex -1.42797 -1.74821 10
      vertex -1.36255 -1.50407 8
      vertex -1.36255 -1.50407 10
    endloop
  endfacet
  facet normal 0.965926 -0.25882 0
    outer loop
      vertex -1.36255 -1.50407 8
      vertex -1.42797 -1.74821 10
      vertex -1.42797 -1.74821 8
    endloop
  endfacet
  facet normal -0.819151 0.573578 0
    outer loop
      vertex 1.11076 -2.93204 -10
      vertex 1.25574 -2.725 -8
      vertex 1.25574 -2.725 -10
    endloop
  endfacet
  facet normal -0.819151 0.573578 0
    outer loop
      vertex 1.25574 -2.725 -8
      vertex 1.11076 -2.93204 -10
      vertex 1.11076 -2.93204 -8
    endloop
  endfacet
  facet normal -0.819151 0.573578 0
    outer loop
      vertex 1.11076 -2.93204 8
      vertex 1.25574 -2.725 10
      vertex 1.25574 -2.725 8
    endloop
  endfacet
  facet normal -0.819151 0.573578 0
    outer loop
      vertex 1.25574 -2.725 10
      vertex 1.11076 -2.93204 8
      vertex 1.11076 -2.93204 10
    endloop
  endfacet
  facet normal -0.906308 0.422618 0
    outer loop
      vertex 1.25574 -2.725 -10
      vertex 1.36255 -2.49593 -8
      vertex 1.36255 -2.49593 -10
    endloop
  endfacet
  facet normal -0.906308 0.422618 0
    outer loop
      vertex 1.36255 -2.49593 -8
      vertex 1.25574 -2.725 -10
      vertex 1.25574 -2.725 -8
    endloop
  endfacet
  facet normal -0.906308 0.422618 0
    outer loop
      vertex 1.25574 -2.725 8
      vertex 1.36255 -2.49593 10
      vertex 1.36255 -2.49593 8
    endloop
  endfacet
  facet normal -0.906308 0.422618 0
    outer loop
      vertex 1.36255 -2.49593 10
      vertex 1.25574 -2.725 8
      vertex 1.25574 -2.725 10
    endloop
  endfacet
  facet normal -0.25882 0.965926 0
    outer loop
      vertex 0.495929 -3.36255 -10
      vertex 0.251789 -3.42797 -8
      vertex 0.495929 -3.36255 -8
    endloop
  endfacet
  facet normal -0.25882 0.965926 0
    outer loop
      vertex 0.251789 -3.42797 -8
      vertex 0.495929 -3.36255 -10
      vertex 0.251789 -3.42797 -10
    endloop
  endfacet
  facet normal -0.25882 0.965926 0
    outer loop
      vertex 0.495929 -3.36255 8
      vertex 0.251789 -3.42797 10
      vertex 0.495929 -3.36255 10
    endloop
  endfacet
  facet normal -0.25882 0.965926 0
    outer loop
      vertex 0.251789 -3.42797 10
      vertex 0.495929 -3.36255 8
      vertex 0.251789 -3.42797 8
    endloop
  endfacet
  facet normal 0.422618 0.906308 -0
    outer loop
      vertex -0.495929 -3.36255 -10
      vertex -0.724999 -3.25574 -8
      vertex -0.495929 -3.36255 -8
    endloop
  endfacet
  facet normal 0.422618 0.906308 0
    outer loop
      vertex -0.724999 -3.25574 -8
      vertex -0.495929 -3.36255 -10
      vertex -0.724999 -3.25574 -10
    endloop
  endfacet
  facet normal 0.422618 0.906308 -0
    outer loop
      vertex -0.495929 -3.36255 8
      vertex -0.724999 -3.25574 10
      vertex -0.495929 -3.36255 10
    endloop
  endfacet
  facet normal 0.422618 0.906308 0
    outer loop
      vertex -0.724999 -3.25574 10
      vertex -0.495929 -3.36255 8
      vertex -0.724999 -3.25574 8
    endloop
  endfacet
  facet normal 0.573578 0.819151 -0
    outer loop
      vertex -0.724999 -3.25574 -10
      vertex -0.932041 -3.11076 -8
      vertex -0.724999 -3.25574 -8
    endloop
  endfacet
  facet normal 0.573578 0.819151 0
    outer loop
      vertex -0.932041 -3.11076 -8
      vertex -0.724999 -3.25574 -10
      vertex -0.932041 -3.11076 -10
    endloop
  endfacet
  facet normal 0.573578 0.819151 -0
    outer loop
      vertex -0.724999 -3.25574 8
      vertex -0.932041 -3.11076 10
      vertex -0.724999 -3.25574 10
    endloop
  endfacet
  facet normal 0.573578 0.819151 0
    outer loop
      vertex -0.932041 -3.11076 10
      vertex -0.724999 -3.25574 8
      vertex -0.932041 -3.11076 8
    endloop
  endfacet
  facet normal 0.965926 0.25882 0
    outer loop
      vertex -1.36255 -2.49593 -8
      vertex -1.42797 -2.25179 -10
      vertex -1.42797 -2.25179 -8
    endloop
  endfacet
  facet normal 0.965926 0.25882 0
    outer loop
      vertex -1.42797 -2.25179 -10
      vertex -1.36255 -2.49593 -8
      vertex -1.36255 -2.49593 -10
    endloop
  endfacet
  facet normal 0.965926 0.25882 0
    outer loop
      vertex -1.36255 -2.49593 10
      vertex -1.42797 -2.25179 8
      vertex -1.42797 -2.25179 10
    endloop
  endfacet
  facet normal 0.965926 0.25882 0
    outer loop
      vertex -1.42797 -2.25179 8
      vertex -1.36255 -2.49593 10
      vertex -1.36255 -2.49593 8
    endloop
  endfacet
  facet normal 0.25882 0.965926 -0
    outer loop
      vertex -0.251789 -3.42797 -10
      vertex -0.495929 -3.36255 -8
      vertex -0.251789 -3.42797 -8
    endloop
  endfacet
  facet normal 0.25882 0.965926 0
    outer loop
      vertex -0.495929 -3.36255 -8
      vertex -0.251789 -3.42797 -10
      vertex -0.495929 -3.36255 -10
    endloop
  endfacet
  facet normal 0.25882 0.965926 -0
    outer loop
      vertex -0.251789 -3.42797 8
      vertex -0.495929 -3.36255 10
      vertex -0.251789 -3.42797 10
    endloop
  endfacet
  facet normal 0.25882 0.965926 0
    outer loop
      vertex -0.495929 -3.36255 10
      vertex -0.251789 -3.42797 8
      vertex -0.495929 -3.36255 8
    endloop
  endfacet
  facet normal 5.23582e-08 -0.819152 0.573576
    outer loop
      vertex -2.6 5.15341 -6.73911
      vertex 2.6 5.19803 -6.67539
      vertex -2.6 5.36375 -6.43872
    endloop
  endfacet
  facet normal 0 -0.81915 0.573579
    outer loop
      vertex 2.6 5.19803 -6.67539
      vertex -2.6 5.15341 -6.73911
      vertex 2.6 5.15341 -6.73911
    endloop
  endfacet
  facet normal 0 -0.0871557 0.996195
    outer loop
      vertex -2.6 3.6428 -7.61126
      vertex 2.6 3.2 -7.65
      vertex 2.6 3.6428 -7.61126
    endloop
  endfacet
  facet normal 0 -0.0871557 0.996195
    outer loop
      vertex 2.6 3.2 -7.65
      vertex -2.6 3.6428 -7.61126
      vertex -2.6 3.2 -7.65
    endloop
  endfacet
  facet normal 0 0.0871555 -0.996195
    outer loop
      vertex -2.6 2.7572 -2.58874
      vertex 2.6 3.2 -2.55
      vertex 2.6 2.7572 -2.58874
    endloop
  endfacet
  facet normal 0 0.0871555 -0.996195
    outer loop
      vertex 2.6 3.2 -2.55
      vertex -2.6 2.7572 -2.58874
      vertex -2.6 3.2 -2.55
    endloop
  endfacet
  facet normal 0 -0.996195 -0.0871578
    outer loop
      vertex -2.6 5.75 -5.1
      vertex 2.6 5.71126 -4.6572
      vertex -2.6 5.71126 -4.6572
    endloop
  endfacet
  facet normal 0 -0.996195 -0.0871578
    outer loop
      vertex 2.6 5.71126 -4.6572
      vertex -2.6 5.75 -5.1
      vertex 2.6 5.75 -5.1
    endloop
  endfacet
  facet normal -0 0.258819 0.965926
    outer loop
      vertex -2.6 2.7572 -7.61126
      vertex 2.6 2.32785 -7.49622
      vertex 2.6 2.7572 -7.61126
    endloop
  endfacet
  facet normal 0 0.258819 0.965926
    outer loop
      vertex 2.6 2.32785 -7.49622
      vertex -2.6 2.7572 -7.61126
      vertex -2.6 2.32785 -7.49622
    endloop
  endfacet
  facet normal 0 -0.906307 0.42262
    outer loop
      vertex -2.6 5.59622 -5.97215
      vertex 2.6 5.56334 -6.04265
      vertex 2.6 5.59622 -5.97215
    endloop
  endfacet
  facet normal -5.43871e-08 -0.906309 0.422616
    outer loop
      vertex 2.6 5.56334 -6.04265
      vertex -2.6 5.59622 -5.97215
      vertex -2.6 5.44124 -6.3045
    endloop
  endfacet
  facet normal 0 -0.573577 -0.819152
    outer loop
      vertex -2.6 4.475 -2.89163
      vertex 2.6 4.83911 -3.14659
      vertex 2.6 4.475 -2.89163
    endloop
  endfacet
  facet normal -0 -0.573577 -0.819152
    outer loop
      vertex 2.6 4.83911 -3.14659
      vertex -2.6 4.475 -2.89163
      vertex -2.6 4.83911 -3.14659
    endloop
  endfacet
  facet normal -0 0.0871555 0.996195
    outer loop
      vertex -2.6 3.2 -7.65
      vertex 2.6 2.7572 -7.61126
      vertex 2.6 3.2 -7.65
    endloop
  endfacet
  facet normal 0 0.0871555 0.996195
    outer loop
      vertex 2.6 2.7572 -7.61126
      vertex -2.6 3.2 -7.65
      vertex -2.6 2.7572 -7.61126
    endloop
  endfacet
  facet normal -0 0.422619 0.906308
    outer loop
      vertex -2.6 2.32785 -7.49622
      vertex 2.6 1.925 -7.30836
      vertex 2.6 2.32785 -7.49622
    endloop
  endfacet
  facet normal 0 0.422619 0.906308
    outer loop
      vertex 2.6 1.925 -7.30836
      vertex -2.6 2.32785 -7.49622
      vertex -2.6 1.925 -7.30836
    endloop
  endfacet
  facet normal -1.15454e-07 -0.906308 0.422617
    outer loop
      vertex -2.6 5.44124 -6.3045
      vertex 2.6 5.40836 -6.375
      vertex 2.6 5.56334 -6.04265
    endloop
  endfacet
  facet normal -7.7508e-08 -0.906307 0.42262
    outer loop
      vertex 2.6 5.40836 -6.375
      vertex -2.6 5.44124 -6.3045
      vertex -2.6 5.40836 -6.375
    endloop
  endfacet
  facet normal 0 -0.42262 -0.906307
    outer loop
      vertex -2.6 4.07215 -2.70378
      vertex 2.6 4.475 -2.89163
      vertex 2.6 4.07215 -2.70378
    endloop
  endfacet
  facet normal -0 -0.42262 -0.906307
    outer loop
      vertex 2.6 4.475 -2.89163
      vertex -2.6 4.07215 -2.70378
      vertex -2.6 4.475 -2.89163
    endloop
  endfacet
  facet normal 0 -0.819152 -0.573576
    outer loop
      vertex -2.6 5.40836 -3.825
      vertex 2.6 5.15341 -3.46089
      vertex -2.6 5.15341 -3.46089
    endloop
  endfacet
  facet normal 0 -0.819152 -0.573576
    outer loop
      vertex 2.6 5.15341 -3.46089
      vertex -2.6 5.40836 -3.825
      vertex 2.6 5.40836 -3.825
    endloop
  endfacet
  facet normal 0 0.819152 -0.573576
    outer loop
      vertex 2.6 1 -3.81305
      vertex -2.6 1.24659 -3.46089
      vertex 2.6 1.24659 -3.46089
    endloop
  endfacet
  facet normal 0 0.819152 -0.573576
    outer loop
      vertex -2.6 1.24659 -3.46089
      vertex 2.6 1 -3.81305
      vertex -2.6 1 -3.81305
    endloop
  endfacet
  facet normal 0 0.422619 -0.906308
    outer loop
      vertex -2.6 1.925 -2.89163
      vertex 2.6 2.32785 -2.70378
      vertex 2.6 1.925 -2.89163
    endloop
  endfacet
  facet normal 0 0.422619 -0.906308
    outer loop
      vertex 2.6 2.32785 -2.70378
      vertex -2.6 1.925 -2.89163
      vertex -2.6 2.32785 -2.70378
    endloop
  endfacet
  facet normal 0 0.258819 -0.965926
    outer loop
      vertex -2.6 2.32785 -2.70378
      vertex 2.6 2.7572 -2.58874
      vertex 2.6 2.32785 -2.70378
    endloop
  endfacet
  facet normal 0 0.258819 -0.965926
    outer loop
      vertex 2.6 2.7572 -2.58874
      vertex -2.6 2.32785 -2.70378
      vertex -2.6 2.7572 -2.58874
    endloop
  endfacet
  facet normal 0 -0.258819 0.965926
    outer loop
      vertex -2.6 4.07215 -7.49622
      vertex 2.6 3.6428 -7.61126
      vertex 2.6 4.07215 -7.49622
    endloop
  endfacet
  facet normal 0 -0.258819 0.965926
    outer loop
      vertex 2.6 3.6428 -7.61126
      vertex -2.6 4.07215 -7.49622
      vertex -2.6 3.6428 -7.61126
    endloop
  endfacet
  facet normal 0 -0.707106 0.707108
    outer loop
      vertex -2.6 5.15341 -6.73911
      vertex 2.6 4.83911 -7.05341
      vertex 2.6 5.15341 -6.73911
    endloop
  endfacet
  facet normal 0 -0.707106 0.707108
    outer loop
      vertex 2.6 4.83911 -7.05341
      vertex -2.6 5.15341 -6.73911
      vertex -2.6 4.83911 -7.05341
    endloop
  endfacet
  facet normal -1.05194e-07 -0.81915 0.573579
    outer loop
      vertex -2.6 5.36375 -6.43872
      vertex 2.6 5.40836 -6.375
      vertex -2.6 5.40836 -6.375
    endloop
  endfacet
  facet normal -3.05212e-08 -0.819153 0.573575
    outer loop
      vertex 2.6 5.40836 -6.375
      vertex -2.6 5.36375 -6.43872
      vertex 2.6 5.19803 -6.67539
    endloop
  endfacet
  facet normal 0 -0.0871557 -0.996195
    outer loop
      vertex -2.6 3.2 -2.55
      vertex 2.6 3.6428 -2.58874
      vertex 2.6 3.2 -2.55
    endloop
  endfacet
  facet normal -0 -0.0871557 -0.996195
    outer loop
      vertex 2.6 3.6428 -2.58874
      vertex -2.6 3.2 -2.55
      vertex -2.6 3.6428 -2.58874
    endloop
  endfacet
  facet normal 0 -0.707106 -0.707108
    outer loop
      vertex -2.6 4.83911 -3.14659
      vertex 2.6 5.15341 -3.46089
      vertex 2.6 4.83911 -3.14659
    endloop
  endfacet
  facet normal -0 -0.707106 -0.707108
    outer loop
      vertex 2.6 5.15341 -3.46089
      vertex -2.6 4.83911 -3.14659
      vertex -2.6 5.15341 -3.46089
    endloop
  endfacet
  facet normal 0 0.819153 0.573576
    outer loop
      vertex 2.6 1.24659 -6.73911
      vertex -2.6 1 -6.38695
      vertex 2.6 1 -6.38695
    endloop
  endfacet
  facet normal 0 0.819153 0.573576
    outer loop
      vertex -2.6 1 -6.38695
      vertex 2.6 1.24659 -6.73911
      vertex -2.6 1.24659 -6.73911
    endloop
  endfacet
  facet normal 0 0.573577 -0.819152
    outer loop
      vertex -2.6 1.56089 -3.14659
      vertex 2.6 1.925 -2.89163
      vertex 2.6 1.56089 -3.14659
    endloop
  endfacet
  facet normal 0 0.573577 -0.819152
    outer loop
      vertex 2.6 1.925 -2.89163
      vertex -2.6 1.56089 -3.14659
      vertex -2.6 1.925 -2.89163
    endloop
  endfacet
  facet normal 0 0.707106 -0.707108
    outer loop
      vertex -2.6 1.24659 -3.46089
      vertex 2.6 1.56089 -3.14659
      vertex 2.6 1.24659 -3.46089
    endloop
  endfacet
  facet normal 0 0.707106 -0.707108
    outer loop
      vertex 2.6 1.56089 -3.14659
      vertex -2.6 1.24659 -3.46089
      vertex -2.6 1.56089 -3.14659
    endloop
  endfacet
  facet normal 0 -0.573577 0.819152
    outer loop
      vertex -2.6 4.83911 -7.05341
      vertex 2.6 4.475 -7.30836
      vertex 2.6 4.83911 -7.05341
    endloop
  endfacet
  facet normal 0 -0.573577 0.819152
    outer loop
      vertex 2.6 4.475 -7.30836
      vertex -2.6 4.83911 -7.05341
      vertex -2.6 4.475 -7.30836
    endloop
  endfacet
  facet normal 0 -0.42262 0.906307
    outer loop
      vertex -2.6 4.475 -7.30836
      vertex 2.6 4.07215 -7.49622
      vertex 2.6 4.475 -7.30836
    endloop
  endfacet
  facet normal 0 -0.42262 0.906307
    outer loop
      vertex 2.6 4.07215 -7.49622
      vertex -2.6 4.475 -7.30836
      vertex -2.6 4.07215 -7.49622
    endloop
  endfacet
  facet normal 0 -0.996195 0.0871576
    outer loop
      vertex -2.6 5.71126 -5.5428
      vertex 2.6 5.75 -5.1
      vertex -2.6 5.75 -5.1
    endloop
  endfacet
  facet normal 0 -0.996195 0.0871576
    outer loop
      vertex 2.6 5.75 -5.1
      vertex -2.6 5.71126 -5.5428
      vertex 2.6 5.71126 -5.5428
    endloop
  endfacet
  facet normal 0 -0.965926 0.258819
    outer loop
      vertex -2.6 5.59622 -5.97215
      vertex 2.6 5.71126 -5.5428
      vertex -2.6 5.71126 -5.5428
    endloop
  endfacet
  facet normal 0 -0.965926 0.258819
    outer loop
      vertex 2.6 5.71126 -5.5428
      vertex -2.6 5.59622 -5.97215
      vertex 2.6 5.59622 -5.97215
    endloop
  endfacet
  facet normal 0 -0.258819 -0.965926
    outer loop
      vertex -2.6 3.6428 -2.58874
      vertex 2.6 4.07215 -2.70378
      vertex 2.6 3.6428 -2.58874
    endloop
  endfacet
  facet normal -0 -0.258819 -0.965926
    outer loop
      vertex 2.6 4.07215 -2.70378
      vertex -2.6 3.6428 -2.58874
      vertex -2.6 4.07215 -2.70378
    endloop
  endfacet
  facet normal 0 -0.906308 -0.422618
    outer loop
      vertex -2.6 5.59622 -4.22785
      vertex 2.6 5.40836 -3.825
      vertex -2.6 5.40836 -3.825
    endloop
  endfacet
  facet normal 0 -0.906308 -0.422618
    outer loop
      vertex 2.6 5.40836 -3.825
      vertex -2.6 5.59622 -4.22785
      vertex 2.6 5.59622 -4.22785
    endloop
  endfacet
  facet normal 0 -0.965926 -0.258819
    outer loop
      vertex -2.6 5.71126 -4.6572
      vertex 2.6 5.59622 -4.22785
      vertex -2.6 5.59622 -4.22785
    endloop
  endfacet
  facet normal 0 -0.965926 -0.258819
    outer loop
      vertex 2.6 5.59622 -4.22785
      vertex -2.6 5.71126 -4.6572
      vertex 2.6 5.71126 -4.6572
    endloop
  endfacet
  facet normal -0 0.707106 0.707108
    outer loop
      vertex -2.6 1.56089 -7.05341
      vertex 2.6 1.24659 -6.73911
      vertex 2.6 1.56089 -7.05341
    endloop
  endfacet
  facet normal 0 0.707106 0.707108
    outer loop
      vertex 2.6 1.24659 -6.73911
      vertex -2.6 1.56089 -7.05341
      vertex -2.6 1.24659 -6.73911
    endloop
  endfacet
  facet normal -0 0.573577 0.819152
    outer loop
      vertex -2.6 1.925 -7.30836
      vertex 2.6 1.56089 -7.05341
      vertex 2.6 1.925 -7.30836
    endloop
  endfacet
  facet normal 0 0.573577 0.819152
    outer loop
      vertex 2.6 1.56089 -7.05341
      vertex -2.6 1.925 -7.30836
      vertex -2.6 1.56089 -7.05341
    endloop
  endfacet
  facet normal 0 -0.573577 0.819152
    outer loop
      vertex -2.6 4.83911 3.14659
      vertex 2.6 4.475 2.89163
      vertex 2.6 4.83911 3.14659
    endloop
  endfacet
  facet normal 0 -0.573577 0.819152
    outer loop
      vertex 2.6 4.475 2.89163
      vertex -2.6 4.83911 3.14659
      vertex -2.6 4.475 2.89163
    endloop
  endfacet
  facet normal 0 -0.0871557 0.996195
    outer loop
      vertex -2.6 3.6428 2.58874
      vertex 2.6 3.2 2.55
      vertex 2.6 3.6428 2.58874
    endloop
  endfacet
  facet normal 0 -0.0871557 0.996195
    outer loop
      vertex 2.6 3.2 2.55
      vertex -2.6 3.6428 2.58874
      vertex -2.6 3.2 2.55
    endloop
  endfacet
  facet normal 0 0.0871555 -0.996195
    outer loop
      vertex -2.6 2.7572 7.61126
      vertex 2.6 3.2 7.65
      vertex 2.6 2.7572 7.61126
    endloop
  endfacet
  facet normal 0 0.0871555 -0.996195
    outer loop
      vertex 2.6 3.2 7.65
      vertex -2.6 2.7572 7.61126
      vertex -2.6 3.2 7.65
    endloop
  endfacet
  facet normal 0 -0.996195 -0.0871576
    outer loop
      vertex -2.6 5.75 5.1
      vertex 2.6 5.71126 5.5428
      vertex -2.6 5.71126 5.5428
    endloop
  endfacet
  facet normal 0 -0.996195 -0.0871576
    outer loop
      vertex 2.6 5.71126 5.5428
      vertex -2.6 5.75 5.1
      vertex 2.6 5.75 5.1
    endloop
  endfacet
  facet normal -0 0.258819 0.965926
    outer loop
      vertex -2.6 2.7572 2.58874
      vertex 2.6 2.32785 2.70378
      vertex 2.6 2.7572 2.58874
    endloop
  endfacet
  facet normal 0 0.258819 0.965926
    outer loop
      vertex 2.6 2.32785 2.70378
      vertex -2.6 2.7572 2.58874
      vertex -2.6 2.32785 2.70378
    endloop
  endfacet
  facet normal 0 -0.573577 -0.819152
    outer loop
      vertex -2.6 4.475 7.30836
      vertex 2.6 4.83911 7.05341
      vertex 2.6 4.475 7.30836
    endloop
  endfacet
  facet normal -0 -0.573577 -0.819152
    outer loop
      vertex 2.6 4.83911 7.05341
      vertex -2.6 4.475 7.30836
      vertex -2.6 4.83911 7.05341
    endloop
  endfacet
  facet normal -0 0.707106 0.707108
    outer loop
      vertex -2.6 1.56089 3.14659
      vertex 2.6 1.24659 3.46089
      vertex 2.6 1.56089 3.14659
    endloop
  endfacet
  facet normal 0 0.707106 0.707108
    outer loop
      vertex 2.6 1.24659 3.46089
      vertex -2.6 1.56089 3.14659
      vertex -2.6 1.24659 3.46089
    endloop
  endfacet
  facet normal -0 0.422619 0.906308
    outer loop
      vertex -2.6 2.32785 2.70378
      vertex 2.6 1.925 2.89163
      vertex 2.6 2.32785 2.70378
    endloop
  endfacet
  facet normal 0 0.422619 0.906308
    outer loop
      vertex 2.6 1.925 2.89163
      vertex -2.6 2.32785 2.70378
      vertex -2.6 1.925 2.89163
    endloop
  endfacet
  facet normal 0 0.819152 -0.573577
    outer loop
      vertex 2.6 1 6.38695
      vertex -2.6 1.24659 6.73911
      vertex 2.6 1.24659 6.73911
    endloop
  endfacet
  facet normal 0 0.819152 -0.573577
    outer loop
      vertex -2.6 1.24659 6.73911
      vertex 2.6 1 6.38695
      vertex -2.6 1 6.38695
    endloop
  endfacet
  facet normal 0 -0.819152 0.573576
    outer loop
      vertex -2.6 5.15341 3.46089
      vertex 2.6 5.40836 3.825
      vertex -2.6 5.40836 3.825
    endloop
  endfacet
  facet normal 0 -0.819152 0.573576
    outer loop
      vertex 2.6 5.40836 3.825
      vertex -2.6 5.15341 3.46089
      vertex 2.6 5.15341 3.46089
    endloop
  endfacet
  facet normal 0 -0.42262 -0.906307
    outer loop
      vertex -2.6 4.07215 7.49622
      vertex 2.6 4.475 7.30836
      vertex 2.6 4.07215 7.49622
    endloop
  endfacet
  facet normal -0 -0.42262 -0.906307
    outer loop
      vertex 2.6 4.475 7.30836
      vertex -2.6 4.07215 7.49622
      vertex -2.6 4.475 7.30836
    endloop
  endfacet
  facet normal 3.05212e-08 -0.819153 -0.573575
    outer loop
      vertex -2.6 5.40836 6.375
      vertex 2.6 5.36375 6.43872
      vertex -2.6 5.19803 6.67539
    endloop
  endfacet
  facet normal 1.05194e-07 -0.81915 -0.573579
    outer loop
      vertex 2.6 5.36375 6.43872
      vertex -2.6 5.40836 6.375
      vertex 2.6 5.40836 6.375
    endloop
  endfacet
  facet normal 0 0.422619 -0.906308
    outer loop
      vertex -2.6 1.925 7.30836
      vertex 2.6 2.32785 7.49622
      vertex 2.6 1.925 7.30836
    endloop
  endfacet
  facet normal 0 0.422619 -0.906308
    outer loop
      vertex 2.6 2.32785 7.49622
      vertex -2.6 1.925 7.30836
      vertex -2.6 2.32785 7.49622
    endloop
  endfacet
  facet normal 0 0.258819 -0.965926
    outer loop
      vertex -2.6 2.32785 7.49622
      vertex 2.6 2.7572 7.61126
      vertex 2.6 2.32785 7.49622
    endloop
  endfacet
  facet normal 0 0.258819 -0.965926
    outer loop
      vertex 2.6 2.7572 7.61126
      vertex -2.6 2.32785 7.49622
      vertex -2.6 2.7572 7.61126
    endloop
  endfacet
  facet normal 0 -0.258819 0.965926
    outer loop
      vertex -2.6 4.07215 2.70378
      vertex 2.6 3.6428 2.58874
      vertex 2.6 4.07215 2.70378
    endloop
  endfacet
  facet normal 0 -0.258819 0.965926
    outer loop
      vertex 2.6 3.6428 2.58874
      vertex -2.6 4.07215 2.70378
      vertex -2.6 3.6428 2.58874
    endloop
  endfacet
  facet normal 0 -0.906308 0.422618
    outer loop
      vertex -2.6 5.40836 3.825
      vertex 2.6 5.59622 4.22785
      vertex -2.6 5.59622 4.22785
    endloop
  endfacet
  facet normal 0 -0.906308 0.422618
    outer loop
      vertex 2.6 5.59622 4.22785
      vertex -2.6 5.40836 3.825
      vertex 2.6 5.40836 3.825
    endloop
  endfacet
  facet normal 0 -0.0871557 -0.996195
    outer loop
      vertex -2.6 3.2 7.65
      vertex 2.6 3.6428 7.61126
      vertex 2.6 3.2 7.65
    endloop
  endfacet
  facet normal -0 -0.0871557 -0.996195
    outer loop
      vertex 2.6 3.6428 7.61126
      vertex -2.6 3.2 7.65
      vertex -2.6 3.6428 7.61126
    endloop
  endfacet
  facet normal 7.7508e-08 -0.906307 -0.42262
    outer loop
      vertex -2.6 5.40836 6.375
      vertex 2.6 5.44124 6.3045
      vertex 2.6 5.40836 6.375
    endloop
  endfacet
  facet normal 1.15454e-07 -0.906308 -0.422617
    outer loop
      vertex 2.6 5.44124 6.3045
      vertex -2.6 5.40836 6.375
      vertex -2.6 5.56334 6.04265
    endloop
  endfacet
  facet normal 0 -0.707106 -0.707108
    outer loop
      vertex -2.6 4.83911 7.05341
      vertex 2.6 5.15341 6.73911
      vertex 2.6 4.83911 7.05341
    endloop
  endfacet
  facet normal -0 -0.707106 -0.707108
    outer loop
      vertex 2.6 5.15341 6.73911
      vertex -2.6 4.83911 7.05341
      vertex -2.6 5.15341 6.73911
    endloop
  endfacet
  facet normal -0 0.573577 0.819152
    outer loop
      vertex -2.6 1.925 2.89163
      vertex 2.6 1.56089 3.14659
      vertex 2.6 1.925 2.89163
    endloop
  endfacet
  facet normal 0 0.573577 0.819152
    outer loop
      vertex 2.6 1.56089 3.14659
      vertex -2.6 1.925 2.89163
      vertex -2.6 1.56089 3.14659
    endloop
  endfacet
  facet normal -0 0.0871555 0.996195
    outer loop
      vertex -2.6 3.2 2.55
      vertex 2.6 2.7572 2.58874
      vertex 2.6 3.2 2.55
    endloop
  endfacet
  facet normal 0 0.0871555 0.996195
    outer loop
      vertex 2.6 2.7572 2.58874
      vertex -2.6 3.2 2.55
      vertex -2.6 2.7572 2.58874
    endloop
  endfacet
  facet normal 0 0.707106 -0.707108
    outer loop
      vertex -2.6 1.24659 6.73911
      vertex 2.6 1.56089 7.05341
      vertex 2.6 1.24659 6.73911
    endloop
  endfacet
  facet normal 0 0.707106 -0.707108
    outer loop
      vertex 2.6 1.56089 7.05341
      vertex -2.6 1.24659 6.73911
      vertex -2.6 1.56089 7.05341
    endloop
  endfacet
  facet normal 0 -0.42262 0.906307
    outer loop
      vertex -2.6 4.475 2.89163
      vertex 2.6 4.07215 2.70378
      vertex 2.6 4.475 2.89163
    endloop
  endfacet
  facet normal 0 -0.42262 0.906307
    outer loop
      vertex 2.6 4.07215 2.70378
      vertex -2.6 4.475 2.89163
      vertex -2.6 4.07215 2.70378
    endloop
  endfacet
  facet normal 0 -0.707106 0.707108
    outer loop
      vertex -2.6 5.15341 3.46089
      vertex 2.6 4.83911 3.14659
      vertex 2.6 5.15341 3.46089
    endloop
  endfacet
  facet normal 0 -0.707106 0.707108
    outer loop
      vertex 2.6 4.83911 3.14659
      vertex -2.6 5.15341 3.46089
      vertex -2.6 4.83911 3.14659
    endloop
  endfacet
  facet normal 0 -0.996195 0.0871578
    outer loop
      vertex -2.6 5.71126 4.6572
      vertex 2.6 5.75 5.1
      vertex -2.6 5.75 5.1
    endloop
  endfacet
  facet normal 0 -0.996195 0.0871578
    outer loop
      vertex 2.6 5.75 5.1
      vertex -2.6 5.71126 4.6572
      vertex 2.6 5.71126 4.6572
    endloop
  endfacet
  facet normal 0 -0.965926 0.258819
    outer loop
      vertex -2.6 5.59622 4.22785
      vertex 2.6 5.71126 4.6572
      vertex -2.6 5.71126 4.6572
    endloop
  endfacet
  facet normal 0 -0.965926 0.258819
    outer loop
      vertex 2.6 5.71126 4.6572
      vertex -2.6 5.59622 4.22785
      vertex 2.6 5.59622 4.22785
    endloop
  endfacet
  facet normal 0 -0.258819 -0.965926
    outer loop
      vertex -2.6 3.6428 7.61126
      vertex 2.6 4.07215 7.49622
      vertex 2.6 3.6428 7.61126
    endloop
  endfacet
  facet normal -0 -0.258819 -0.965926
    outer loop
      vertex 2.6 4.07215 7.49622
      vertex -2.6 3.6428 7.61126
      vertex -2.6 4.07215 7.49622
    endloop
  endfacet
  facet normal 0 -0.81915 -0.573579
    outer loop
      vertex -2.6 5.19803 6.67539
      vertex 2.6 5.15341 6.73911
      vertex -2.6 5.15341 6.73911
    endloop
  endfacet
  facet normal -5.23582e-08 -0.819152 -0.573576
    outer loop
      vertex 2.6 5.15341 6.73911
      vertex -2.6 5.19803 6.67539
      vertex 2.6 5.36375 6.43872
    endloop
  endfacet
  facet normal 0 -0.965926 -0.258819
    outer loop
      vertex -2.6 5.71126 5.5428
      vertex 2.6 5.59622 5.97215
      vertex -2.6 5.59622 5.97215
    endloop
  endfacet
  facet normal 0 -0.965926 -0.258819
    outer loop
      vertex 2.6 5.59622 5.97215
      vertex -2.6 5.71126 5.5428
      vertex 2.6 5.71126 5.5428
    endloop
  endfacet
  facet normal -0 -0.906307 -0.42262
    outer loop
      vertex 2.6 5.59622 5.97215
      vertex -2.6 5.56334 6.04265
      vertex -2.6 5.59622 5.97215
    endloop
  endfacet
  facet normal 5.43871e-08 -0.906309 -0.422616
    outer loop
      vertex -2.6 5.56334 6.04265
      vertex 2.6 5.59622 5.97215
      vertex 2.6 5.44124 6.3045
    endloop
  endfacet
  facet normal 0 0.819152 0.573576
    outer loop
      vertex 2.6 1.24659 3.46089
      vertex -2.6 1 3.81305
      vertex 2.6 1 3.81305
    endloop
  endfacet
  facet normal 0 0.819152 0.573576
    outer loop
      vertex -2.6 1 3.81305
      vertex 2.6 1.24659 3.46089
      vertex -2.6 1.24659 3.46089
    endloop
  endfacet
  facet normal 0 0.573577 -0.819152
    outer loop
      vertex -2.6 1.56089 7.05341
      vertex 2.6 1.925 7.30836
      vertex 2.6 1.56089 7.05341
    endloop
  endfacet
  facet normal 0 0.573577 -0.819152
    outer loop
      vertex 2.6 1.925 7.30836
      vertex -2.6 1.56089 7.05341
      vertex -2.6 1.925 7.30836
    endloop
  endfacet
endsolid OpenSCAD_Model
