<?xml version="1.0" encoding="UTF-8" standalone="no"?>
<svg
   xmlns:dc="http://purl.org/dc/elements/1.1/"
   xmlns:cc="http://creativecommons.org/ns#"
   xmlns:rdf="http://www.w3.org/1999/02/22-rdf-syntax-ns#"
   xmlns:svg="http://www.w3.org/2000/svg"
   xmlns="http://www.w3.org/2000/svg"
   xmlns:sodipodi="http://sodipodi.sourceforge.net/DTD/sodipodi-0.dtd"
   xmlns:inkscape="http://www.inkscape.org/namespaces/inkscape"
   width="120mm"
   height="70mm"
   viewBox="-31 -50 425.19684 248.0315"
   version="1.1"
   id="svg3405"
   inkscape:version="0.91 r13725"
   sodipodi:docname="raspirobot_body.svg">
  <metadata
     id="metadata3415">
    <rdf:RDF>
      <cc:Work
         rdf:about="">
        <dc:format>image/svg+xml</dc:format>
        <dc:type
           rdf:resource="http://purl.org/dc/dcmitype/StillImage" />
        <dc:title>OpenSCAD Model</dc:title>
      </cc:Work>
    </rdf:RDF>
  </metadata>
  <defs
     id="defs3413" />
  <sodipodi:namedview
     pagecolor="#ffffff"
     bordercolor="#666666"
     borderopacity="1"
     objecttolerance="10"
     gridtolerance="10"
     guidetolerance="10"
     inkscape:pageopacity="0"
     inkscape:pageshadow="2"
     inkscape:window-width="1362"
     inkscape:window-height="713"
     id="namedview3411"
     showgrid="false"
     units="mm"
     inkscape:document-units="mm"
     inkscape:zoom="0.96873629"
     inkscape:cx="31"
     inkscape:cy="236.4959"
     inkscape:window-x="0"
     inkscape:window-y="28"
     inkscape:window-maximized="1"
     inkscape:current-layer="svg3405" />
  <title
     id="title3407">OpenSCAD Model</title>
  <path
     d="m 12.635426,159.44544 4.47584,5.0523 8.0114,2.49653 324.362464,0 6.55389,-1.61546 5.05229,-4.47585 2.49654,-8.0114 0,-185.09815 -1.61547,-6.55389 -4.47585,-5.0523 -8.0114,-2.49653 -324.362464,0 -6.55388,1.61547 -5.0523,4.47585 -2.49653,8.0114 0,185.09815 z M 319.721,146.18712 l 0.22247,-1.04536 0.43472,-0.97626 0.62792,-0.8645 0.79433,-0.71536 0.92549,-0.53414 1.01646,-0.33035 1.06299,-0.11177 1.06299,0.11177 1.01646,0.33035 0.92549,0.53414 0.79398,0.71536 0.62828,0.8645 0.43471,0.97626 0.22212,1.04536 0,1.06899 -0.22212,1.04536 -0.43471,0.97626 -0.62828,0.8645 -0.79398,0.71536 -0.92549,0.53414 -1.01646,0.33036 -1.06299,0.11176 -1.06299,-0.11176 -1.01646,-0.33036 -0.92549,-0.53414 -0.79433,-0.71536 -0.62792,-0.8645 -0.43472,-0.97626 -0.22247,-1.04536 z m 0,-172.75827 0.22247,-1.04536 0.43472,-0.97626 0.62792,-0.8645 0.79433,-0.71536 0.92549,-0.53414 1.01646,-0.33036 1.06299,-0.11176 1.06299,0.11176 1.01646,0.33036 0.92549,0.53414 0.79398,0.71536 0.62828,0.8645 0.43471,0.97626 0.22212,1.04536 0,1.068991 -0.22212,1.04536 -0.43471,0.97626 -0.62828,0.8645 -0.79398,0.715363 -0.92549,0.53414 -1.01646,0.33036 -1.06299,0.11176 -1.06299,-0.11176 -1.01646,-0.33036 -0.92549,-0.53414 -0.79433,-0.715363 -0.62792,-0.8645 -0.43472,-0.97626 -0.22247,-1.04536 z m -204.48902,172.75827 0.22211,-1.04536 0.43472,-0.97626 0.62828,-0.8645 0.79398,-0.71536 0.92549,-0.53414 1.01645,-0.33035 1.063,-0.11177 1.06299,0.11177 1.01645,0.33035 0.92549,0.53414 0.79434,0.71536 0.62792,0.8645 0.43472,0.97626 0.22247,1.04536 0,1.06899 -0.22247,1.04536 -0.43472,0.97626 -0.62792,0.8645 -0.79434,0.71536 -0.92549,0.53414 -1.01645,0.33036 -1.06299,0.11176 -1.063,-0.11176 -1.01645,-0.33036 -0.92549,-0.53414 -0.79398,-0.71536 -0.62828,-0.8645 -0.43472,-0.97626 -0.22211,-1.04536 z m 0,-172.75827 0.22211,-1.04536 0.43472,-0.97626 0.62828,-0.8645 0.79398,-0.71536 0.92549,-0.53414 1.01645,-0.33036 1.063,-0.11176 1.06299,0.11176 1.01645,0.33036 0.92549,0.53414 0.79434,0.71536 0.62792,0.8645 0.43472,0.97626 0.22247,1.04536 0,1.068991 -0.22247,1.04536 -0.43472,0.97626 -0.62792,0.8645 -0.79434,0.715363 -0.92549,0.53414 -1.01645,0.33036 -1.06299,0.11176 -1.063,-0.11176 -1.01645,-0.33036 -0.92549,-0.53414 -0.79398,-0.715363 -0.62828,-0.8645 -0.43472,-0.97626 -0.22211,-1.04536 z"
     id="path3409"
     inkscape:connector-curvature="0"
     style="fill:none;stroke:#000000;stroke-width:1.76283944" />
</svg>
