  0
SECTION
  2
BLOCKS
  0
ENDSEC
  0
SECTION
  2
ENTITIES
  0
LINE
  8
0
 10
26.3589
 20
-49.5418
 11
27.7919
 21
-48.2723
  0
LINE
  8
0
 10
27.7919
 20
-48.2723
 11
28.5
 21
-46
  0
LINE
  8
0
 10
28.5
 20
-46
 11
28.5
 21
46
  0
LINE
  8
0
 10
28.5
 20
46
 11
28.0418
 21
47.8589
  0
LINE
  8
0
 10
28.0418
 20
47.8589
 11
26.7723
 21
49.2919
  0
LINE
  8
0
 10
26.7723
 20
49.2919
 11
24.5
 21
50
  0
LINE
  8
0
 10
24.5
 20
50
 11
-24.5
 21
50
  0
LINE
  8
0
 10
-24.5
 20
50
 11
-26.3589
 21
49.5418
  0
LINE
  8
0
 10
-26.3589
 20
49.5418
 11
-27.7919
 21
48.2723
  0
LINE
  8
0
 10
-27.7919
 20
48.2723
 11
-28.5
 21
46
  0
LINE
  8
0
 10
-28.5
 20
46
 11
-28.5
 21
-46
  0
LINE
  8
0
 10
-28.5
 20
-46
 11
-28.0418
 21
-47.8589
  0
LINE
  8
0
 10
-28.0418
 20
-47.8589
 11
-26.7723
 21
-49.2919
  0
LINE
  8
0
 10
-26.7723
 20
-49.2919
 11
-24.5
 21
-50
  0
LINE
  8
0
 10
-24.5
 20
-50
 11
24.5
 21
-50
  0
LINE
  8
0
 10
24.5
 20
-50
 11
26.3589
 21
-49.5418
  0
LINE
  8
0
 10
24.3484
 20
37.5579
 11
24.0519
 21
37.621
  0
LINE
  8
0
 10
24.0519
 20
37.621
 11
23.775
 21
37.7443
  0
LINE
  8
0
 10
23.775
 20
37.7443
 11
23.5298
 21
37.9224
  0
LINE
  8
0
 10
23.5298
 20
37.9224
 11
23.3269
 21
38.1477
  0
LINE
  8
0
 10
23.3269
 20
38.1477
 11
23.1754
 21
38.4102
  0
LINE
  8
0
 10
23.1754
 20
38.4102
 11
23.0817
 21
38.6985
  0
LINE
  8
0
 10
23.0817
 20
38.6985
 11
23.05
 21
39
  0
LINE
  8
0
 10
23.05
 20
39
 11
23.0817
 21
39.3015
  0
LINE
  8
0
 10
23.0817
 20
39.3015
 11
23.1754
 21
39.5898
  0
LINE
  8
0
 10
23.1754
 20
39.5898
 11
23.3269
 21
39.8523
  0
LINE
  8
0
 10
23.3269
 20
39.8523
 11
23.5298
 21
40.0775
  0
LINE
  8
0
 10
23.5298
 20
40.0775
 11
23.775
 21
40.2557
  0
LINE
  8
0
 10
23.775
 20
40.2557
 11
24.0519
 21
40.379
  0
LINE
  8
0
 10
24.0519
 20
40.379
 11
24.3484
 21
40.442
  0
LINE
  8
0
 10
24.3484
 20
40.442
 11
24.6516
 21
40.442
  0
LINE
  8
0
 10
24.6516
 20
40.442
 11
24.9481
 21
40.379
  0
LINE
  8
0
 10
24.9481
 20
40.379
 11
25.225
 21
40.2557
  0
LINE
  8
0
 10
25.225
 20
40.2557
 11
25.4702
 21
40.0775
  0
LINE
  8
0
 10
25.4702
 20
40.0775
 11
25.6731
 21
39.8523
  0
LINE
  8
0
 10
25.6731
 20
39.8523
 11
25.8246
 21
39.5898
  0
LINE
  8
0
 10
25.8246
 20
39.5898
 11
25.9183
 21
39.3015
  0
LINE
  8
0
 10
25.9183
 20
39.3015
 11
25.95
 21
39
  0
LINE
  8
0
 10
25.95
 20
39
 11
25.9183
 21
38.6985
  0
LINE
  8
0
 10
25.9183
 20
38.6985
 11
25.8246
 21
38.4102
  0
LINE
  8
0
 10
25.8246
 20
38.4102
 11
25.6731
 21
38.1477
  0
LINE
  8
0
 10
25.6731
 20
38.1477
 11
25.4702
 21
37.9224
  0
LINE
  8
0
 10
25.4702
 20
37.9224
 11
25.225
 21
37.7443
  0
LINE
  8
0
 10
25.225
 20
37.7443
 11
24.9481
 21
37.621
  0
LINE
  8
0
 10
24.9481
 20
37.621
 11
24.6516
 21
37.5579
  0
LINE
  8
0
 10
24.6516
 20
37.5579
 11
24.3484
 21
37.5579
  0
LINE
  8
0
 10
-24.6516
 20
37.5579
 11
-24.9481
 21
37.621
  0
LINE
  8
0
 10
-24.9481
 20
37.621
 11
-25.225
 21
37.7443
  0
LINE
  8
0
 10
-25.225
 20
37.7443
 11
-25.4702
 21
37.9224
  0
LINE
  8
0
 10
-25.4702
 20
37.9224
 11
-25.6731
 21
38.1477
  0
LINE
  8
0
 10
-25.6731
 20
38.1477
 11
-25.8246
 21
38.4102
  0
LINE
  8
0
 10
-25.8246
 20
38.4102
 11
-25.9183
 21
38.6985
  0
LINE
  8
0
 10
-25.9183
 20
38.6985
 11
-25.95
 21
39
  0
LINE
  8
0
 10
-25.95
 20
39
 11
-25.9183
 21
39.3015
  0
LINE
  8
0
 10
-25.9183
 20
39.3015
 11
-25.8246
 21
39.5898
  0
LINE
  8
0
 10
-25.8246
 20
39.5898
 11
-25.6731
 21
39.8523
  0
LINE
  8
0
 10
-25.6731
 20
39.8523
 11
-25.4702
 21
40.0775
  0
LINE
  8
0
 10
-25.4702
 20
40.0775
 11
-25.225
 21
40.2557
  0
LINE
  8
0
 10
-25.225
 20
40.2557
 11
-24.9481
 21
40.379
  0
LINE
  8
0
 10
-24.9481
 20
40.379
 11
-24.6516
 21
40.442
  0
LINE
  8
0
 10
-24.6516
 20
40.442
 11
-24.3484
 21
40.442
  0
LINE
  8
0
 10
-24.3484
 20
40.442
 11
-24.0519
 21
40.379
  0
LINE
  8
0
 10
-24.0519
 20
40.379
 11
-23.775
 21
40.2557
  0
LINE
  8
0
 10
-23.775
 20
40.2557
 11
-23.5298
 21
40.0775
  0
LINE
  8
0
 10
-23.5298
 20
40.0775
 11
-23.3269
 21
39.8523
  0
LINE
  8
0
 10
-23.3269
 20
39.8523
 11
-23.1754
 21
39.5898
  0
LINE
  8
0
 10
-23.1754
 20
39.5898
 11
-23.0817
 21
39.3015
  0
LINE
  8
0
 10
-23.0817
 20
39.3015
 11
-23.05
 21
39
  0
LINE
  8
0
 10
-23.05
 20
39
 11
-23.0817
 21
38.6985
  0
LINE
  8
0
 10
-23.0817
 20
38.6985
 11
-23.1754
 21
38.4102
  0
LINE
  8
0
 10
-23.1754
 20
38.4102
 11
-23.3269
 21
38.1477
  0
LINE
  8
0
 10
-23.3269
 20
38.1477
 11
-23.5298
 21
37.9224
  0
LINE
  8
0
 10
-23.5298
 20
37.9224
 11
-23.775
 21
37.7443
  0
LINE
  8
0
 10
-23.775
 20
37.7443
 11
-24.0519
 21
37.621
  0
LINE
  8
0
 10
-24.0519
 20
37.621
 11
-24.3484
 21
37.5579
  0
LINE
  8
0
 10
-24.3484
 20
37.5579
 11
-24.6516
 21
37.5579
  0
LINE
  8
0
 10
24.3484
 20
-20.442
 11
24.0519
 21
-20.379
  0
LINE
  8
0
 10
24.0519
 20
-20.379
 11
23.775
 21
-20.2557
  0
LINE
  8
0
 10
23.775
 20
-20.2557
 11
23.5298
 21
-20.0775
  0
LINE
  8
0
 10
23.5298
 20
-20.0775
 11
23.3269
 21
-19.8523
  0
LINE
  8
0
 10
23.3269
 20
-19.8523
 11
23.1754
 21
-19.5898
  0
LINE
  8
0
 10
23.1754
 20
-19.5898
 11
23.0817
 21
-19.3015
  0
LINE
  8
0
 10
23.0817
 20
-19.3015
 11
23.05
 21
-19
  0
LINE
  8
0
 10
23.05
 20
-19
 11
23.0817
 21
-18.6985
  0
LINE
  8
0
 10
23.0817
 20
-18.6985
 11
23.1754
 21
-18.4102
  0
LINE
  8
0
 10
23.1754
 20
-18.4102
 11
23.3269
 21
-18.1477
  0
LINE
  8
0
 10
23.3269
 20
-18.1477
 11
23.5298
 21
-17.9224
  0
LINE
  8
0
 10
23.5298
 20
-17.9224
 11
23.775
 21
-17.7443
  0
LINE
  8
0
 10
23.775
 20
-17.7443
 11
24.0519
 21
-17.621
  0
LINE
  8
0
 10
24.0519
 20
-17.621
 11
24.3484
 21
-17.5579
  0
LINE
  8
0
 10
24.3484
 20
-17.5579
 11
24.6516
 21
-17.5579
  0
LINE
  8
0
 10
24.6516
 20
-17.5579
 11
24.9481
 21
-17.621
  0
LINE
  8
0
 10
24.9481
 20
-17.621
 11
25.225
 21
-17.7443
  0
LINE
  8
0
 10
25.225
 20
-17.7443
 11
25.4702
 21
-17.9224
  0
LINE
  8
0
 10
25.4702
 20
-17.9224
 11
25.6731
 21
-18.1477
  0
LINE
  8
0
 10
25.6731
 20
-18.1477
 11
25.8246
 21
-18.4102
  0
LINE
  8
0
 10
25.8246
 20
-18.4102
 11
25.9183
 21
-18.6985
  0
LINE
  8
0
 10
25.9183
 20
-18.6985
 11
25.95
 21
-19
  0
LINE
  8
0
 10
25.95
 20
-19
 11
25.9183
 21
-19.3015
  0
LINE
  8
0
 10
25.9183
 20
-19.3015
 11
25.8246
 21
-19.5898
  0
LINE
  8
0
 10
25.8246
 20
-19.5898
 11
25.6731
 21
-19.8523
  0
LINE
  8
0
 10
25.6731
 20
-19.8523
 11
25.4702
 21
-20.0775
  0
LINE
  8
0
 10
25.4702
 20
-20.0775
 11
25.225
 21
-20.2557
  0
LINE
  8
0
 10
25.225
 20
-20.2557
 11
24.9481
 21
-20.379
  0
LINE
  8
0
 10
24.9481
 20
-20.379
 11
24.6516
 21
-20.442
  0
LINE
  8
0
 10
24.6516
 20
-20.442
 11
24.3484
 21
-20.442
  0
LINE
  8
0
 10
-24.6516
 20
-20.442
 11
-24.9481
 21
-20.379
  0
LINE
  8
0
 10
-24.9481
 20
-20.379
 11
-25.225
 21
-20.2557
  0
LINE
  8
0
 10
-25.225
 20
-20.2557
 11
-25.4702
 21
-20.0775
  0
LINE
  8
0
 10
-25.4702
 20
-20.0775
 11
-25.6731
 21
-19.8523
  0
LINE
  8
0
 10
-25.6731
 20
-19.8523
 11
-25.8246
 21
-19.5898
  0
LINE
  8
0
 10
-25.8246
 20
-19.5898
 11
-25.9183
 21
-19.3015
  0
LINE
  8
0
 10
-25.9183
 20
-19.3015
 11
-25.95
 21
-19
  0
LINE
  8
0
 10
-25.95
 20
-19
 11
-25.9183
 21
-18.6985
  0
LINE
  8
0
 10
-25.9183
 20
-18.6985
 11
-25.8246
 21
-18.4102
  0
LINE
  8
0
 10
-25.8246
 20
-18.4102
 11
-25.6731
 21
-18.1477
  0
LINE
  8
0
 10
-25.6731
 20
-18.1477
 11
-25.4702
 21
-17.9224
  0
LINE
  8
0
 10
-25.4702
 20
-17.9224
 11
-25.225
 21
-17.7443
  0
LINE
  8
0
 10
-25.225
 20
-17.7443
 11
-24.9481
 21
-17.621
  0
LINE
  8
0
 10
-24.9481
 20
-17.621
 11
-24.6516
 21
-17.5579
  0
LINE
  8
0
 10
-24.6516
 20
-17.5579
 11
-24.3484
 21
-17.5579
  0
LINE
  8
0
 10
-24.3484
 20
-17.5579
 11
-24.0519
 21
-17.621
  0
LINE
  8
0
 10
-24.0519
 20
-17.621
 11
-23.775
 21
-17.7443
  0
LINE
  8
0
 10
-23.775
 20
-17.7443
 11
-23.5298
 21
-17.9224
  0
LINE
  8
0
 10
-23.5298
 20
-17.9224
 11
-23.3269
 21
-18.1477
  0
LINE
  8
0
 10
-23.3269
 20
-18.1477
 11
-23.1754
 21
-18.4102
  0
LINE
  8
0
 10
-23.1754
 20
-18.4102
 11
-23.0817
 21
-18.6985
  0
LINE
  8
0
 10
-23.0817
 20
-18.6985
 11
-23.05
 21
-19
  0
LINE
  8
0
 10
-23.05
 20
-19
 11
-23.0817
 21
-19.3015
  0
LINE
  8
0
 10
-23.0817
 20
-19.3015
 11
-23.1754
 21
-19.5898
  0
LINE
  8
0
 10
-23.1754
 20
-19.5898
 11
-23.3269
 21
-19.8523
  0
LINE
  8
0
 10
-23.3269
 20
-19.8523
 11
-23.5298
 21
-20.0775
  0
LINE
  8
0
 10
-23.5298
 20
-20.0775
 11
-23.775
 21
-20.2557
  0
LINE
  8
0
 10
-23.775
 20
-20.2557
 11
-24.0519
 21
-20.379
  0
LINE
  8
0
 10
-24.0519
 20
-20.379
 11
-24.3484
 21
-20.442
  0
LINE
  8
0
 10
-24.3484
 20
-20.442
 11
-24.6516
 21
-20.442
  0
ENDSEC
  0
SECTION
  2
OBJECTS
  0
DICTIONARY
  0
ENDSEC
  0
EOF
