solid OpenSCAD_Model
  facet normal 0.994522 0.104529 0
    outer loop
      vertex 22.25 0 1.75
      vertex 21.7638 4.62603 -1.75
      vertex 21.7638 4.62603 1.75
    endloop
  endfacet
  facet normal 0.994522 0.104529 0
    outer loop
      vertex 21.7638 4.62603 -1.75
      vertex 22.25 0 1.75
      vertex 22.25 0 -1.75
    endloop
  endfacet
  facet normal -0.994522 0.104529 0
    outer loop
      vertex -22.25 0 -1.75
      vertex -21.7638 4.62603 1.75
      vertex -21.7638 4.62603 -1.75
    endloop
  endfacet
  facet normal -0.994522 0.104529 0
    outer loop
      vertex -21.7638 4.62603 1.75
      vertex -22.25 0 -1.75
      vertex -22.25 0 1.75
    endloop
  endfacet
  facet normal 0 1 -0
    outer loop
      vertex 2.32576 22.1281 -1.75
      vertex -2.32576 22.1281 1.75
      vertex 2.32576 22.1281 1.75
    endloop
  endfacet
  facet normal 0 1 0
    outer loop
      vertex -2.32576 22.1281 1.75
      vertex 2.32576 22.1281 -1.75
      vertex -2.32576 22.1281 -1.75
    endloop
  endfacet
  facet normal 0 -1 0
    outer loop
      vertex -2.32576 -22.1281 -1.75
      vertex 2.32576 -22.1281 1.75
      vertex -2.32576 -22.1281 1.75
    endloop
  endfacet
  facet normal 0 -1 -0
    outer loop
      vertex 2.32576 -22.1281 1.75
      vertex -2.32576 -22.1281 -1.75
      vertex 2.32576 -22.1281 -1.75
    endloop
  endfacet
  facet normal 0.743145 0.66913 0
    outer loop
      vertex 18.0006 13.0782 1.75
      vertex 14.8882 16.535 -1.75
      vertex 14.8882 16.535 1.75
    endloop
  endfacet
  facet normal 0.743145 0.66913 0
    outer loop
      vertex 14.8882 16.535 -1.75
      vertex 18.0006 13.0782 1.75
      vertex 18.0006 13.0782 -1.75
    endloop
  endfacet
  facet normal -0.587785 0.809017 0
    outer loop
      vertex -11.125 19.2691 -1.75
      vertex -14.8882 16.535 1.75
      vertex -11.125 19.2691 1.75
    endloop
  endfacet
  facet normal -0.587785 0.809017 0
    outer loop
      vertex -14.8882 16.535 1.75
      vertex -11.125 19.2691 -1.75
      vertex -14.8882 16.535 -1.75
    endloop
  endfacet
  facet normal -0.207912 0.978148 0
    outer loop
      vertex -2.32576 22.1281 -1.75
      vertex -6.87563 21.161 1.75
      vertex -2.32576 22.1281 1.75
    endloop
  endfacet
  facet normal -0.207912 0.978148 0
    outer loop
      vertex -6.87563 21.161 1.75
      vertex -2.32576 22.1281 -1.75
      vertex -6.87563 21.161 -1.75
    endloop
  endfacet
  facet normal 0.951057 -0.309017 0
    outer loop
      vertex 20.3264 -9.04989 1.75
      vertex 21.7638 -4.62603 -1.75
      vertex 21.7638 -4.62603 1.75
    endloop
  endfacet
  facet normal 0.951057 -0.309017 0
    outer loop
      vertex 21.7638 -4.62603 -1.75
      vertex 20.3264 -9.04989 1.75
      vertex 20.3264 -9.04989 -1.75
    endloop
  endfacet
  facet normal 0.866025 0.5 0
    outer loop
      vertex 20.3264 9.04989 1.75
      vertex 18.0006 13.0782 -1.75
      vertex 18.0006 13.0782 1.75
    endloop
  endfacet
  facet normal 0.866025 0.5 0
    outer loop
      vertex 18.0006 13.0782 -1.75
      vertex 20.3264 9.04989 1.75
      vertex 20.3264 9.04989 -1.75
    endloop
  endfacet
  facet normal 0.951057 0.309017 0
    outer loop
      vertex 21.7638 4.62603 1.75
      vertex 20.3264 9.04989 -1.75
      vertex 20.3264 9.04989 1.75
    endloop
  endfacet
  facet normal 0.951057 0.309017 0
    outer loop
      vertex 20.3264 9.04989 -1.75
      vertex 21.7638 4.62603 1.75
      vertex 21.7638 4.62603 -1.75
    endloop
  endfacet
  facet normal 0.406736 0.913546 -0
    outer loop
      vertex 11.125 19.2691 -1.75
      vertex 6.87563 21.161 1.75
      vertex 11.125 19.2691 1.75
    endloop
  endfacet
  facet normal 0.406736 0.913546 0
    outer loop
      vertex 6.87563 21.161 1.75
      vertex 11.125 19.2691 -1.75
      vertex 6.87563 21.161 -1.75
    endloop
  endfacet
  facet normal 0.207912 0.978148 -0
    outer loop
      vertex 6.87563 21.161 -1.75
      vertex 2.32576 22.1281 1.75
      vertex 6.87563 21.161 1.75
    endloop
  endfacet
  facet normal 0.207912 0.978148 0
    outer loop
      vertex 2.32576 22.1281 1.75
      vertex 6.87563 21.161 -1.75
      vertex 2.32576 22.1281 -1.75
    endloop
  endfacet
  facet normal 0.587785 0.809017 -0
    outer loop
      vertex 14.8882 16.535 -1.75
      vertex 11.125 19.2691 1.75
      vertex 14.8882 16.535 1.75
    endloop
  endfacet
  facet normal 0.587785 0.809017 0
    outer loop
      vertex 11.125 19.2691 1.75
      vertex 14.8882 16.535 -1.75
      vertex 11.125 19.2691 -1.75
    endloop
  endfacet
  facet normal -0.866025 0.5 0
    outer loop
      vertex -20.3264 9.04989 -1.75
      vertex -18.0006 13.0782 1.75
      vertex -18.0006 13.0782 -1.75
    endloop
  endfacet
  facet normal -0.866025 0.5 0
    outer loop
      vertex -18.0006 13.0782 1.75
      vertex -20.3264 9.04989 -1.75
      vertex -20.3264 9.04989 1.75
    endloop
  endfacet
  facet normal -0.743145 0.66913 0
    outer loop
      vertex -18.0006 13.0782 -1.75
      vertex -14.8882 16.535 1.75
      vertex -14.8882 16.535 -1.75
    endloop
  endfacet
  facet normal -0.743145 0.66913 0
    outer loop
      vertex -14.8882 16.535 1.75
      vertex -18.0006 13.0782 -1.75
      vertex -18.0006 13.0782 1.75
    endloop
  endfacet
  facet normal -0.951057 0.309017 0
    outer loop
      vertex -21.7638 4.62603 -1.75
      vertex -20.3264 9.04989 1.75
      vertex -20.3264 9.04989 -1.75
    endloop
  endfacet
  facet normal -0.951057 0.309017 0
    outer loop
      vertex -20.3264 9.04989 1.75
      vertex -21.7638 4.62603 -1.75
      vertex -21.7638 4.62603 1.75
    endloop
  endfacet
  facet normal 0 0 1
    outer loop
      vertex 19.25 0 1.75
      vertex 22.25 0 1.75
      vertex 21.7638 4.62603 1.75
    endloop
  endfacet
  facet normal 0 0 1
    outer loop
      vertex 18.8293 4.0023 1.75
      vertex 21.7638 4.62603 1.75
      vertex 20.3264 9.04989 1.75
    endloop
  endfacet
  facet normal 0 0 1
    outer loop
      vertex 22.25 0 1.75
      vertex 19.25 0 1.75
      vertex 21.7638 -4.62603 1.75
    endloop
  endfacet
  facet normal -0 0 1
    outer loop
      vertex 18.8293 -4.0023 1.75
      vertex 21.7638 -4.62603 1.75
      vertex 19.25 0 1.75
    endloop
  endfacet
  facet normal 0 0 1
    outer loop
      vertex 21.7638 4.62603 1.75
      vertex 18.8293 4.0023 1.75
      vertex 19.25 0 1.75
    endloop
  endfacet
  facet normal 0 0 1
    outer loop
      vertex 17.5858 7.82968 1.75
      vertex 20.3264 9.04989 1.75
      vertex 18.0006 13.0782 1.75
    endloop
  endfacet
  facet normal 0 0 1
    outer loop
      vertex 20.3264 9.04989 1.75
      vertex 17.5858 7.82968 1.75
      vertex 18.8293 4.0023 1.75
    endloop
  endfacet
  facet normal 0 0 1
    outer loop
      vertex 18.0006 13.0782 1.75
      vertex 15.5736 11.3149 1.75
      vertex 17.5858 7.82968 1.75
    endloop
  endfacet
  facet normal 0 0 1
    outer loop
      vertex 14.8882 16.535 1.75
      vertex 15.5736 11.3149 1.75
      vertex 18.0006 13.0782 1.75
    endloop
  endfacet
  facet normal 0 0 1
    outer loop
      vertex 14.8882 16.535 1.75
      vertex 12.8808 14.3055 1.75
      vertex 15.5736 11.3149 1.75
    endloop
  endfacet
  facet normal 0 0 1
    outer loop
      vertex 11.125 19.2691 1.75
      vertex 12.8808 14.3055 1.75
      vertex 14.8882 16.535 1.75
    endloop
  endfacet
  facet normal 0 0 1
    outer loop
      vertex 11.125 19.2691 1.75
      vertex 9.625 16.671 1.75
      vertex 12.8808 14.3055 1.75
    endloop
  endfacet
  facet normal 0 0 1
    outer loop
      vertex 6.87563 21.161 1.75
      vertex 9.625 16.671 1.75
      vertex 11.125 19.2691 1.75
    endloop
  endfacet
  facet normal 0 0 1
    outer loop
      vertex 6.87563 21.161 1.75
      vertex 5.94858 18.3078 1.75
      vertex 9.625 16.671 1.75
    endloop
  endfacet
  facet normal 0 0 1
    outer loop
      vertex 2.32576 22.1281 1.75
      vertex 5.94858 18.3078 1.75
      vertex 6.87563 21.161 1.75
    endloop
  endfacet
  facet normal 0 0 1
    outer loop
      vertex 2.32576 22.1281 1.75
      vertex 2.01217 19.1445 1.75
      vertex 5.94858 18.3078 1.75
    endloop
  endfacet
  facet normal 0 0 1
    outer loop
      vertex 2.32576 22.1281 1.75
      vertex -2.01217 19.1445 1.75
      vertex 2.01217 19.1445 1.75
    endloop
  endfacet
  facet normal -0 0 1
    outer loop
      vertex -2.32576 22.1281 1.75
      vertex -2.01217 19.1445 1.75
      vertex 2.32576 22.1281 1.75
    endloop
  endfacet
  facet normal 0 0 1
    outer loop
      vertex -2.32576 22.1281 1.75
      vertex -5.94858 18.3078 1.75
      vertex -2.01217 19.1445 1.75
    endloop
  endfacet
  facet normal -0 0 1
    outer loop
      vertex -6.87563 21.161 1.75
      vertex -5.94858 18.3078 1.75
      vertex -2.32576 22.1281 1.75
    endloop
  endfacet
  facet normal 0 0 1
    outer loop
      vertex -6.87563 21.161 1.75
      vertex -9.625 16.671 1.75
      vertex -5.94858 18.3078 1.75
    endloop
  endfacet
  facet normal -0 0 1
    outer loop
      vertex -11.125 19.2691 1.75
      vertex -9.625 16.671 1.75
      vertex -6.87563 21.161 1.75
    endloop
  endfacet
  facet normal 0 0 1
    outer loop
      vertex -11.125 19.2691 1.75
      vertex -12.8808 14.3055 1.75
      vertex -9.625 16.671 1.75
    endloop
  endfacet
  facet normal -0 0 1
    outer loop
      vertex -14.8882 16.535 1.75
      vertex -12.8808 14.3055 1.75
      vertex -11.125 19.2691 1.75
    endloop
  endfacet
  facet normal 0 0 1
    outer loop
      vertex -14.8882 16.535 1.75
      vertex -15.5736 11.3149 1.75
      vertex -12.8808 14.3055 1.75
    endloop
  endfacet
  facet normal -0 0 1
    outer loop
      vertex -18.0006 13.0782 1.75
      vertex -15.5736 11.3149 1.75
      vertex -14.8882 16.535 1.75
    endloop
  endfacet
  facet normal 0 0 1
    outer loop
      vertex -15.5736 11.3149 1.75
      vertex -18.0006 13.0782 1.75
      vertex -17.5858 7.82968 1.75
    endloop
  endfacet
  facet normal -0 0 1
    outer loop
      vertex -20.3264 9.04989 1.75
      vertex -17.5858 7.82968 1.75
      vertex -18.0006 13.0782 1.75
    endloop
  endfacet
  facet normal 0 0 1
    outer loop
      vertex -17.5858 7.82968 1.75
      vertex -20.3264 9.04989 1.75
      vertex -18.8293 4.0023 1.75
    endloop
  endfacet
  facet normal -0 0 1
    outer loop
      vertex -21.7638 4.62603 1.75
      vertex -18.8293 4.0023 1.75
      vertex -20.3264 9.04989 1.75
    endloop
  endfacet
  facet normal 0 0 1
    outer loop
      vertex 21.7638 -4.62603 1.75
      vertex 18.8293 -4.0023 1.75
      vertex 20.3264 -9.04989 1.75
    endloop
  endfacet
  facet normal -0 0 1
    outer loop
      vertex 17.5858 -7.82968 1.75
      vertex 20.3264 -9.04989 1.75
      vertex 18.8293 -4.0023 1.75
    endloop
  endfacet
  facet normal 0 0 1
    outer loop
      vertex 20.3264 -9.04989 1.75
      vertex 17.5858 -7.82968 1.75
      vertex 18.0006 -13.0782 1.75
    endloop
  endfacet
  facet normal -0 0 1
    outer loop
      vertex 15.5736 -11.3149 1.75
      vertex 18.0006 -13.0782 1.75
      vertex 17.5858 -7.82968 1.75
    endloop
  endfacet
  facet normal 0 0 1
    outer loop
      vertex 15.5736 -11.3149 1.75
      vertex 14.8882 -16.535 1.75
      vertex 18.0006 -13.0782 1.75
    endloop
  endfacet
  facet normal -0 0 1
    outer loop
      vertex 12.8808 -14.3055 1.75
      vertex 14.8882 -16.535 1.75
      vertex 15.5736 -11.3149 1.75
    endloop
  endfacet
  facet normal 0 0 1
    outer loop
      vertex 12.8808 -14.3055 1.75
      vertex 11.125 -19.2691 1.75
      vertex 14.8882 -16.535 1.75
    endloop
  endfacet
  facet normal -0 0 1
    outer loop
      vertex 9.625 -16.671 1.75
      vertex 11.125 -19.2691 1.75
      vertex 12.8808 -14.3055 1.75
    endloop
  endfacet
  facet normal 0 0 1
    outer loop
      vertex 9.625 -16.671 1.75
      vertex 6.87563 -21.161 1.75
      vertex 11.125 -19.2691 1.75
    endloop
  endfacet
  facet normal -0 0 1
    outer loop
      vertex 5.94858 -18.3078 1.75
      vertex 6.87563 -21.161 1.75
      vertex 9.625 -16.671 1.75
    endloop
  endfacet
  facet normal 0 0 1
    outer loop
      vertex 5.94858 -18.3078 1.75
      vertex 2.32576 -22.1281 1.75
      vertex 6.87563 -21.161 1.75
    endloop
  endfacet
  facet normal -0 0 1
    outer loop
      vertex 2.01217 -19.1445 1.75
      vertex 2.32576 -22.1281 1.75
      vertex 5.94858 -18.3078 1.75
    endloop
  endfacet
  facet normal -0 0 1
    outer loop
      vertex -2.01217 -19.1445 1.75
      vertex 2.32576 -22.1281 1.75
      vertex 2.01217 -19.1445 1.75
    endloop
  endfacet
  facet normal 0 0 1
    outer loop
      vertex -2.01217 -19.1445 1.75
      vertex -2.32576 -22.1281 1.75
      vertex 2.32576 -22.1281 1.75
    endloop
  endfacet
  facet normal 0 0 1
    outer loop
      vertex -5.94858 -18.3078 1.75
      vertex -2.32576 -22.1281 1.75
      vertex -2.01217 -19.1445 1.75
    endloop
  endfacet
  facet normal 0 0 1
    outer loop
      vertex -5.94858 -18.3078 1.75
      vertex -6.87563 -21.161 1.75
      vertex -2.32576 -22.1281 1.75
    endloop
  endfacet
  facet normal 0 0 1
    outer loop
      vertex -9.625 -16.671 1.75
      vertex -6.87563 -21.161 1.75
      vertex -5.94858 -18.3078 1.75
    endloop
  endfacet
  facet normal 0 0 1
    outer loop
      vertex -9.625 -16.671 1.75
      vertex -11.125 -19.2691 1.75
      vertex -6.87563 -21.161 1.75
    endloop
  endfacet
  facet normal 0 0 1
    outer loop
      vertex -12.8808 -14.3055 1.75
      vertex -11.125 -19.2691 1.75
      vertex -9.625 -16.671 1.75
    endloop
  endfacet
  facet normal 0 0 1
    outer loop
      vertex -12.8808 -14.3055 1.75
      vertex -14.8882 -16.535 1.75
      vertex -11.125 -19.2691 1.75
    endloop
  endfacet
  facet normal 0 0 1
    outer loop
      vertex -15.5736 -11.3149 1.75
      vertex -14.8882 -16.535 1.75
      vertex -12.8808 -14.3055 1.75
    endloop
  endfacet
  facet normal 0 0 1
    outer loop
      vertex -18.0006 -13.0782 1.75
      vertex -15.5736 -11.3149 1.75
      vertex -17.5858 -7.82968 1.75
    endloop
  endfacet
  facet normal 0 0 1
    outer loop
      vertex -15.5736 -11.3149 1.75
      vertex -18.0006 -13.0782 1.75
      vertex -14.8882 -16.535 1.75
    endloop
  endfacet
  facet normal 0 0 1
    outer loop
      vertex -20.3264 -9.04989 1.75
      vertex -17.5858 -7.82968 1.75
      vertex -18.8293 -4.0023 1.75
    endloop
  endfacet
  facet normal 0 0 1
    outer loop
      vertex -21.7638 -4.62603 1.75
      vertex -18.8293 -4.0023 1.75
      vertex -19.25 0 1.75
    endloop
  endfacet
  facet normal 0 0 1
    outer loop
      vertex -18.8293 4.0023 1.75
      vertex -21.7638 4.62603 1.75
      vertex -19.25 0 1.75
    endloop
  endfacet
  facet normal 0 0 1
    outer loop
      vertex -17.5858 -7.82968 1.75
      vertex -20.3264 -9.04989 1.75
      vertex -18.0006 -13.0782 1.75
    endloop
  endfacet
  facet normal 0 0 1
    outer loop
      vertex -22.25 0 1.75
      vertex -19.25 0 1.75
      vertex -21.7638 4.62603 1.75
    endloop
  endfacet
  facet normal 0 0 1
    outer loop
      vertex -18.8293 -4.0023 1.75
      vertex -21.7638 -4.62603 1.75
      vertex -20.3264 -9.04989 1.75
    endloop
  endfacet
  facet normal 0 0 1
    outer loop
      vertex -19.25 0 1.75
      vertex -22.25 0 1.75
      vertex -21.7638 -4.62603 1.75
    endloop
  endfacet
  facet normal -0.406736 0.913546 0
    outer loop
      vertex -6.87563 21.161 -1.75
      vertex -11.125 19.2691 1.75
      vertex -6.87563 21.161 1.75
    endloop
  endfacet
  facet normal -0.406736 0.913546 0
    outer loop
      vertex -11.125 19.2691 1.75
      vertex -6.87563 21.161 -1.75
      vertex -11.125 19.2691 -1.75
    endloop
  endfacet
  facet normal 0.994522 -0.104529 0
    outer loop
      vertex 21.7638 -4.62603 1.75
      vertex 22.25 0 -1.75
      vertex 22.25 0 1.75
    endloop
  endfacet
  facet normal 0.994522 -0.104529 0
    outer loop
      vertex 22.25 0 -1.75
      vertex 21.7638 -4.62603 1.75
      vertex 21.7638 -4.62603 -1.75
    endloop
  endfacet
  facet normal 0 0 -1
    outer loop
      vertex 19.25 0 -1.75
      vertex 22.25 0 -1.75
      vertex 21.7638 -4.62603 -1.75
    endloop
  endfacet
  facet normal 0 0 -1
    outer loop
      vertex 18.8293 -4.0023 -1.75
      vertex 21.7638 -4.62603 -1.75
      vertex 20.3264 -9.04989 -1.75
    endloop
  endfacet
  facet normal 0 0 -1
    outer loop
      vertex 22.25 0 -1.75
      vertex 19.25 0 -1.75
      vertex 21.7638 4.62603 -1.75
    endloop
  endfacet
  facet normal 0 0 -1
    outer loop
      vertex 18.8293 4.0023 -1.75
      vertex 21.7638 4.62603 -1.75
      vertex 19.25 0 -1.75
    endloop
  endfacet
  facet normal 0 0 -1
    outer loop
      vertex 21.7638 -4.62603 -1.75
      vertex 18.8293 -4.0023 -1.75
      vertex 19.25 0 -1.75
    endloop
  endfacet
  facet normal 0 0 -1
    outer loop
      vertex 17.5858 -7.82968 -1.75
      vertex 20.3264 -9.04989 -1.75
      vertex 18.0006 -13.0782 -1.75
    endloop
  endfacet
  facet normal 0 0 -1
    outer loop
      vertex 20.3264 -9.04989 -1.75
      vertex 17.5858 -7.82968 -1.75
      vertex 18.8293 -4.0023 -1.75
    endloop
  endfacet
  facet normal 0 0 -1
    outer loop
      vertex 18.0006 -13.0782 -1.75
      vertex 15.5736 -11.3149 -1.75
      vertex 17.5858 -7.82968 -1.75
    endloop
  endfacet
  facet normal 0 0 -1
    outer loop
      vertex 14.8882 -16.535 -1.75
      vertex 15.5736 -11.3149 -1.75
      vertex 18.0006 -13.0782 -1.75
    endloop
  endfacet
  facet normal 0 0 -1
    outer loop
      vertex 14.8882 -16.535 -1.75
      vertex 12.8808 -14.3055 -1.75
      vertex 15.5736 -11.3149 -1.75
    endloop
  endfacet
  facet normal 0 0 -1
    outer loop
      vertex 11.125 -19.2691 -1.75
      vertex 12.8808 -14.3055 -1.75
      vertex 14.8882 -16.535 -1.75
    endloop
  endfacet
  facet normal 0 0 -1
    outer loop
      vertex 11.125 -19.2691 -1.75
      vertex 9.625 -16.671 -1.75
      vertex 12.8808 -14.3055 -1.75
    endloop
  endfacet
  facet normal 0 0 -1
    outer loop
      vertex 6.87563 -21.161 -1.75
      vertex 9.625 -16.671 -1.75
      vertex 11.125 -19.2691 -1.75
    endloop
  endfacet
  facet normal 0 0 -1
    outer loop
      vertex 6.87563 -21.161 -1.75
      vertex 5.94858 -18.3078 -1.75
      vertex 9.625 -16.671 -1.75
    endloop
  endfacet
  facet normal 0 0 -1
    outer loop
      vertex 2.32576 -22.1281 -1.75
      vertex 5.94858 -18.3078 -1.75
      vertex 6.87563 -21.161 -1.75
    endloop
  endfacet
  facet normal 0 0 -1
    outer loop
      vertex 2.32576 -22.1281 -1.75
      vertex 2.01217 -19.1445 -1.75
      vertex 5.94858 -18.3078 -1.75
    endloop
  endfacet
  facet normal 0 0 -1
    outer loop
      vertex 2.32576 -22.1281 -1.75
      vertex -2.01217 -19.1445 -1.75
      vertex 2.01217 -19.1445 -1.75
    endloop
  endfacet
  facet normal 0 0 -1
    outer loop
      vertex -2.32576 -22.1281 -1.75
      vertex -2.01217 -19.1445 -1.75
      vertex 2.32576 -22.1281 -1.75
    endloop
  endfacet
  facet normal 0 0 -1
    outer loop
      vertex -2.32576 -22.1281 -1.75
      vertex -5.94858 -18.3078 -1.75
      vertex -2.01217 -19.1445 -1.75
    endloop
  endfacet
  facet normal 0 0 -1
    outer loop
      vertex -6.87563 -21.161 -1.75
      vertex -5.94858 -18.3078 -1.75
      vertex -2.32576 -22.1281 -1.75
    endloop
  endfacet
  facet normal 0 0 -1
    outer loop
      vertex -6.87563 -21.161 -1.75
      vertex -9.625 -16.671 -1.75
      vertex -5.94858 -18.3078 -1.75
    endloop
  endfacet
  facet normal 0 0 -1
    outer loop
      vertex -11.125 -19.2691 -1.75
      vertex -9.625 -16.671 -1.75
      vertex -6.87563 -21.161 -1.75
    endloop
  endfacet
  facet normal 0 0 -1
    outer loop
      vertex -11.125 -19.2691 -1.75
      vertex -12.8808 -14.3055 -1.75
      vertex -9.625 -16.671 -1.75
    endloop
  endfacet
  facet normal 0 0 -1
    outer loop
      vertex -14.8882 -16.535 -1.75
      vertex -12.8808 -14.3055 -1.75
      vertex -11.125 -19.2691 -1.75
    endloop
  endfacet
  facet normal 0 0 -1
    outer loop
      vertex -14.8882 -16.535 -1.75
      vertex -15.5736 -11.3149 -1.75
      vertex -12.8808 -14.3055 -1.75
    endloop
  endfacet
  facet normal 0 0 -1
    outer loop
      vertex -18.0006 -13.0782 -1.75
      vertex -15.5736 -11.3149 -1.75
      vertex -14.8882 -16.535 -1.75
    endloop
  endfacet
  facet normal -0 0 -1
    outer loop
      vertex -15.5736 -11.3149 -1.75
      vertex -18.0006 -13.0782 -1.75
      vertex -17.5858 -7.82968 -1.75
    endloop
  endfacet
  facet normal 0 0 -1
    outer loop
      vertex -20.3264 -9.04989 -1.75
      vertex -17.5858 -7.82968 -1.75
      vertex -18.0006 -13.0782 -1.75
    endloop
  endfacet
  facet normal -0 0 -1
    outer loop
      vertex -17.5858 -7.82968 -1.75
      vertex -20.3264 -9.04989 -1.75
      vertex -18.8293 -4.0023 -1.75
    endloop
  endfacet
  facet normal 0 0 -1
    outer loop
      vertex -21.7638 -4.62603 -1.75
      vertex -18.8293 -4.0023 -1.75
      vertex -20.3264 -9.04989 -1.75
    endloop
  endfacet
  facet normal -0 0 -1
    outer loop
      vertex 21.7638 4.62603 -1.75
      vertex 18.8293 4.0023 -1.75
      vertex 20.3264 9.04989 -1.75
    endloop
  endfacet
  facet normal 0 0 -1
    outer loop
      vertex 17.5858 7.82968 -1.75
      vertex 20.3264 9.04989 -1.75
      vertex 18.8293 4.0023 -1.75
    endloop
  endfacet
  facet normal -0 0 -1
    outer loop
      vertex 20.3264 9.04989 -1.75
      vertex 17.5858 7.82968 -1.75
      vertex 18.0006 13.0782 -1.75
    endloop
  endfacet
  facet normal 0 0 -1
    outer loop
      vertex 15.5736 11.3149 -1.75
      vertex 18.0006 13.0782 -1.75
      vertex 17.5858 7.82968 -1.75
    endloop
  endfacet
  facet normal 0 0 -1
    outer loop
      vertex 15.5736 11.3149 -1.75
      vertex 14.8882 16.535 -1.75
      vertex 18.0006 13.0782 -1.75
    endloop
  endfacet
  facet normal 0 0 -1
    outer loop
      vertex 12.8808 14.3055 -1.75
      vertex 14.8882 16.535 -1.75
      vertex 15.5736 11.3149 -1.75
    endloop
  endfacet
  facet normal 0 0 -1
    outer loop
      vertex 12.8808 14.3055 -1.75
      vertex 11.125 19.2691 -1.75
      vertex 14.8882 16.535 -1.75
    endloop
  endfacet
  facet normal 0 0 -1
    outer loop
      vertex 9.625 16.671 -1.75
      vertex 11.125 19.2691 -1.75
      vertex 12.8808 14.3055 -1.75
    endloop
  endfacet
  facet normal 0 0 -1
    outer loop
      vertex 9.625 16.671 -1.75
      vertex 6.87563 21.161 -1.75
      vertex 11.125 19.2691 -1.75
    endloop
  endfacet
  facet normal 0 0 -1
    outer loop
      vertex 5.94858 18.3078 -1.75
      vertex 6.87563 21.161 -1.75
      vertex 9.625 16.671 -1.75
    endloop
  endfacet
  facet normal 0 0 -1
    outer loop
      vertex 5.94858 18.3078 -1.75
      vertex 2.32576 22.1281 -1.75
      vertex 6.87563 21.161 -1.75
    endloop
  endfacet
  facet normal 0 0 -1
    outer loop
      vertex 2.01217 19.1445 -1.75
      vertex 2.32576 22.1281 -1.75
      vertex 5.94858 18.3078 -1.75
    endloop
  endfacet
  facet normal 0 0 -1
    outer loop
      vertex -2.01217 19.1445 -1.75
      vertex 2.32576 22.1281 -1.75
      vertex 2.01217 19.1445 -1.75
    endloop
  endfacet
  facet normal 0 0 -1
    outer loop
      vertex -2.01217 19.1445 -1.75
      vertex -2.32576 22.1281 -1.75
      vertex 2.32576 22.1281 -1.75
    endloop
  endfacet
  facet normal 0 0 -1
    outer loop
      vertex -5.94858 18.3078 -1.75
      vertex -2.32576 22.1281 -1.75
      vertex -2.01217 19.1445 -1.75
    endloop
  endfacet
  facet normal 0 0 -1
    outer loop
      vertex -5.94858 18.3078 -1.75
      vertex -6.87563 21.161 -1.75
      vertex -2.32576 22.1281 -1.75
    endloop
  endfacet
  facet normal 0 0 -1
    outer loop
      vertex -9.625 16.671 -1.75
      vertex -6.87563 21.161 -1.75
      vertex -5.94858 18.3078 -1.75
    endloop
  endfacet
  facet normal 0 0 -1
    outer loop
      vertex -9.625 16.671 -1.75
      vertex -11.125 19.2691 -1.75
      vertex -6.87563 21.161 -1.75
    endloop
  endfacet
  facet normal 0 0 -1
    outer loop
      vertex -12.8808 14.3055 -1.75
      vertex -11.125 19.2691 -1.75
      vertex -9.625 16.671 -1.75
    endloop
  endfacet
  facet normal 0 0 -1
    outer loop
      vertex -12.8808 14.3055 -1.75
      vertex -14.8882 16.535 -1.75
      vertex -11.125 19.2691 -1.75
    endloop
  endfacet
  facet normal 0 0 -1
    outer loop
      vertex -15.5736 11.3149 -1.75
      vertex -14.8882 16.535 -1.75
      vertex -12.8808 14.3055 -1.75
    endloop
  endfacet
  facet normal 0 0 -1
    outer loop
      vertex -18.0006 13.0782 -1.75
      vertex -15.5736 11.3149 -1.75
      vertex -17.5858 7.82968 -1.75
    endloop
  endfacet
  facet normal 0 0 -1
    outer loop
      vertex -15.5736 11.3149 -1.75
      vertex -18.0006 13.0782 -1.75
      vertex -14.8882 16.535 -1.75
    endloop
  endfacet
  facet normal 0 0 -1
    outer loop
      vertex -20.3264 9.04989 -1.75
      vertex -17.5858 7.82968 -1.75
      vertex -18.8293 4.0023 -1.75
    endloop
  endfacet
  facet normal 0 0 -1
    outer loop
      vertex -21.7638 4.62603 -1.75
      vertex -18.8293 4.0023 -1.75
      vertex -19.25 0 -1.75
    endloop
  endfacet
  facet normal -0 0 -1
    outer loop
      vertex -18.8293 -4.0023 -1.75
      vertex -21.7638 -4.62603 -1.75
      vertex -19.25 0 -1.75
    endloop
  endfacet
  facet normal 0 0 -1
    outer loop
      vertex -17.5858 7.82968 -1.75
      vertex -20.3264 9.04989 -1.75
      vertex -18.0006 13.0782 -1.75
    endloop
  endfacet
  facet normal 0 0 -1
    outer loop
      vertex -22.25 0 -1.75
      vertex -19.25 0 -1.75
      vertex -21.7638 -4.62603 -1.75
    endloop
  endfacet
  facet normal 0 0 -1
    outer loop
      vertex -18.8293 4.0023 -1.75
      vertex -21.7638 4.62603 -1.75
      vertex -20.3264 9.04989 -1.75
    endloop
  endfacet
  facet normal 0 0 -1
    outer loop
      vertex -19.25 0 -1.75
      vertex -22.25 0 -1.75
      vertex -21.7638 4.62603 -1.75
    endloop
  endfacet
  facet normal 0.866025 -0.5 0
    outer loop
      vertex 18.0006 -13.0782 1.75
      vertex 20.3264 -9.04989 -1.75
      vertex 20.3264 -9.04989 1.75
    endloop
  endfacet
  facet normal 0.866025 -0.5 0
    outer loop
      vertex 20.3264 -9.04989 -1.75
      vertex 18.0006 -13.0782 1.75
      vertex 18.0006 -13.0782 -1.75
    endloop
  endfacet
  facet normal -0.866025 -0.5 0
    outer loop
      vertex -18.0006 -13.0782 -1.75
      vertex -20.3264 -9.04989 1.75
      vertex -20.3264 -9.04989 -1.75
    endloop
  endfacet
  facet normal -0.866025 -0.5 0
    outer loop
      vertex -20.3264 -9.04989 1.75
      vertex -18.0006 -13.0782 -1.75
      vertex -18.0006 -13.0782 1.75
    endloop
  endfacet
  facet normal -0.743145 -0.66913 0
    outer loop
      vertex -14.8882 -16.535 -1.75
      vertex -18.0006 -13.0782 1.75
      vertex -18.0006 -13.0782 -1.75
    endloop
  endfacet
  facet normal -0.743145 -0.66913 0
    outer loop
      vertex -18.0006 -13.0782 1.75
      vertex -14.8882 -16.535 -1.75
      vertex -14.8882 -16.535 1.75
    endloop
  endfacet
  facet normal 0.587785 -0.809017 0
    outer loop
      vertex 11.125 -19.2691 -1.75
      vertex 14.8882 -16.535 1.75
      vertex 11.125 -19.2691 1.75
    endloop
  endfacet
  facet normal 0.587785 -0.809017 0
    outer loop
      vertex 14.8882 -16.535 1.75
      vertex 11.125 -19.2691 -1.75
      vertex 14.8882 -16.535 -1.75
    endloop
  endfacet
  facet normal -0.207912 -0.978148 0
    outer loop
      vertex -6.87563 -21.161 -1.75
      vertex -2.32576 -22.1281 1.75
      vertex -6.87563 -21.161 1.75
    endloop
  endfacet
  facet normal -0.207912 -0.978148 -0
    outer loop
      vertex -2.32576 -22.1281 1.75
      vertex -6.87563 -21.161 -1.75
      vertex -2.32576 -22.1281 -1.75
    endloop
  endfacet
  facet normal -0.951057 -0.309017 0
    outer loop
      vertex -20.3264 -9.04989 -1.75
      vertex -21.7638 -4.62603 1.75
      vertex -21.7638 -4.62603 -1.75
    endloop
  endfacet
  facet normal -0.951057 -0.309017 0
    outer loop
      vertex -21.7638 -4.62603 1.75
      vertex -20.3264 -9.04989 -1.75
      vertex -20.3264 -9.04989 1.75
    endloop
  endfacet
  facet normal -0.994522 -0.104529 0
    outer loop
      vertex -21.7638 -4.62603 -1.75
      vertex -22.25 0 1.75
      vertex -22.25 0 -1.75
    endloop
  endfacet
  facet normal -0.994522 -0.104529 0
    outer loop
      vertex -22.25 0 1.75
      vertex -21.7638 -4.62603 -1.75
      vertex -21.7638 -4.62603 1.75
    endloop
  endfacet
  facet normal 0.406736 -0.913546 0
    outer loop
      vertex 6.87563 -21.161 -1.75
      vertex 11.125 -19.2691 1.75
      vertex 6.87563 -21.161 1.75
    endloop
  endfacet
  facet normal 0.406736 -0.913546 0
    outer loop
      vertex 11.125 -19.2691 1.75
      vertex 6.87563 -21.161 -1.75
      vertex 11.125 -19.2691 -1.75
    endloop
  endfacet
  facet normal 0.207912 -0.978148 0
    outer loop
      vertex 2.32576 -22.1281 -1.75
      vertex 6.87563 -21.161 1.75
      vertex 2.32576 -22.1281 1.75
    endloop
  endfacet
  facet normal 0.207912 -0.978148 0
    outer loop
      vertex 6.87563 -21.161 1.75
      vertex 2.32576 -22.1281 -1.75
      vertex 6.87563 -21.161 -1.75
    endloop
  endfacet
  facet normal 0.743145 -0.66913 0
    outer loop
      vertex 14.8882 -16.535 1.75
      vertex 18.0006 -13.0782 -1.75
      vertex 18.0006 -13.0782 1.75
    endloop
  endfacet
  facet normal 0.743145 -0.66913 0
    outer loop
      vertex 18.0006 -13.0782 -1.75
      vertex 14.8882 -16.535 1.75
      vertex 14.8882 -16.535 -1.75
    endloop
  endfacet
  facet normal -0.406736 -0.913546 0
    outer loop
      vertex -11.125 -19.2691 -1.75
      vertex -6.87563 -21.161 1.75
      vertex -11.125 -19.2691 1.75
    endloop
  endfacet
  facet normal -0.406736 -0.913546 -0
    outer loop
      vertex -6.87563 -21.161 1.75
      vertex -11.125 -19.2691 -1.75
      vertex -6.87563 -21.161 -1.75
    endloop
  endfacet
  facet normal -0.587785 -0.809017 0
    outer loop
      vertex -14.8882 -16.535 -1.75
      vertex -11.125 -19.2691 1.75
      vertex -14.8882 -16.535 1.75
    endloop
  endfacet
  facet normal -0.587785 -0.809017 -0
    outer loop
      vertex -11.125 -19.2691 1.75
      vertex -14.8882 -16.535 -1.75
      vertex -11.125 -19.2691 -1.75
    endloop
  endfacet
  facet normal -0.866025 -0.5 0
    outer loop
      vertex 19.4128 8.64315 -1
      vertex 17.1916 12.4904 1
      vertex 17.1916 12.4904 -1
    endloop
  endfacet
  facet normal -0.866025 -0.5 0
    outer loop
      vertex 17.1916 12.4904 1
      vertex 19.4128 8.64315 -1
      vertex 19.4128 8.64315 1
    endloop
  endfacet
  facet normal -0.951057 -0.309017 0
    outer loop
      vertex 20.7856 4.41812 -1
      vertex 19.4128 8.64315 1
      vertex 19.4128 8.64315 -1
    endloop
  endfacet
  facet normal -0.951057 -0.309017 0
    outer loop
      vertex 19.4128 8.64315 1
      vertex 20.7856 4.41812 -1
      vertex 20.7856 4.41812 1
    endloop
  endfacet
  facet normal -0.207912 -0.978148 0
    outer loop
      vertex 2.22123 21.1336 -1
      vertex 6.56661 20.2099 1
      vertex 2.22123 21.1336 1
    endloop
  endfacet
  facet normal -0.207912 -0.978148 -0
    outer loop
      vertex 6.56661 20.2099 1
      vertex 2.22123 21.1336 -1
      vertex 6.56661 20.2099 -1
    endloop
  endfacet
  facet normal -0.406737 -0.913545 0
    outer loop
      vertex 6.56661 20.2099 -1
      vertex 10.625 18.403 1
      vertex 6.56661 20.2099 1
    endloop
  endfacet
  facet normal -0.406737 -0.913545 -0
    outer loop
      vertex 10.625 18.403 1
      vertex 6.56661 20.2099 -1
      vertex 10.625 18.403 -1
    endloop
  endfacet
  facet normal 0.406737 -0.913545 0
    outer loop
      vertex -10.625 18.403 -1
      vertex -6.56661 20.2099 1
      vertex -10.625 18.403 1
    endloop
  endfacet
  facet normal 0.406737 -0.913545 0
    outer loop
      vertex -6.56661 20.2099 1
      vertex -10.625 18.403 -1
      vertex -6.56661 20.2099 -1
    endloop
  endfacet
  facet normal -0.994522 0.104528 0
    outer loop
      vertex 20.7856 -4.41812 -1
      vertex 21.25 0 1
      vertex 21.25 0 -1
    endloop
  endfacet
  facet normal -0.994522 0.104528 0
    outer loop
      vertex 21.25 0 1
      vertex 20.7856 -4.41812 -1
      vertex 20.7856 -4.41812 1
    endloop
  endfacet
  facet normal -0.743145 -0.669131 0
    outer loop
      vertex 17.1916 12.4904 -1
      vertex 14.219 15.7918 1
      vertex 14.219 15.7918 -1
    endloop
  endfacet
  facet normal -0.743145 -0.669131 0
    outer loop
      vertex 14.219 15.7918 1
      vertex 17.1916 12.4904 -1
      vertex 17.1916 12.4904 1
    endloop
  endfacet
  facet normal 0 -1 0
    outer loop
      vertex -2.22123 21.1336 -1
      vertex 2.22123 21.1336 1
      vertex -2.22123 21.1336 1
    endloop
  endfacet
  facet normal 0 -1 -0
    outer loop
      vertex 2.22123 21.1336 1
      vertex -2.22123 21.1336 -1
      vertex 2.22123 21.1336 -1
    endloop
  endfacet
  facet normal -0.587785 -0.809017 0
    outer loop
      vertex 10.625 18.403 -1
      vertex 14.219 15.7918 1
      vertex 10.625 18.403 1
    endloop
  endfacet
  facet normal -0.587785 -0.809017 -0
    outer loop
      vertex 14.219 15.7918 1
      vertex 10.625 18.403 -1
      vertex 14.219 15.7918 -1
    endloop
  endfacet
  facet normal 0.994522 -0.104528 0
    outer loop
      vertex -21.25 0 1
      vertex -20.7856 4.41812 -1
      vertex -20.7856 4.41812 1
    endloop
  endfacet
  facet normal 0.994522 -0.104528 0
    outer loop
      vertex -20.7856 4.41812 -1
      vertex -21.25 0 1
      vertex -21.25 0 -1
    endloop
  endfacet
  facet normal 0.866025 -0.5 0
    outer loop
      vertex -19.4128 8.64315 1
      vertex -17.1916 12.4904 -1
      vertex -17.1916 12.4904 1
    endloop
  endfacet
  facet normal 0.866025 -0.5 0
    outer loop
      vertex -17.1916 12.4904 -1
      vertex -19.4128 8.64315 1
      vertex -19.4128 8.64315 -1
    endloop
  endfacet
  facet normal 0.587785 -0.809017 0
    outer loop
      vertex -14.219 15.7918 -1
      vertex -10.625 18.403 1
      vertex -14.219 15.7918 1
    endloop
  endfacet
  facet normal 0.587785 -0.809017 0
    outer loop
      vertex -10.625 18.403 1
      vertex -14.219 15.7918 -1
      vertex -10.625 18.403 -1
    endloop
  endfacet
  facet normal 0.207912 -0.978148 0
    outer loop
      vertex -6.56661 20.2099 -1
      vertex -2.22123 21.1336 1
      vertex -6.56661 20.2099 1
    endloop
  endfacet
  facet normal 0.207912 -0.978148 0
    outer loop
      vertex -2.22123 21.1336 1
      vertex -6.56661 20.2099 -1
      vertex -2.22123 21.1336 -1
    endloop
  endfacet
  facet normal 0.743145 -0.669131 0
    outer loop
      vertex -17.1916 12.4904 1
      vertex -14.219 15.7918 -1
      vertex -14.219 15.7918 1
    endloop
  endfacet
  facet normal 0.743145 -0.669131 0
    outer loop
      vertex -14.219 15.7918 -1
      vertex -17.1916 12.4904 1
      vertex -17.1916 12.4904 -1
    endloop
  endfacet
  facet normal -0.994522 -0.104528 0
    outer loop
      vertex 21.25 0 -1
      vertex 20.7856 4.41812 1
      vertex 20.7856 4.41812 -1
    endloop
  endfacet
  facet normal -0.994522 -0.104528 0
    outer loop
      vertex 20.7856 4.41812 1
      vertex 21.25 0 -1
      vertex 21.25 0 1
    endloop
  endfacet
  facet normal -0.951057 0.309017 0
    outer loop
      vertex 19.4128 -8.64315 -1
      vertex 20.7856 -4.41812 1
      vertex 20.7856 -4.41812 -1
    endloop
  endfacet
  facet normal -0.951057 0.309017 0
    outer loop
      vertex 20.7856 -4.41812 1
      vertex 19.4128 -8.64315 -1
      vertex 19.4128 -8.64315 1
    endloop
  endfacet
  facet normal 0.866025 0.5 0
    outer loop
      vertex -17.1916 -12.4904 1
      vertex -19.4128 -8.64315 -1
      vertex -19.4128 -8.64315 1
    endloop
  endfacet
  facet normal 0.866025 0.5 0
    outer loop
      vertex -19.4128 -8.64315 -1
      vertex -17.1916 -12.4904 1
      vertex -17.1916 -12.4904 -1
    endloop
  endfacet
  facet normal -0.587785 0.809017 0
    outer loop
      vertex 14.219 -15.7918 -1
      vertex 10.625 -18.403 1
      vertex 14.219 -15.7918 1
    endloop
  endfacet
  facet normal -0.587785 0.809017 0
    outer loop
      vertex 10.625 -18.403 1
      vertex 14.219 -15.7918 -1
      vertex 10.625 -18.403 -1
    endloop
  endfacet
  facet normal 0 0 -1
    outer loop
      vertex 19.25 0 1
      vertex 21.25 0 1
      vertex 20.7856 -4.41812 1
    endloop
  endfacet
  facet normal 0 0 -1
    outer loop
      vertex 18.8293 -4.0023 1
      vertex 20.7856 -4.41812 1
      vertex 19.4128 -8.64315 1
    endloop
  endfacet
  facet normal 0 0 -1
    outer loop
      vertex 21.25 0 1
      vertex 19.25 0 1
      vertex 20.7856 4.41812 1
    endloop
  endfacet
  facet normal 0 0 -1
    outer loop
      vertex 18.8293 4.0023 1
      vertex 20.7856 4.41812 1
      vertex 19.25 0 1
    endloop
  endfacet
  facet normal 0 0 -1
    outer loop
      vertex 20.7856 -4.41812 1
      vertex 18.8293 -4.0023 1
      vertex 19.25 0 1
    endloop
  endfacet
  facet normal 0 0 -1
    outer loop
      vertex 19.4128 -8.64315 1
      vertex 17.5858 -7.82968 1
      vertex 18.8293 -4.0023 1
    endloop
  endfacet
  facet normal 0 0 -1
    outer loop
      vertex 17.1916 -12.4904 1
      vertex 17.5858 -7.82968 1
      vertex 19.4128 -8.64315 1
    endloop
  endfacet
  facet normal 0 0 -1
    outer loop
      vertex 17.1916 -12.4904 1
      vertex 15.5736 -11.3149 1
      vertex 17.5858 -7.82968 1
    endloop
  endfacet
  facet normal 0 0 -1
    outer loop
      vertex 14.219 -15.7918 1
      vertex 15.5736 -11.3149 1
      vertex 17.1916 -12.4904 1
    endloop
  endfacet
  facet normal 0 0 -1
    outer loop
      vertex 14.219 -15.7918 1
      vertex 12.8808 -14.3055 1
      vertex 15.5736 -11.3149 1
    endloop
  endfacet
  facet normal 0 0 -1
    outer loop
      vertex 10.625 -18.403 1
      vertex 12.8808 -14.3055 1
      vertex 14.219 -15.7918 1
    endloop
  endfacet
  facet normal 0 0 -1
    outer loop
      vertex 10.625 -18.403 1
      vertex 9.625 -16.671 1
      vertex 12.8808 -14.3055 1
    endloop
  endfacet
  facet normal 0 0 -1
    outer loop
      vertex 6.56661 -20.2099 1
      vertex 9.625 -16.671 1
      vertex 10.625 -18.403 1
    endloop
  endfacet
  facet normal 0 0 -1
    outer loop
      vertex 6.56661 -20.2099 1
      vertex 5.94858 -18.3078 1
      vertex 9.625 -16.671 1
    endloop
  endfacet
  facet normal 0 0 -1
    outer loop
      vertex 2.22123 -21.1336 1
      vertex 5.94858 -18.3078 1
      vertex 6.56661 -20.2099 1
    endloop
  endfacet
  facet normal 0 0 -1
    outer loop
      vertex 2.22123 -21.1336 1
      vertex 2.01217 -19.1445 1
      vertex 5.94858 -18.3078 1
    endloop
  endfacet
  facet normal 0 0 -1
    outer loop
      vertex 2.22123 -21.1336 1
      vertex -2.01217 -19.1445 1
      vertex 2.01217 -19.1445 1
    endloop
  endfacet
  facet normal 0 0 -1
    outer loop
      vertex -2.22123 -21.1336 1
      vertex -2.01217 -19.1445 1
      vertex 2.22123 -21.1336 1
    endloop
  endfacet
  facet normal 0 0 -1
    outer loop
      vertex -2.22123 -21.1336 1
      vertex -5.94858 -18.3078 1
      vertex -2.01217 -19.1445 1
    endloop
  endfacet
  facet normal 0 0 -1
    outer loop
      vertex -6.56661 -20.2099 1
      vertex -5.94858 -18.3078 1
      vertex -2.22123 -21.1336 1
    endloop
  endfacet
  facet normal 0 0 -1
    outer loop
      vertex -6.56661 -20.2099 1
      vertex -9.625 -16.671 1
      vertex -5.94858 -18.3078 1
    endloop
  endfacet
  facet normal 0 0 -1
    outer loop
      vertex -10.625 -18.403 1
      vertex -9.625 -16.671 1
      vertex -6.56661 -20.2099 1
    endloop
  endfacet
  facet normal 0 0 -1
    outer loop
      vertex -10.625 -18.403 1
      vertex -12.8808 -14.3055 1
      vertex -9.625 -16.671 1
    endloop
  endfacet
  facet normal 0 0 -1
    outer loop
      vertex -14.219 -15.7918 1
      vertex -12.8808 -14.3055 1
      vertex -10.625 -18.403 1
    endloop
  endfacet
  facet normal 0 0 -1
    outer loop
      vertex -14.219 -15.7918 1
      vertex -15.5736 -11.3149 1
      vertex -12.8808 -14.3055 1
    endloop
  endfacet
  facet normal 0 0 -1
    outer loop
      vertex -17.1916 -12.4904 1
      vertex -15.5736 -11.3149 1
      vertex -14.219 -15.7918 1
    endloop
  endfacet
  facet normal 0 0 -1
    outer loop
      vertex -17.1916 -12.4904 1
      vertex -17.5858 -7.82968 1
      vertex -15.5736 -11.3149 1
    endloop
  endfacet
  facet normal 0 0 -1
    outer loop
      vertex -19.4128 -8.64315 1
      vertex -17.5858 -7.82968 1
      vertex -17.1916 -12.4904 1
    endloop
  endfacet
  facet normal 0 0 -1
    outer loop
      vertex -20.7856 -4.41812 1
      vertex -18.8293 -4.0023 1
      vertex -19.4128 -8.64315 1
    endloop
  endfacet
  facet normal -0 0 -1
    outer loop
      vertex -17.5858 -7.82968 1
      vertex -19.4128 -8.64315 1
      vertex -18.8293 -4.0023 1
    endloop
  endfacet
  facet normal -0 0 -1
    outer loop
      vertex 20.7856 4.41812 1
      vertex 18.8293 4.0023 1
      vertex 19.4128 8.64315 1
    endloop
  endfacet
  facet normal 0 0 -1
    outer loop
      vertex 17.5858 7.82968 1
      vertex 19.4128 8.64315 1
      vertex 18.8293 4.0023 1
    endloop
  endfacet
  facet normal 0 0 -1
    outer loop
      vertex 17.5858 7.82968 1
      vertex 17.1916 12.4904 1
      vertex 19.4128 8.64315 1
    endloop
  endfacet
  facet normal 0 0 -1
    outer loop
      vertex 15.5736 11.3149 1
      vertex 17.1916 12.4904 1
      vertex 17.5858 7.82968 1
    endloop
  endfacet
  facet normal 0 0 -1
    outer loop
      vertex 15.5736 11.3149 1
      vertex 14.219 15.7918 1
      vertex 17.1916 12.4904 1
    endloop
  endfacet
  facet normal 0 0 -1
    outer loop
      vertex 12.8808 14.3055 1
      vertex 14.219 15.7918 1
      vertex 15.5736 11.3149 1
    endloop
  endfacet
  facet normal 0 0 -1
    outer loop
      vertex 12.8808 14.3055 1
      vertex 10.625 18.403 1
      vertex 14.219 15.7918 1
    endloop
  endfacet
  facet normal 0 0 -1
    outer loop
      vertex 9.625 16.671 1
      vertex 10.625 18.403 1
      vertex 12.8808 14.3055 1
    endloop
  endfacet
  facet normal 0 0 -1
    outer loop
      vertex 9.625 16.671 1
      vertex 6.56661 20.2099 1
      vertex 10.625 18.403 1
    endloop
  endfacet
  facet normal 0 0 -1
    outer loop
      vertex 5.94858 18.3078 1
      vertex 6.56661 20.2099 1
      vertex 9.625 16.671 1
    endloop
  endfacet
  facet normal 0 0 -1
    outer loop
      vertex 5.94858 18.3078 1
      vertex 2.22123 21.1336 1
      vertex 6.56661 20.2099 1
    endloop
  endfacet
  facet normal 0 0 -1
    outer loop
      vertex 2.01217 19.1445 1
      vertex 2.22123 21.1336 1
      vertex 5.94858 18.3078 1
    endloop
  endfacet
  facet normal 0 0 -1
    outer loop
      vertex -2.01217 19.1445 1
      vertex 2.22123 21.1336 1
      vertex 2.01217 19.1445 1
    endloop
  endfacet
  facet normal 0 0 -1
    outer loop
      vertex -2.01217 19.1445 1
      vertex -2.22123 21.1336 1
      vertex 2.22123 21.1336 1
    endloop
  endfacet
  facet normal 0 0 -1
    outer loop
      vertex -5.94858 18.3078 1
      vertex -2.22123 21.1336 1
      vertex -2.01217 19.1445 1
    endloop
  endfacet
  facet normal 0 0 -1
    outer loop
      vertex -5.94858 18.3078 1
      vertex -6.56661 20.2099 1
      vertex -2.22123 21.1336 1
    endloop
  endfacet
  facet normal 0 0 -1
    outer loop
      vertex -9.625 16.671 1
      vertex -6.56661 20.2099 1
      vertex -5.94858 18.3078 1
    endloop
  endfacet
  facet normal 0 0 -1
    outer loop
      vertex -9.625 16.671 1
      vertex -10.625 18.403 1
      vertex -6.56661 20.2099 1
    endloop
  endfacet
  facet normal 0 0 -1
    outer loop
      vertex -12.8808 14.3055 1
      vertex -10.625 18.403 1
      vertex -9.625 16.671 1
    endloop
  endfacet
  facet normal 0 0 -1
    outer loop
      vertex -12.8808 14.3055 1
      vertex -14.219 15.7918 1
      vertex -10.625 18.403 1
    endloop
  endfacet
  facet normal 0 0 -1
    outer loop
      vertex -15.5736 11.3149 1
      vertex -14.219 15.7918 1
      vertex -12.8808 14.3055 1
    endloop
  endfacet
  facet normal 0 0 -1
    outer loop
      vertex -15.5736 11.3149 1
      vertex -17.1916 12.4904 1
      vertex -14.219 15.7918 1
    endloop
  endfacet
  facet normal 0 0 -1
    outer loop
      vertex -17.5858 7.82968 1
      vertex -17.1916 12.4904 1
      vertex -15.5736 11.3149 1
    endloop
  endfacet
  facet normal 0 0 -1
    outer loop
      vertex -19.4128 8.64315 1
      vertex -17.5858 7.82968 1
      vertex -18.8293 4.0023 1
    endloop
  endfacet
  facet normal 0 0 -1
    outer loop
      vertex -17.5858 7.82968 1
      vertex -19.4128 8.64315 1
      vertex -17.1916 12.4904 1
    endloop
  endfacet
  facet normal 0 0 -1
    outer loop
      vertex -20.7856 4.41812 1
      vertex -18.8293 4.0023 1
      vertex -19.25 0 1
    endloop
  endfacet
  facet normal -0 0 -1
    outer loop
      vertex -18.8293 -4.0023 1
      vertex -20.7856 -4.41812 1
      vertex -19.25 0 1
    endloop
  endfacet
  facet normal 0 0 -1
    outer loop
      vertex -21.25 0 1
      vertex -19.25 0 1
      vertex -20.7856 -4.41812 1
    endloop
  endfacet
  facet normal 0 0 -1
    outer loop
      vertex -18.8293 4.0023 1
      vertex -20.7856 4.41812 1
      vertex -19.4128 8.64315 1
    endloop
  endfacet
  facet normal 0 0 -1
    outer loop
      vertex -19.25 0 1
      vertex -21.25 0 1
      vertex -20.7856 4.41812 1
    endloop
  endfacet
  facet normal 0.951057 -0.309017 0
    outer loop
      vertex -20.7856 4.41812 1
      vertex -19.4128 8.64315 -1
      vertex -19.4128 8.64315 1
    endloop
  endfacet
  facet normal 0.951057 -0.309017 0
    outer loop
      vertex -19.4128 8.64315 -1
      vertex -20.7856 4.41812 1
      vertex -20.7856 4.41812 -1
    endloop
  endfacet
  facet normal -0.866025 0.5 0
    outer loop
      vertex 17.1916 -12.4904 -1
      vertex 19.4128 -8.64315 1
      vertex 19.4128 -8.64315 -1
    endloop
  endfacet
  facet normal -0.866025 0.5 0
    outer loop
      vertex 19.4128 -8.64315 1
      vertex 17.1916 -12.4904 -1
      vertex 17.1916 -12.4904 1
    endloop
  endfacet
  facet normal 0.207912 0.978148 -0
    outer loop
      vertex -2.22123 -21.1336 -1
      vertex -6.56661 -20.2099 1
      vertex -2.22123 -21.1336 1
    endloop
  endfacet
  facet normal 0.207912 0.978148 0
    outer loop
      vertex -6.56661 -20.2099 1
      vertex -2.22123 -21.1336 -1
      vertex -6.56661 -20.2099 -1
    endloop
  endfacet
  facet normal 0.994522 0.104528 0
    outer loop
      vertex -20.7856 -4.41812 1
      vertex -21.25 0 -1
      vertex -21.25 0 1
    endloop
  endfacet
  facet normal 0.994522 0.104528 0
    outer loop
      vertex -21.25 0 -1
      vertex -20.7856 -4.41812 1
      vertex -20.7856 -4.41812 -1
    endloop
  endfacet
  facet normal -0.207912 0.978148 0
    outer loop
      vertex 6.56661 -20.2099 -1
      vertex 2.22123 -21.1336 1
      vertex 6.56661 -20.2099 1
    endloop
  endfacet
  facet normal -0.207912 0.978148 0
    outer loop
      vertex 2.22123 -21.1336 1
      vertex 6.56661 -20.2099 -1
      vertex 2.22123 -21.1336 -1
    endloop
  endfacet
  facet normal -0.406737 0.913545 0
    outer loop
      vertex 10.625 -18.403 -1
      vertex 6.56661 -20.2099 1
      vertex 10.625 -18.403 1
    endloop
  endfacet
  facet normal -0.406737 0.913545 0
    outer loop
      vertex 6.56661 -20.2099 1
      vertex 10.625 -18.403 -1
      vertex 6.56661 -20.2099 -1
    endloop
  endfacet
  facet normal 0 1 -0
    outer loop
      vertex 2.22123 -21.1336 -1
      vertex -2.22123 -21.1336 1
      vertex 2.22123 -21.1336 1
    endloop
  endfacet
  facet normal 0 1 0
    outer loop
      vertex -2.22123 -21.1336 1
      vertex 2.22123 -21.1336 -1
      vertex -2.22123 -21.1336 -1
    endloop
  endfacet
  facet normal 0.587785 0.809017 -0
    outer loop
      vertex -10.625 -18.403 -1
      vertex -14.219 -15.7918 1
      vertex -10.625 -18.403 1
    endloop
  endfacet
  facet normal 0.587785 0.809017 0
    outer loop
      vertex -14.219 -15.7918 1
      vertex -10.625 -18.403 -1
      vertex -14.219 -15.7918 -1
    endloop
  endfacet
  facet normal 0.406737 0.913545 -0
    outer loop
      vertex -6.56661 -20.2099 -1
      vertex -10.625 -18.403 1
      vertex -6.56661 -20.2099 1
    endloop
  endfacet
  facet normal 0.406737 0.913545 0
    outer loop
      vertex -10.625 -18.403 1
      vertex -6.56661 -20.2099 -1
      vertex -10.625 -18.403 -1
    endloop
  endfacet
  facet normal 0 0 1
    outer loop
      vertex 19.25 0 -1
      vertex 21.25 0 -1
      vertex 20.7856 4.41812 -1
    endloop
  endfacet
  facet normal 0 0 1
    outer loop
      vertex 18.8293 4.0023 -1
      vertex 20.7856 4.41812 -1
      vertex 19.4128 8.64315 -1
    endloop
  endfacet
  facet normal 0 0 1
    outer loop
      vertex 21.25 0 -1
      vertex 19.25 0 -1
      vertex 20.7856 -4.41812 -1
    endloop
  endfacet
  facet normal -0 0 1
    outer loop
      vertex 18.8293 -4.0023 -1
      vertex 20.7856 -4.41812 -1
      vertex 19.25 0 -1
    endloop
  endfacet
  facet normal 0 0 1
    outer loop
      vertex 20.7856 4.41812 -1
      vertex 18.8293 4.0023 -1
      vertex 19.25 0 -1
    endloop
  endfacet
  facet normal 0 0 1
    outer loop
      vertex 19.4128 8.64315 -1
      vertex 17.5858 7.82968 -1
      vertex 18.8293 4.0023 -1
    endloop
  endfacet
  facet normal 0 0 1
    outer loop
      vertex 17.1916 12.4904 -1
      vertex 17.5858 7.82968 -1
      vertex 19.4128 8.64315 -1
    endloop
  endfacet
  facet normal 0 0 1
    outer loop
      vertex 17.1916 12.4904 -1
      vertex 15.5736 11.3149 -1
      vertex 17.5858 7.82968 -1
    endloop
  endfacet
  facet normal 0 0 1
    outer loop
      vertex 14.219 15.7918 -1
      vertex 15.5736 11.3149 -1
      vertex 17.1916 12.4904 -1
    endloop
  endfacet
  facet normal 0 0 1
    outer loop
      vertex 14.219 15.7918 -1
      vertex 12.8808 14.3055 -1
      vertex 15.5736 11.3149 -1
    endloop
  endfacet
  facet normal 0 0 1
    outer loop
      vertex 10.625 18.403 -1
      vertex 12.8808 14.3055 -1
      vertex 14.219 15.7918 -1
    endloop
  endfacet
  facet normal 0 0 1
    outer loop
      vertex 10.625 18.403 -1
      vertex 9.625 16.671 -1
      vertex 12.8808 14.3055 -1
    endloop
  endfacet
  facet normal 0 0 1
    outer loop
      vertex 6.56661 20.2099 -1
      vertex 9.625 16.671 -1
      vertex 10.625 18.403 -1
    endloop
  endfacet
  facet normal 0 0 1
    outer loop
      vertex 6.56661 20.2099 -1
      vertex 5.94858 18.3078 -1
      vertex 9.625 16.671 -1
    endloop
  endfacet
  facet normal 0 0 1
    outer loop
      vertex 2.22123 21.1336 -1
      vertex 5.94858 18.3078 -1
      vertex 6.56661 20.2099 -1
    endloop
  endfacet
  facet normal 0 0 1
    outer loop
      vertex 2.22123 21.1336 -1
      vertex 2.01217 19.1445 -1
      vertex 5.94858 18.3078 -1
    endloop
  endfacet
  facet normal 0 0 1
    outer loop
      vertex 2.22123 21.1336 -1
      vertex -2.01217 19.1445 -1
      vertex 2.01217 19.1445 -1
    endloop
  endfacet
  facet normal -0 0 1
    outer loop
      vertex -2.22123 21.1336 -1
      vertex -2.01217 19.1445 -1
      vertex 2.22123 21.1336 -1
    endloop
  endfacet
  facet normal 0 0 1
    outer loop
      vertex -2.22123 21.1336 -1
      vertex -5.94858 18.3078 -1
      vertex -2.01217 19.1445 -1
    endloop
  endfacet
  facet normal -0 0 1
    outer loop
      vertex -6.56661 20.2099 -1
      vertex -5.94858 18.3078 -1
      vertex -2.22123 21.1336 -1
    endloop
  endfacet
  facet normal 0 0 1
    outer loop
      vertex -6.56661 20.2099 -1
      vertex -9.625 16.671 -1
      vertex -5.94858 18.3078 -1
    endloop
  endfacet
  facet normal -0 0 1
    outer loop
      vertex -10.625 18.403 -1
      vertex -9.625 16.671 -1
      vertex -6.56661 20.2099 -1
    endloop
  endfacet
  facet normal 0 0 1
    outer loop
      vertex -10.625 18.403 -1
      vertex -12.8808 14.3055 -1
      vertex -9.625 16.671 -1
    endloop
  endfacet
  facet normal -0 0 1
    outer loop
      vertex -14.219 15.7918 -1
      vertex -12.8808 14.3055 -1
      vertex -10.625 18.403 -1
    endloop
  endfacet
  facet normal 0 0 1
    outer loop
      vertex -14.219 15.7918 -1
      vertex -15.5736 11.3149 -1
      vertex -12.8808 14.3055 -1
    endloop
  endfacet
  facet normal -0 0 1
    outer loop
      vertex -17.1916 12.4904 -1
      vertex -15.5736 11.3149 -1
      vertex -14.219 15.7918 -1
    endloop
  endfacet
  facet normal 0 0 1
    outer loop
      vertex -17.1916 12.4904 -1
      vertex -17.5858 7.82968 -1
      vertex -15.5736 11.3149 -1
    endloop
  endfacet
  facet normal -0 0 1
    outer loop
      vertex -19.4128 8.64315 -1
      vertex -17.5858 7.82968 -1
      vertex -17.1916 12.4904 -1
    endloop
  endfacet
  facet normal -0 0 1
    outer loop
      vertex -20.7856 4.41812 -1
      vertex -18.8293 4.0023 -1
      vertex -19.4128 8.64315 -1
    endloop
  endfacet
  facet normal 0 0 1
    outer loop
      vertex -17.5858 7.82968 -1
      vertex -19.4128 8.64315 -1
      vertex -18.8293 4.0023 -1
    endloop
  endfacet
  facet normal 0 0 1
    outer loop
      vertex 20.7856 -4.41812 -1
      vertex 18.8293 -4.0023 -1
      vertex 19.4128 -8.64315 -1
    endloop
  endfacet
  facet normal -0 0 1
    outer loop
      vertex 17.5858 -7.82968 -1
      vertex 19.4128 -8.64315 -1
      vertex 18.8293 -4.0023 -1
    endloop
  endfacet
  facet normal 0 0 1
    outer loop
      vertex 17.5858 -7.82968 -1
      vertex 17.1916 -12.4904 -1
      vertex 19.4128 -8.64315 -1
    endloop
  endfacet
  facet normal -0 0 1
    outer loop
      vertex 15.5736 -11.3149 -1
      vertex 17.1916 -12.4904 -1
      vertex 17.5858 -7.82968 -1
    endloop
  endfacet
  facet normal 0 0 1
    outer loop
      vertex 15.5736 -11.3149 -1
      vertex 14.219 -15.7918 -1
      vertex 17.1916 -12.4904 -1
    endloop
  endfacet
  facet normal -0 0 1
    outer loop
      vertex 12.8808 -14.3055 -1
      vertex 14.219 -15.7918 -1
      vertex 15.5736 -11.3149 -1
    endloop
  endfacet
  facet normal 0 0 1
    outer loop
      vertex 12.8808 -14.3055 -1
      vertex 10.625 -18.403 -1
      vertex 14.219 -15.7918 -1
    endloop
  endfacet
  facet normal -0 0 1
    outer loop
      vertex 9.625 -16.671 -1
      vertex 10.625 -18.403 -1
      vertex 12.8808 -14.3055 -1
    endloop
  endfacet
  facet normal 0 0 1
    outer loop
      vertex 9.625 -16.671 -1
      vertex 6.56661 -20.2099 -1
      vertex 10.625 -18.403 -1
    endloop
  endfacet
  facet normal -0 0 1
    outer loop
      vertex 5.94858 -18.3078 -1
      vertex 6.56661 -20.2099 -1
      vertex 9.625 -16.671 -1
    endloop
  endfacet
  facet normal 0 0 1
    outer loop
      vertex 5.94858 -18.3078 -1
      vertex 2.22123 -21.1336 -1
      vertex 6.56661 -20.2099 -1
    endloop
  endfacet
  facet normal -0 0 1
    outer loop
      vertex 2.01217 -19.1445 -1
      vertex 2.22123 -21.1336 -1
      vertex 5.94858 -18.3078 -1
    endloop
  endfacet
  facet normal -0 0 1
    outer loop
      vertex -2.01217 -19.1445 -1
      vertex 2.22123 -21.1336 -1
      vertex 2.01217 -19.1445 -1
    endloop
  endfacet
  facet normal 0 0 1
    outer loop
      vertex -2.01217 -19.1445 -1
      vertex -2.22123 -21.1336 -1
      vertex 2.22123 -21.1336 -1
    endloop
  endfacet
  facet normal 0 0 1
    outer loop
      vertex -5.94858 -18.3078 -1
      vertex -2.22123 -21.1336 -1
      vertex -2.01217 -19.1445 -1
    endloop
  endfacet
  facet normal 0 0 1
    outer loop
      vertex -5.94858 -18.3078 -1
      vertex -6.56661 -20.2099 -1
      vertex -2.22123 -21.1336 -1
    endloop
  endfacet
  facet normal 0 0 1
    outer loop
      vertex -9.625 -16.671 -1
      vertex -6.56661 -20.2099 -1
      vertex -5.94858 -18.3078 -1
    endloop
  endfacet
  facet normal 0 0 1
    outer loop
      vertex -9.625 -16.671 -1
      vertex -10.625 -18.403 -1
      vertex -6.56661 -20.2099 -1
    endloop
  endfacet
  facet normal 0 0 1
    outer loop
      vertex -12.8808 -14.3055 -1
      vertex -10.625 -18.403 -1
      vertex -9.625 -16.671 -1
    endloop
  endfacet
  facet normal 0 0 1
    outer loop
      vertex -12.8808 -14.3055 -1
      vertex -14.219 -15.7918 -1
      vertex -10.625 -18.403 -1
    endloop
  endfacet
  facet normal 0 0 1
    outer loop
      vertex -15.5736 -11.3149 -1
      vertex -14.219 -15.7918 -1
      vertex -12.8808 -14.3055 -1
    endloop
  endfacet
  facet normal 0 0 1
    outer loop
      vertex -15.5736 -11.3149 -1
      vertex -17.1916 -12.4904 -1
      vertex -14.219 -15.7918 -1
    endloop
  endfacet
  facet normal 0 0 1
    outer loop
      vertex -17.5858 -7.82968 -1
      vertex -17.1916 -12.4904 -1
      vertex -15.5736 -11.3149 -1
    endloop
  endfacet
  facet normal 0 0 1
    outer loop
      vertex -19.4128 -8.64315 -1
      vertex -17.5858 -7.82968 -1
      vertex -18.8293 -4.0023 -1
    endloop
  endfacet
  facet normal 0 0 1
    outer loop
      vertex -17.5858 -7.82968 -1
      vertex -19.4128 -8.64315 -1
      vertex -17.1916 -12.4904 -1
    endloop
  endfacet
  facet normal 0 0 1
    outer loop
      vertex -20.7856 -4.41812 -1
      vertex -18.8293 -4.0023 -1
      vertex -19.25 0 -1
    endloop
  endfacet
  facet normal 0 0 1
    outer loop
      vertex -18.8293 4.0023 -1
      vertex -20.7856 4.41812 -1
      vertex -19.25 0 -1
    endloop
  endfacet
  facet normal 0 0 1
    outer loop
      vertex -21.25 0 -1
      vertex -19.25 0 -1
      vertex -20.7856 4.41812 -1
    endloop
  endfacet
  facet normal 0 0 1
    outer loop
      vertex -18.8293 -4.0023 -1
      vertex -20.7856 -4.41812 -1
      vertex -19.4128 -8.64315 -1
    endloop
  endfacet
  facet normal 0 0 1
    outer loop
      vertex -19.25 0 -1
      vertex -21.25 0 -1
      vertex -20.7856 -4.41812 -1
    endloop
  endfacet
  facet normal 0.951057 0.309017 0
    outer loop
      vertex -19.4128 -8.64315 1
      vertex -20.7856 -4.41812 -1
      vertex -20.7856 -4.41812 1
    endloop
  endfacet
  facet normal 0.951057 0.309017 0
    outer loop
      vertex -20.7856 -4.41812 -1
      vertex -19.4128 -8.64315 1
      vertex -19.4128 -8.64315 -1
    endloop
  endfacet
  facet normal 0.743145 0.669131 0
    outer loop
      vertex -14.219 -15.7918 1
      vertex -17.1916 -12.4904 -1
      vertex -17.1916 -12.4904 1
    endloop
  endfacet
  facet normal 0.743145 0.669131 0
    outer loop
      vertex -17.1916 -12.4904 -1
      vertex -14.219 -15.7918 1
      vertex -14.219 -15.7918 -1
    endloop
  endfacet
  facet normal -0.743145 0.669131 0
    outer loop
      vertex 14.219 -15.7918 -1
      vertex 17.1916 -12.4904 1
      vertex 17.1916 -12.4904 -1
    endloop
  endfacet
  facet normal -0.743145 0.669131 0
    outer loop
      vertex 17.1916 -12.4904 1
      vertex 14.219 -15.7918 -1
      vertex 14.219 -15.7918 1
    endloop
  endfacet
  facet normal -0.866025 -0.5 0
    outer loop
      vertex 17.5858 7.82968 1
      vertex 15.5736 11.3149 1.75
      vertex 15.5736 11.3149 1
    endloop
  endfacet
  facet normal -0.866025 -0.5 0
    outer loop
      vertex 15.5736 11.3149 1.75
      vertex 17.5858 7.82968 1
      vertex 17.5858 7.82968 1.75
    endloop
  endfacet
  facet normal -0.866025 -0.5 0
    outer loop
      vertex 17.5858 7.82968 -1.75
      vertex 15.5736 11.3149 -1
      vertex 15.5736 11.3149 -1.75
    endloop
  endfacet
  facet normal -0.866025 -0.5 0
    outer loop
      vertex 15.5736 11.3149 -1
      vertex 17.5858 7.82968 -1.75
      vertex 17.5858 7.82968 -1
    endloop
  endfacet
  facet normal 0.994522 -0.104528 0
    outer loop
      vertex -19.25 0 1.75
      vertex -18.8293 4.0023 1
      vertex -18.8293 4.0023 1.75
    endloop
  endfacet
  facet normal 0.994522 -0.104528 0
    outer loop
      vertex -18.8293 4.0023 1
      vertex -19.25 0 1.75
      vertex -19.25 0 1
    endloop
  endfacet
  facet normal 0.994522 -0.104528 0
    outer loop
      vertex -19.25 0 -1
      vertex -18.8293 4.0023 -1.75
      vertex -18.8293 4.0023 -1
    endloop
  endfacet
  facet normal 0.994522 -0.104528 0
    outer loop
      vertex -18.8293 4.0023 -1.75
      vertex -19.25 0 -1
      vertex -19.25 0 -1.75
    endloop
  endfacet
  facet normal -0.743145 -0.669131 0
    outer loop
      vertex 15.5736 11.3149 1
      vertex 12.8808 14.3055 1.75
      vertex 12.8808 14.3055 1
    endloop
  endfacet
  facet normal -0.743145 -0.669131 0
    outer loop
      vertex 12.8808 14.3055 1.75
      vertex 15.5736 11.3149 1
      vertex 15.5736 11.3149 1.75
    endloop
  endfacet
  facet normal -0.743145 -0.669131 0
    outer loop
      vertex 15.5736 11.3149 -1.75
      vertex 12.8808 14.3055 -1
      vertex 12.8808 14.3055 -1.75
    endloop
  endfacet
  facet normal -0.743145 -0.669131 0
    outer loop
      vertex 12.8808 14.3055 -1
      vertex 15.5736 11.3149 -1.75
      vertex 15.5736 11.3149 -1
    endloop
  endfacet
  facet normal -0.207912 -0.978148 0
    outer loop
      vertex 2.01217 19.1445 1
      vertex 5.94858 18.3078 1.75
      vertex 2.01217 19.1445 1.75
    endloop
  endfacet
  facet normal -0.207912 -0.978148 -0
    outer loop
      vertex 5.94858 18.3078 1.75
      vertex 2.01217 19.1445 1
      vertex 5.94858 18.3078 1
    endloop
  endfacet
  facet normal -0.207912 -0.978148 0
    outer loop
      vertex 2.01217 19.1445 -1.75
      vertex 5.94858 18.3078 -1
      vertex 2.01217 19.1445 -1
    endloop
  endfacet
  facet normal -0.207912 -0.978148 -0
    outer loop
      vertex 5.94858 18.3078 -1
      vertex 2.01217 19.1445 -1.75
      vertex 5.94858 18.3078 -1.75
    endloop
  endfacet
  facet normal -0.406737 -0.913545 0
    outer loop
      vertex 5.94858 18.3078 1
      vertex 9.625 16.671 1.75
      vertex 5.94858 18.3078 1.75
    endloop
  endfacet
  facet normal -0.406737 -0.913545 -0
    outer loop
      vertex 9.625 16.671 1.75
      vertex 5.94858 18.3078 1
      vertex 9.625 16.671 1
    endloop
  endfacet
  facet normal -0.406737 -0.913545 0
    outer loop
      vertex 5.94858 18.3078 -1.75
      vertex 9.625 16.671 -1
      vertex 5.94858 18.3078 -1
    endloop
  endfacet
  facet normal -0.406737 -0.913545 -0
    outer loop
      vertex 9.625 16.671 -1
      vertex 5.94858 18.3078 -1.75
      vertex 9.625 16.671 -1.75
    endloop
  endfacet
  facet normal 0.406737 -0.913545 0
    outer loop
      vertex -9.625 16.671 1
      vertex -5.94858 18.3078 1.75
      vertex -9.625 16.671 1.75
    endloop
  endfacet
  facet normal 0.406737 -0.913545 0
    outer loop
      vertex -5.94858 18.3078 1.75
      vertex -9.625 16.671 1
      vertex -5.94858 18.3078 1
    endloop
  endfacet
  facet normal 0.406737 -0.913545 0
    outer loop
      vertex -9.625 16.671 -1.75
      vertex -5.94858 18.3078 -1
      vertex -9.625 16.671 -1
    endloop
  endfacet
  facet normal 0.406737 -0.913545 0
    outer loop
      vertex -5.94858 18.3078 -1
      vertex -9.625 16.671 -1.75
      vertex -5.94858 18.3078 -1.75
    endloop
  endfacet
  facet normal 0.951057 -0.309017 0
    outer loop
      vertex -18.8293 4.0023 1.75
      vertex -17.5858 7.82968 1
      vertex -17.5858 7.82968 1.75
    endloop
  endfacet
  facet normal 0.951057 -0.309017 0
    outer loop
      vertex -17.5858 7.82968 1
      vertex -18.8293 4.0023 1.75
      vertex -18.8293 4.0023 1
    endloop
  endfacet
  facet normal 0.951057 -0.309017 0
    outer loop
      vertex -18.8293 4.0023 -1
      vertex -17.5858 7.82968 -1.75
      vertex -17.5858 7.82968 -1
    endloop
  endfacet
  facet normal 0.951057 -0.309017 0
    outer loop
      vertex -17.5858 7.82968 -1.75
      vertex -18.8293 4.0023 -1
      vertex -18.8293 4.0023 -1.75
    endloop
  endfacet
  facet normal -0.994522 0.104528 0
    outer loop
      vertex 18.8293 -4.0023 1
      vertex 19.25 0 1.75
      vertex 19.25 0 1
    endloop
  endfacet
  facet normal -0.994522 0.104528 0
    outer loop
      vertex 19.25 0 1.75
      vertex 18.8293 -4.0023 1
      vertex 18.8293 -4.0023 1.75
    endloop
  endfacet
  facet normal -0.994522 0.104528 0
    outer loop
      vertex 18.8293 -4.0023 -1.75
      vertex 19.25 0 -1
      vertex 19.25 0 -1.75
    endloop
  endfacet
  facet normal -0.994522 0.104528 0
    outer loop
      vertex 19.25 0 -1
      vertex 18.8293 -4.0023 -1.75
      vertex 18.8293 -4.0023 -1
    endloop
  endfacet
  facet normal -0.951057 -0.309017 0
    outer loop
      vertex 18.8293 4.0023 1
      vertex 17.5858 7.82968 1.75
      vertex 17.5858 7.82968 1
    endloop
  endfacet
  facet normal -0.951057 -0.309017 0
    outer loop
      vertex 17.5858 7.82968 1.75
      vertex 18.8293 4.0023 1
      vertex 18.8293 4.0023 1.75
    endloop
  endfacet
  facet normal -0.951057 -0.309017 0
    outer loop
      vertex 18.8293 4.0023 -1.75
      vertex 17.5858 7.82968 -1
      vertex 17.5858 7.82968 -1.75
    endloop
  endfacet
  facet normal -0.951057 -0.309017 0
    outer loop
      vertex 17.5858 7.82968 -1
      vertex 18.8293 4.0023 -1.75
      vertex 18.8293 4.0023 -1
    endloop
  endfacet
  facet normal 0 -1 0
    outer loop
      vertex -2.01217 19.1445 1
      vertex 2.01217 19.1445 1.75
      vertex -2.01217 19.1445 1.75
    endloop
  endfacet
  facet normal 0 -1 -0
    outer loop
      vertex 2.01217 19.1445 1.75
      vertex -2.01217 19.1445 1
      vertex 2.01217 19.1445 1
    endloop
  endfacet
  facet normal 0 -1 0
    outer loop
      vertex -2.01217 19.1445 -1.75
      vertex 2.01217 19.1445 -1
      vertex -2.01217 19.1445 -1
    endloop
  endfacet
  facet normal 0 -1 -0
    outer loop
      vertex 2.01217 19.1445 -1
      vertex -2.01217 19.1445 -1.75
      vertex 2.01217 19.1445 -1.75
    endloop
  endfacet
  facet normal -0.587785 -0.809017 0
    outer loop
      vertex 9.625 16.671 1
      vertex 12.8808 14.3055 1.75
      vertex 9.625 16.671 1.75
    endloop
  endfacet
  facet normal -0.587785 -0.809017 -0
    outer loop
      vertex 12.8808 14.3055 1.75
      vertex 9.625 16.671 1
      vertex 12.8808 14.3055 1
    endloop
  endfacet
  facet normal -0.587785 -0.809017 0
    outer loop
      vertex 9.625 16.671 -1.75
      vertex 12.8808 14.3055 -1
      vertex 9.625 16.671 -1
    endloop
  endfacet
  facet normal -0.587785 -0.809017 -0
    outer loop
      vertex 12.8808 14.3055 -1
      vertex 9.625 16.671 -1.75
      vertex 12.8808 14.3055 -1.75
    endloop
  endfacet
  facet normal 0.866025 -0.5 0
    outer loop
      vertex -17.5858 7.82968 1.75
      vertex -15.5736 11.3149 1
      vertex -15.5736 11.3149 1.75
    endloop
  endfacet
  facet normal 0.866025 -0.5 0
    outer loop
      vertex -15.5736 11.3149 1
      vertex -17.5858 7.82968 1.75
      vertex -17.5858 7.82968 1
    endloop
  endfacet
  facet normal 0.866025 -0.5 0
    outer loop
      vertex -17.5858 7.82968 -1
      vertex -15.5736 11.3149 -1.75
      vertex -15.5736 11.3149 -1
    endloop
  endfacet
  facet normal 0.866025 -0.5 0
    outer loop
      vertex -15.5736 11.3149 -1.75
      vertex -17.5858 7.82968 -1
      vertex -17.5858 7.82968 -1.75
    endloop
  endfacet
  facet normal 0.587785 -0.809017 0
    outer loop
      vertex -12.8808 14.3055 1
      vertex -9.625 16.671 1.75
      vertex -12.8808 14.3055 1.75
    endloop
  endfacet
  facet normal 0.587785 -0.809017 0
    outer loop
      vertex -9.625 16.671 1.75
      vertex -12.8808 14.3055 1
      vertex -9.625 16.671 1
    endloop
  endfacet
  facet normal 0.587785 -0.809017 0
    outer loop
      vertex -12.8808 14.3055 -1.75
      vertex -9.625 16.671 -1
      vertex -12.8808 14.3055 -1
    endloop
  endfacet
  facet normal 0.587785 -0.809017 0
    outer loop
      vertex -9.625 16.671 -1
      vertex -12.8808 14.3055 -1.75
      vertex -9.625 16.671 -1.75
    endloop
  endfacet
  facet normal 0.207912 -0.978148 0
    outer loop
      vertex -5.94858 18.3078 1
      vertex -2.01217 19.1445 1.75
      vertex -5.94858 18.3078 1.75
    endloop
  endfacet
  facet normal 0.207912 -0.978148 0
    outer loop
      vertex -2.01217 19.1445 1.75
      vertex -5.94858 18.3078 1
      vertex -2.01217 19.1445 1
    endloop
  endfacet
  facet normal 0.207912 -0.978148 0
    outer loop
      vertex -5.94858 18.3078 -1.75
      vertex -2.01217 19.1445 -1
      vertex -5.94858 18.3078 -1
    endloop
  endfacet
  facet normal 0.207912 -0.978148 0
    outer loop
      vertex -2.01217 19.1445 -1
      vertex -5.94858 18.3078 -1.75
      vertex -2.01217 19.1445 -1.75
    endloop
  endfacet
  facet normal 0.743145 -0.669131 0
    outer loop
      vertex -15.5736 11.3149 1.75
      vertex -12.8808 14.3055 1
      vertex -12.8808 14.3055 1.75
    endloop
  endfacet
  facet normal 0.743145 -0.669131 0
    outer loop
      vertex -12.8808 14.3055 1
      vertex -15.5736 11.3149 1.75
      vertex -15.5736 11.3149 1
    endloop
  endfacet
  facet normal 0.743145 -0.669131 0
    outer loop
      vertex -15.5736 11.3149 -1
      vertex -12.8808 14.3055 -1.75
      vertex -12.8808 14.3055 -1
    endloop
  endfacet
  facet normal 0.743145 -0.669131 0
    outer loop
      vertex -12.8808 14.3055 -1.75
      vertex -15.5736 11.3149 -1
      vertex -15.5736 11.3149 -1.75
    endloop
  endfacet
  facet normal -0.994522 -0.104528 0
    outer loop
      vertex 19.25 0 1
      vertex 18.8293 4.0023 1.75
      vertex 18.8293 4.0023 1
    endloop
  endfacet
  facet normal -0.994522 -0.104528 0
    outer loop
      vertex 18.8293 4.0023 1.75
      vertex 19.25 0 1
      vertex 19.25 0 1.75
    endloop
  endfacet
  facet normal -0.994522 -0.104528 0
    outer loop
      vertex 19.25 0 -1.75
      vertex 18.8293 4.0023 -1
      vertex 18.8293 4.0023 -1.75
    endloop
  endfacet
  facet normal -0.994522 -0.104528 0
    outer loop
      vertex 18.8293 4.0023 -1
      vertex 19.25 0 -1.75
      vertex 19.25 0 -1
    endloop
  endfacet
  facet normal -0.951057 0.309017 0
    outer loop
      vertex 17.5858 -7.82968 1
      vertex 18.8293 -4.0023 1.75
      vertex 18.8293 -4.0023 1
    endloop
  endfacet
  facet normal -0.951057 0.309017 0
    outer loop
      vertex 18.8293 -4.0023 1.75
      vertex 17.5858 -7.82968 1
      vertex 17.5858 -7.82968 1.75
    endloop
  endfacet
  facet normal -0.951057 0.309017 0
    outer loop
      vertex 17.5858 -7.82968 -1.75
      vertex 18.8293 -4.0023 -1
      vertex 18.8293 -4.0023 -1.75
    endloop
  endfacet
  facet normal -0.951057 0.309017 0
    outer loop
      vertex 18.8293 -4.0023 -1
      vertex 17.5858 -7.82968 -1.75
      vertex 17.5858 -7.82968 -1
    endloop
  endfacet
  facet normal 0.994522 0.104528 0
    outer loop
      vertex -18.8293 -4.0023 1.75
      vertex -19.25 0 1
      vertex -19.25 0 1.75
    endloop
  endfacet
  facet normal 0.994522 0.104528 0
    outer loop
      vertex -19.25 0 1
      vertex -18.8293 -4.0023 1.75
      vertex -18.8293 -4.0023 1
    endloop
  endfacet
  facet normal 0.994522 0.104528 0
    outer loop
      vertex -18.8293 -4.0023 -1
      vertex -19.25 0 -1.75
      vertex -19.25 0 -1
    endloop
  endfacet
  facet normal 0.994522 0.104528 0
    outer loop
      vertex -19.25 0 -1.75
      vertex -18.8293 -4.0023 -1
      vertex -18.8293 -4.0023 -1.75
    endloop
  endfacet
  facet normal -0.587785 0.809017 0
    outer loop
      vertex 12.8808 -14.3055 1
      vertex 9.625 -16.671 1.75
      vertex 12.8808 -14.3055 1.75
    endloop
  endfacet
  facet normal -0.587785 0.809017 0
    outer loop
      vertex 9.625 -16.671 1.75
      vertex 12.8808 -14.3055 1
      vertex 9.625 -16.671 1
    endloop
  endfacet
  facet normal -0.587785 0.809017 0
    outer loop
      vertex 12.8808 -14.3055 -1.75
      vertex 9.625 -16.671 -1
      vertex 12.8808 -14.3055 -1
    endloop
  endfacet
  facet normal -0.587785 0.809017 0
    outer loop
      vertex 9.625 -16.671 -1
      vertex 12.8808 -14.3055 -1.75
      vertex 9.625 -16.671 -1.75
    endloop
  endfacet
  facet normal -0.866025 0.5 0
    outer loop
      vertex 15.5736 -11.3149 1
      vertex 17.5858 -7.82968 1.75
      vertex 17.5858 -7.82968 1
    endloop
  endfacet
  facet normal -0.866025 0.5 0
    outer loop
      vertex 17.5858 -7.82968 1.75
      vertex 15.5736 -11.3149 1
      vertex 15.5736 -11.3149 1.75
    endloop
  endfacet
  facet normal -0.866025 0.5 0
    outer loop
      vertex 15.5736 -11.3149 -1.75
      vertex 17.5858 -7.82968 -1
      vertex 17.5858 -7.82968 -1.75
    endloop
  endfacet
  facet normal -0.866025 0.5 0
    outer loop
      vertex 17.5858 -7.82968 -1
      vertex 15.5736 -11.3149 -1.75
      vertex 15.5736 -11.3149 -1
    endloop
  endfacet
  facet normal 0 1 -0
    outer loop
      vertex 2.01217 -19.1445 1
      vertex -2.01217 -19.1445 1.75
      vertex 2.01217 -19.1445 1.75
    endloop
  endfacet
  facet normal 0 1 0
    outer loop
      vertex -2.01217 -19.1445 1.75
      vertex 2.01217 -19.1445 1
      vertex -2.01217 -19.1445 1
    endloop
  endfacet
  facet normal 0 1 -0
    outer loop
      vertex 2.01217 -19.1445 -1.75
      vertex -2.01217 -19.1445 -1
      vertex 2.01217 -19.1445 -1
    endloop
  endfacet
  facet normal 0 1 0
    outer loop
      vertex -2.01217 -19.1445 -1
      vertex 2.01217 -19.1445 -1.75
      vertex -2.01217 -19.1445 -1.75
    endloop
  endfacet
  facet normal -0.207912 0.978148 0
    outer loop
      vertex 5.94858 -18.3078 1
      vertex 2.01217 -19.1445 1.75
      vertex 5.94858 -18.3078 1.75
    endloop
  endfacet
  facet normal -0.207912 0.978148 0
    outer loop
      vertex 2.01217 -19.1445 1.75
      vertex 5.94858 -18.3078 1
      vertex 2.01217 -19.1445 1
    endloop
  endfacet
  facet normal -0.207912 0.978148 0
    outer loop
      vertex 5.94858 -18.3078 -1.75
      vertex 2.01217 -19.1445 -1
      vertex 5.94858 -18.3078 -1
    endloop
  endfacet
  facet normal -0.207912 0.978148 0
    outer loop
      vertex 2.01217 -19.1445 -1
      vertex 5.94858 -18.3078 -1.75
      vertex 2.01217 -19.1445 -1.75
    endloop
  endfacet
  facet normal -0.406737 0.913545 0
    outer loop
      vertex 9.625 -16.671 1
      vertex 5.94858 -18.3078 1.75
      vertex 9.625 -16.671 1.75
    endloop
  endfacet
  facet normal -0.406737 0.913545 0
    outer loop
      vertex 5.94858 -18.3078 1.75
      vertex 9.625 -16.671 1
      vertex 5.94858 -18.3078 1
    endloop
  endfacet
  facet normal -0.406737 0.913545 0
    outer loop
      vertex 9.625 -16.671 -1.75
      vertex 5.94858 -18.3078 -1
      vertex 9.625 -16.671 -1
    endloop
  endfacet
  facet normal -0.406737 0.913545 0
    outer loop
      vertex 5.94858 -18.3078 -1
      vertex 9.625 -16.671 -1.75
      vertex 5.94858 -18.3078 -1.75
    endloop
  endfacet
  facet normal 0.866025 0.5 0
    outer loop
      vertex -15.5736 -11.3149 1.75
      vertex -17.5858 -7.82968 1
      vertex -17.5858 -7.82968 1.75
    endloop
  endfacet
  facet normal 0.866025 0.5 0
    outer loop
      vertex -17.5858 -7.82968 1
      vertex -15.5736 -11.3149 1.75
      vertex -15.5736 -11.3149 1
    endloop
  endfacet
  facet normal 0.866025 0.5 0
    outer loop
      vertex -15.5736 -11.3149 -1
      vertex -17.5858 -7.82968 -1.75
      vertex -17.5858 -7.82968 -1
    endloop
  endfacet
  facet normal 0.866025 0.5 0
    outer loop
      vertex -17.5858 -7.82968 -1.75
      vertex -15.5736 -11.3149 -1
      vertex -15.5736 -11.3149 -1.75
    endloop
  endfacet
  facet normal 0.951057 0.309017 0
    outer loop
      vertex -17.5858 -7.82968 1.75
      vertex -18.8293 -4.0023 1
      vertex -18.8293 -4.0023 1.75
    endloop
  endfacet
  facet normal 0.951057 0.309017 0
    outer loop
      vertex -18.8293 -4.0023 1
      vertex -17.5858 -7.82968 1.75
      vertex -17.5858 -7.82968 1
    endloop
  endfacet
  facet normal 0.951057 0.309017 0
    outer loop
      vertex -17.5858 -7.82968 -1
      vertex -18.8293 -4.0023 -1.75
      vertex -18.8293 -4.0023 -1
    endloop
  endfacet
  facet normal 0.951057 0.309017 0
    outer loop
      vertex -18.8293 -4.0023 -1.75
      vertex -17.5858 -7.82968 -1
      vertex -17.5858 -7.82968 -1.75
    endloop
  endfacet
  facet normal 0.743145 0.669131 0
    outer loop
      vertex -12.8808 -14.3055 1.75
      vertex -15.5736 -11.3149 1
      vertex -15.5736 -11.3149 1.75
    endloop
  endfacet
  facet normal 0.743145 0.669131 0
    outer loop
      vertex -15.5736 -11.3149 1
      vertex -12.8808 -14.3055 1.75
      vertex -12.8808 -14.3055 1
    endloop
  endfacet
  facet normal 0.743145 0.669131 0
    outer loop
      vertex -12.8808 -14.3055 -1
      vertex -15.5736 -11.3149 -1.75
      vertex -15.5736 -11.3149 -1
    endloop
  endfacet
  facet normal 0.743145 0.669131 0
    outer loop
      vertex -15.5736 -11.3149 -1.75
      vertex -12.8808 -14.3055 -1
      vertex -12.8808 -14.3055 -1.75
    endloop
  endfacet
  facet normal 0.207912 0.978148 -0
    outer loop
      vertex -2.01217 -19.1445 1
      vertex -5.94858 -18.3078 1.75
      vertex -2.01217 -19.1445 1.75
    endloop
  endfacet
  facet normal 0.207912 0.978148 0
    outer loop
      vertex -5.94858 -18.3078 1.75
      vertex -2.01217 -19.1445 1
      vertex -5.94858 -18.3078 1
    endloop
  endfacet
  facet normal 0.207912 0.978148 -0
    outer loop
      vertex -2.01217 -19.1445 -1.75
      vertex -5.94858 -18.3078 -1
      vertex -2.01217 -19.1445 -1
    endloop
  endfacet
  facet normal 0.207912 0.978148 0
    outer loop
      vertex -5.94858 -18.3078 -1
      vertex -2.01217 -19.1445 -1.75
      vertex -5.94858 -18.3078 -1.75
    endloop
  endfacet
  facet normal -0.743145 0.669131 0
    outer loop
      vertex 12.8808 -14.3055 1
      vertex 15.5736 -11.3149 1.75
      vertex 15.5736 -11.3149 1
    endloop
  endfacet
  facet normal -0.743145 0.669131 0
    outer loop
      vertex 15.5736 -11.3149 1.75
      vertex 12.8808 -14.3055 1
      vertex 12.8808 -14.3055 1.75
    endloop
  endfacet
  facet normal -0.743145 0.669131 0
    outer loop
      vertex 12.8808 -14.3055 -1.75
      vertex 15.5736 -11.3149 -1
      vertex 15.5736 -11.3149 -1.75
    endloop
  endfacet
  facet normal -0.743145 0.669131 0
    outer loop
      vertex 15.5736 -11.3149 -1
      vertex 12.8808 -14.3055 -1.75
      vertex 12.8808 -14.3055 -1
    endloop
  endfacet
  facet normal 0.406737 0.913545 -0
    outer loop
      vertex -5.94858 -18.3078 1
      vertex -9.625 -16.671 1.75
      vertex -5.94858 -18.3078 1.75
    endloop
  endfacet
  facet normal 0.406737 0.913545 0
    outer loop
      vertex -9.625 -16.671 1.75
      vertex -5.94858 -18.3078 1
      vertex -9.625 -16.671 1
    endloop
  endfacet
  facet normal 0.406737 0.913545 -0
    outer loop
      vertex -5.94858 -18.3078 -1.75
      vertex -9.625 -16.671 -1
      vertex -5.94858 -18.3078 -1
    endloop
  endfacet
  facet normal 0.406737 0.913545 0
    outer loop
      vertex -9.625 -16.671 -1
      vertex -5.94858 -18.3078 -1.75
      vertex -9.625 -16.671 -1.75
    endloop
  endfacet
  facet normal 0.587785 0.809017 -0
    outer loop
      vertex -9.625 -16.671 1
      vertex -12.8808 -14.3055 1.75
      vertex -9.625 -16.671 1.75
    endloop
  endfacet
  facet normal 0.587785 0.809017 0
    outer loop
      vertex -12.8808 -14.3055 1.75
      vertex -9.625 -16.671 1
      vertex -12.8808 -14.3055 1
    endloop
  endfacet
  facet normal 0.587785 0.809017 -0
    outer loop
      vertex -9.625 -16.671 -1.75
      vertex -12.8808 -14.3055 -1
      vertex -9.625 -16.671 -1
    endloop
  endfacet
  facet normal 0.587785 0.809017 0
    outer loop
      vertex -12.8808 -14.3055 -1
      vertex -9.625 -16.671 -1.75
      vertex -12.8808 -14.3055 -1.75
    endloop
  endfacet
endsolid OpenSCAD_Model
